<svg width="40" height="40" viewBox="0 0 40 40" fill="none" xmlns="http://www.w3.org/2000/svg">
<path d="M25.0056 18.3066H21.478C20.9245 18.3066 20.4759 18.7465 20.4759 19.2891V22.7478C20.4759 23.2904 20.9245 23.7303 21.478 23.7303H25.0056C25.5591 23.7303 26.0077 23.2904 26.0077 22.7478V19.2891C26.0077 18.7465 25.5591 18.3066 25.0056 18.3066Z" fill="#4C06B7"/>
<path d="M36.8566 33.4147C36.8853 33.3291 36.9091 33.2421 36.9282 33.154L37.4906 27.7905C37.5132 27.5889 37.4949 27.3848 37.4366 27.1902C37.3782 26.9956 37.2811 26.8143 37.1508 26.6567C37.0205 26.4991 36.8597 26.3685 36.6775 26.2723C36.4954 26.1761 36.2956 26.1162 36.0897 26.0962C35.6755 26.0648 35.2649 26.1909 34.943 26.4486C34.6212 26.7062 34.413 27.0755 34.3617 27.4797L34.147 29.575L31.2737 26.6977C31.4669 26.2364 31.5676 25.7428 31.5702 25.2441V16.7828C31.5675 15.7413 31.1444 14.7433 30.3932 14.0069C29.6421 13.2704 28.6242 12.8556 27.5619 12.8529H24.8216V8.61224L26.3554 9.87541C26.6754 10.1413 27.09 10.2717 27.508 10.2378C27.9261 10.204 28.3133 10.0087 28.5845 9.69497C28.8556 9.38122 28.9886 8.97469 28.9541 8.56483C28.9196 8.15497 28.7204 7.77534 28.4004 7.50946L24.3103 4.11091C24.2286 4.05819 24.1432 4.01129 24.0547 3.97056C23.997 3.93102 23.9353 3.89743 23.8706 3.87031C23.6905 3.79139 23.4954 3.7504 23.298 3.75H23.2265C23.0585 3.75817 22.8929 3.792 22.7356 3.85026C22.6643 3.88097 22.5958 3.91788 22.5311 3.96054C22.4472 3.99359 22.3681 4.03742 22.296 4.09087L17.9809 7.52951C17.6571 7.7885 17.4508 8.16238 17.4067 8.56981C17.3627 8.97723 17.4845 9.38521 17.7458 9.70499C18.0099 10.0224 18.3912 10.2248 18.8068 10.268C19.2223 10.3112 19.6385 10.1917 19.9646 9.93556L21.6722 8.58217V12.893H18.9319C17.8679 12.893 16.8473 13.3067 16.094 14.0434C15.3407 14.7801 14.9161 15.7797 14.9134 16.8229V19.4395H7.44899L8.74759 17.9357C9.01356 17.6209 9.14231 17.2161 9.10594 16.8089C9.06958 16.4017 8.87103 16.0249 8.55331 15.7602C8.39546 15.6286 8.21251 15.529 8.01508 15.4673C7.81766 15.4056 7.60969 15.3829 7.40326 15.4006C7.19682 15.4183 6.99604 15.4761 6.81256 15.5705C6.62908 15.6649 6.46656 15.7942 6.33445 15.9507L2.86811 19.9608C2.80837 20.0372 2.76015 20.1216 2.72495 20.2114C2.68154 20.2678 2.64387 20.3283 2.61248 20.3919C2.53996 20.5671 2.5018 20.7542 2.5 20.9433C2.5 20.9433 2.5 20.9433 2.5 20.9934C2.50834 21.1645 2.54281 21.3335 2.60225 21.4946C2.60225 21.5648 2.67383 21.625 2.7045 21.6851C2.74268 21.7652 2.78712 21.8423 2.83743 21.9157L6.30376 26.1063C6.4345 26.2638 6.59568 26.3946 6.77805 26.491C6.96041 26.5874 7.16039 26.6475 7.36651 26.668C7.57264 26.6885 7.78086 26.6689 7.97925 26.6104C8.17764 26.5518 8.3623 26.4555 8.52264 26.3268C8.84577 26.0696 9.05189 25.6974 9.09596 25.2917C9.14003 24.8859 9.01846 24.4795 8.75781 24.1614L7.36719 22.4871H14.9032V25.2441C14.9059 26.2873 15.3304 27.2868 16.0838 28.0236C16.8371 28.7603 17.8577 29.174 18.9217 29.174H27.5517C28.0603 29.1704 28.5635 29.0717 29.0344 28.8832L31.8872 31.7404L29.8422 31.9109C29.4245 31.9282 29.031 32.1074 28.7482 32.4091C28.4653 32.7109 28.3163 33.1104 28.3339 33.5199C28.3516 33.9294 28.5344 34.3152 28.8421 34.5925C29.1499 34.8698 29.5575 35.0159 29.9751 34.9986H30.108L35.4762 34.5475C35.5661 34.5288 35.6548 34.5054 35.7421 34.4773C35.8153 34.4633 35.8871 34.4431 35.9568 34.4172C36.1266 34.3479 36.2825 34.2494 36.417 34.1264C36.5488 33.9975 36.6531 33.8442 36.7237 33.6753C36.7828 33.5964 36.8277 33.5083 36.8566 33.4147ZM27.5619 26.0862H18.9319C18.8182 26.0875 18.7054 26.0667 18.6 26.025C18.4947 25.9833 18.3988 25.9215 18.3179 25.8431C18.2371 25.7648 18.1729 25.6715 18.1291 25.5687C18.0853 25.4658 18.0627 25.3555 18.0627 25.2441V16.7828C18.0627 16.6714 18.0853 16.561 18.1291 16.4582C18.1729 16.3554 18.2371 16.2621 18.3179 16.1838C18.3988 16.1054 18.4947 16.0436 18.6 16.0019C18.7054 15.9602 18.8182 15.9394 18.9319 15.9407H27.5619C27.7897 15.9407 28.0082 16.0294 28.1693 16.1873C28.3304 16.3453 28.4209 16.5594 28.4209 16.7828V25.2441C28.4209 25.4674 28.3304 25.6816 28.1693 25.8396C28.0082 25.9975 27.7897 26.0862 27.5619 26.0862Z" fill="#4C06B7"/>
</svg>
