<svg width="41" height="40" viewBox="0 0 41 40" fill="none" xmlns="http://www.w3.org/2000/svg">
<path fill-rule="evenodd" clip-rule="evenodd" d="M29.7473 11.6604L22.5169 4.51036C21.4551 3.46036 19.6349 4.1937 19.6349 5.67703V15.977L13.0787 9.4937C12.7638 9.18161 12.3363 9.00622 11.8905 9.00622C11.4447 9.00622 11.0172 9.18161 10.7023 9.4937C10.045 10.1437 10.045 11.1937 10.7023 11.8437L18.9439 19.9937L10.7023 28.1437C10.045 28.7937 10.045 29.8437 10.7023 30.4937C11.3596 31.1437 12.4214 31.1437 13.0787 30.4937L19.6349 24.0104V34.3104C19.6349 35.7937 21.4551 36.5437 22.5169 35.4937L29.7473 28.327C30.4046 27.677 30.4046 26.627 29.7473 25.977L23.6967 19.9937L29.7473 14.027C30.4046 13.377 30.4046 12.3104 29.7473 11.6604ZM23.0057 9.71038L26.1743 12.8437L23.0057 15.977V9.71038ZM23.0057 30.277L26.1743 27.1437L23.0057 24.0104V30.277Z" fill="#4C06B7"/>
</svg>
