<svg width="41" height="40" viewBox="0 0 41 40" fill="none" xmlns="http://www.w3.org/2000/svg">
<path fill-rule="evenodd" clip-rule="evenodd" d="M34.6072 18.4091C33.8672 11.775 28.5421 6.50909 21.8335 5.77727V4.09091C21.8335 3.21591 21.1095 2.5 20.2247 2.5C19.3399 2.5 18.6159 3.21591 18.6159 4.09091V5.77727C11.9073 6.50909 6.58221 11.775 5.84217 18.4091H4.13686C3.25203 18.4091 2.52808 19.125 2.52808 20C2.52808 20.875 3.25203 21.5909 4.13686 21.5909H5.84217C6.58221 28.225 11.9073 33.4909 18.6159 34.2227V35.9091C18.6159 36.7841 19.3399 37.5 20.2247 37.5C21.1095 37.5 21.8335 36.7841 21.8335 35.9091V34.2227C28.5421 33.4909 33.8672 28.225 34.6072 21.5909H36.3125C37.1974 21.5909 37.9213 20.875 37.9213 20C37.9213 19.125 37.1974 18.4091 36.3125 18.4091H34.6072ZM20.2247 13.6364C16.6693 13.6364 13.7896 16.4841 13.7896 20C13.7896 23.5159 16.6693 26.3636 20.2247 26.3636C23.7801 26.3636 26.6598 23.5159 26.6598 20C26.6598 16.4841 23.7801 13.6364 20.2247 13.6364ZM8.96321 20C8.96321 26.1568 13.9987 31.1364 20.2247 31.1364C26.4507 31.1364 31.4862 26.1568 31.4862 20C31.4862 13.8432 26.4507 8.86364 20.2247 8.86364C13.9987 8.86364 8.96321 13.8432 8.96321 20Z" fill="#4C06B7"/>
</svg>
