<svg width="33" height="27" viewBox="0 0 33 27" fill="none" xmlns="http://www.w3.org/2000/svg">
<path fill-rule="evenodd" clip-rule="evenodd" d="M24.2085 1.52396C25.342 3.14896 24.9605 5.39715 23.3565 6.54542C21.7524 7.69369 19.5331 7.30722 18.3997 5.68221C17.2662 4.05721 17.6478 1.80902 19.2518 0.66075C20.8559 -0.487519 23.075 -0.101046 24.2085 1.52396ZM31.2117 7.43799C32.6905 8.74765 32.8413 11.0238 31.5485 12.5218C30.2558 14.0199 28.009 14.1726 26.5302 12.8629C25.0515 11.5533 24.9007 9.27721 26.1935 7.77917C27.4862 6.28111 29.7329 6.12836 31.2117 7.43799ZM6.70717 12.2605C7.86145 10.6506 7.50895 8.39754 5.91981 7.22821C4.33067 6.05885 2.10669 6.41597 0.9524 8.02585C-0.201888 9.63569 0.150625 11.8887 1.73976 13.0581C3.32889 14.2274 5.55288 13.8704 6.70717 12.2605ZM14.8723 4.11709C14.6163 6.07697 12.7954 7.46041 10.8608 7.17219C8.9262 6.88398 7.56061 5.06821 7.84511 3.10834C8.10117 1.14846 9.92198 -0.23498 11.8566 0.053237C13.7912 0.312632 15.1568 2.15722 14.8723 4.11709ZM25.8253 14.1758L21.4156 9.67967C20.1352 8.35389 18.3144 7.51803 16.3513 7.51803C14.3599 7.51803 12.5675 8.35389 11.2872 9.67967L6.9059 14.1758C5.62565 15.4728 4.82904 17.2597 4.82904 19.2773C4.82904 23.2546 8.01546 26.4827 11.9416 26.4827C12.6529 26.4827 13.3641 26.3674 14.0185 26.1657C14.303 26.0792 14.5875 25.9927 14.872 25.9351L11.4295 19.8825C10.9458 19.0467 10.6613 18.0668 10.6613 17.0004C10.6613 13.83 13.2218 11.236 16.3513 11.236C19.4809 11.236 22.0414 13.83 22.0414 17.0004C22.0414 20.1707 19.4809 22.7647 16.3513 22.7647H16.323V25.7621C17.0911 25.7621 17.8308 25.8774 18.5136 26.108C19.2249 26.3386 19.9646 26.4827 20.7612 26.4827C24.6873 26.4827 27.8737 23.2546 27.8737 19.2773C27.9022 17.2886 27.1056 15.4728 25.8253 14.1758ZM19.1965 17.0004C19.1965 18.5922 17.9227 19.8825 16.3515 19.8825C14.7802 19.8825 13.5065 18.5922 13.5065 17.0004C13.5065 15.4086 14.7802 14.1182 16.3515 14.1182C17.9227 14.1182 19.1965 15.4086 19.1965 17.0004Z" fill="#4C06B7"/>
</svg>
