<svg width="40" height="40" viewBox="0 0 40 40" fill="none" xmlns="http://www.w3.org/2000/svg">
<path d="M21.8962 12.7444C23.9529 14.2364 25.7594 16.0474 27.2477 18.1092C29.7625 12.7243 27.1672 10.2637 21.8962 12.7444Z" fill="#4C06B7"/>
<path d="M11.5553 20.005C7.12924 12.0486 11.9979 7.05696 20.005 11.5343C22.3891 10.2032 25.7488 9.08388 28.0524 10.5259L30.8489 7.72251C27.7112 5.01979 23.6708 3.60509 19.5369 3.76175C15.4029 3.9184 11.4806 5.63484 8.55539 8.56732C5.63017 11.4998 3.91799 15.4318 3.76172 19.576C3.60545 23.7202 5.01663 27.7706 7.71267 30.9161L10.4991 28.1228C9.34227 26.1766 9.81505 23.1311 11.5553 20.005Z" fill="#4C06B7"/>
<path d="M27.5092 27.5278C28.3139 26.711 28.4145 25.1379 27.7707 23.2118C27.6219 22.7538 27.4438 22.3058 27.2376 21.8706C25.7564 23.9438 23.953 25.7653 21.8962 27.2657C23.5861 28.0522 26.2317 28.8085 27.5092 27.5278Z" fill="#4C06B7"/>
<path d="M18.1139 12.7344C16.9889 12.1703 15.759 11.8475 14.5026 11.7864C11.1831 11.7864 11.3541 15.0941 12.7624 18.1092C14.253 16.0465 16.059 14.2325 18.1139 12.7344Z" fill="#4C06B7"/>
<path d="M32.2672 9.0738L29.4909 11.8469C30.7483 13.8638 30.1447 16.889 28.485 19.9849C32.9412 27.9716 28.0323 32.9229 20.0553 28.4657C17.6612 29.7968 14.3015 30.906 11.9476 29.4741L9.15114 32.2775C12.2888 34.9802 16.3292 36.3949 20.4632 36.2383C24.5971 36.0816 28.5194 34.3652 31.4446 31.4327C34.3698 28.5002 36.082 24.5682 36.2383 20.424C36.3945 16.2798 34.9834 12.2294 32.2873 9.08388L32.2672 9.0738Z" fill="#4C06B7"/>
<path d="M12.4908 27.5278C13.7784 28.8186 16.5145 28.032 18.1139 27.2556C16.0549 25.7662 14.2481 23.9549 12.7624 21.8908C11.9778 23.5547 11.2133 26.2371 12.4908 27.5278Z" fill="#4C06B7"/>
<path d="M26.1915 19.995C24.5734 17.5259 22.468 15.4153 20.005 13.7932C17.539 15.4149 15.4302 17.5254 13.8086 19.995C15.4271 22.4698 17.5363 24.5842 20.005 26.2068C22.4685 24.5812 24.5738 22.4671 26.1915 19.995ZM17.953 17.9781C18.3579 17.5715 18.8741 17.2945 19.4362 17.1821C19.9983 17.0697 20.581 17.127 21.1106 17.3467C21.6403 17.5664 22.093 17.9386 22.4115 18.4163C22.73 18.894 22.9 19.4557 22.9 20.0303C22.9 20.6048 22.73 21.1665 22.4115 21.6442C22.093 22.1219 21.6403 22.4941 21.1106 22.7138C20.581 22.9335 19.9983 22.9908 19.4362 22.8784C18.8741 22.766 18.3579 22.489 17.953 22.0824C17.681 21.8115 17.4653 21.4895 17.318 21.1347C17.1708 20.7799 17.095 20.3994 17.095 20.0151C17.095 19.6309 17.1708 19.2504 17.318 18.8956C17.4653 18.5408 17.681 18.2187 17.953 17.9479V17.9781Z" fill="#4C06B7"/>
<path d="M34.7619 3.83003L30.8992 7.70235C31.38 8.13394 31.8367 8.59178 32.2672 9.0738L36.1299 5.20148L34.7619 3.83003Z" fill="#4C06B7"/>
<path d="M3.88011 34.7582L5.23811 36.1196L9.10085 32.2573C8.62003 31.8257 8.16332 31.3679 7.73279 30.8859L3.88011 34.7582Z" fill="#4C06B7"/>
<path d="M20.005 19.037C19.8061 19.037 19.6116 19.0961 19.4462 19.2069C19.2807 19.3177 19.1518 19.4752 19.0757 19.6595C18.9995 19.8437 18.9796 20.0465 19.0184 20.2421C19.0573 20.4377 19.1531 20.6174 19.2937 20.7584C19.4344 20.8995 19.6137 20.9955 19.8088 21.0344C20.0039 21.0733 20.2062 21.0534 20.39 20.977C20.5738 20.9007 20.7309 20.7715 20.8414 20.6056C20.952 20.4398 21.0109 20.2448 21.0109 20.0454C21.0109 19.7779 20.905 19.5214 20.7163 19.3323C20.5277 19.1432 20.2718 19.037 20.005 19.037Z" fill="#4C06B7"/>
</svg>
