<svg width="148" height="32" viewBox="0 0 148 32" fill="none" xmlns="http://www.w3.org/2000/svg">
<g clip-path="url(#clip0_1254_10829)">
<path fill-rule="evenodd" clip-rule="evenodd" d="M24.2085 1.52396C25.342 3.14896 24.9605 5.39715 23.3565 6.54542C21.7524 7.69369 19.5331 7.30722 18.3997 5.68221C17.2662 4.05721 17.6478 1.80902 19.2518 0.66075C20.8559 -0.487519 23.075 -0.101046 24.2085 1.52396ZM31.2117 7.43799C32.6905 8.74765 32.8413 11.0238 31.5485 12.5218C30.2558 14.0199 28.009 14.1726 26.5302 12.8629C25.0515 11.5533 24.9007 9.27721 26.1935 7.77917C27.4862 6.28111 29.7329 6.12836 31.2117 7.43799ZM6.70717 12.2605C7.86145 10.6506 7.50895 8.39754 5.91981 7.22821C4.33067 6.05885 2.10669 6.41597 0.9524 8.02585C-0.201888 9.63569 0.150625 11.8887 1.73976 13.0581C3.32889 14.2274 5.55288 13.8704 6.70717 12.2605ZM14.8723 4.11709C14.6163 6.07697 12.7954 7.46041 10.8608 7.17219C8.9262 6.88398 7.56061 5.06821 7.84511 3.10834C8.10117 1.14846 9.92198 -0.23498 11.8566 0.053237C13.7912 0.312632 15.1568 2.15722 14.8723 4.11709ZM25.8253 14.1758L21.4156 9.67967C20.1352 8.35389 18.3144 7.51803 16.3514 7.51803C14.3599 7.51803 12.5675 8.35389 11.2872 9.67967L6.9059 14.1758C5.62565 15.4728 4.82904 17.2597 4.82904 19.2773C4.82904 23.2546 8.01546 26.4827 11.9416 26.4827C12.6529 26.4827 13.3641 26.3674 14.0185 26.1657C14.303 26.0792 14.5875 25.9927 14.872 25.9351L11.4295 19.8825C10.9458 19.0467 10.6613 18.0668 10.6613 17.0004C10.6613 13.83 13.2218 11.236 16.3514 11.236C19.4809 11.236 22.0414 13.83 22.0414 17.0004C22.0414 20.1707 19.4809 22.7647 16.3514 22.7647H16.323V25.7621C17.0911 25.7621 17.8308 25.8774 18.5136 26.108C19.2249 26.3386 19.9646 26.4827 20.7612 26.4827C24.6873 26.4827 27.8737 23.2546 27.8737 19.2773C27.9022 17.2886 27.1056 15.4728 25.8253 14.1758ZM19.1965 17.0004C19.1965 18.5922 17.9227 19.8825 16.3515 19.8825C14.7802 19.8825 13.5065 18.5922 13.5065 17.0004C13.5065 15.4086 14.7802 14.1182 16.3515 14.1182C17.9227 14.1182 19.1965 15.4086 19.1965 17.0004Z" fill="#4C06B7"/>
<path d="M56.8202 8.45022V25.7534C56.8202 26.221 56.5603 26.4841 56.0983 26.4841H52.7781C52.3162 26.4841 52.0563 26.221 52.0563 25.7534V15.4358L49.0249 23.2397C48.8805 23.6489 48.5917 23.8243 48.1875 23.8243H45.9933C45.5891 23.8243 45.3004 23.6489 45.1561 23.2397L42.1245 15.4358V25.7534C42.1245 26.221 41.8647 26.4841 41.4028 26.4841H38.0536C37.5918 26.4841 37.3319 26.221 37.3319 25.7534V8.45022C37.3319 7.98259 37.5918 7.71953 38.0536 7.71953H41.3739H42.3844C42.7886 7.71953 43.0773 7.8949 43.2216 8.30408L47.0327 18.0956L50.9015 8.27487C51.0459 7.86567 51.3345 7.69031 51.7387 7.69031H54.1062H56.0983C56.5603 7.71953 56.8202 7.98259 56.8202 8.45022Z" fill="white"/>
<path d="M67.5893 13.6823C67.7047 13.2731 67.9934 13.0685 68.3976 13.0685H71.6024C72.1221 13.0685 72.382 13.39 72.2087 13.8869L66.3766 31.2777C66.2323 31.6869 65.9435 31.8622 65.5394 31.8622H62.3346C61.815 31.8622 61.5551 31.5408 61.7283 31.0439L63.2874 26.3673L58.5236 13.9454C58.3504 13.4485 58.5525 13.0978 59.101 13.0978H62.3057C62.71 13.0978 62.9986 13.3023 63.1431 13.6823L65.5394 20.551L67.5893 13.6823Z" fill="white"/>
<path d="M87.8277 14.2959C87.8277 18.154 84.8829 20.8723 81.1298 20.8723H78.6179V25.7534C78.6179 26.221 78.3581 26.4841 77.8961 26.4841H74.5759C74.114 26.4841 73.8541 26.221 73.8541 25.7534V8.4503C73.8541 7.98261 74.114 7.71955 74.5759 7.71955H78.6179H81.1298C84.8829 7.71955 87.8277 10.4377 87.8277 14.2959ZM83.0351 14.2959C83.0351 13.1268 82.1982 12.3083 81.1298 12.3083H78.6179V16.3126H81.1298C82.2269 16.2834 83.0351 15.465 83.0351 14.2959Z" fill="white"/>
<path d="M102.119 19.7616C102.119 20.1123 102.091 20.4339 102.061 20.7554C102.004 21.223 101.715 21.4276 101.282 21.4276H97.7887H92.7647C93.2554 22.889 94.4107 23.4443 95.5947 23.4443C96.2002 23.4443 96.8066 23.2398 97.1824 22.9474C97.4999 22.7429 97.7305 22.5675 98.1063 22.5675H100.82C101.34 22.5675 101.629 22.9182 101.397 23.4443C100.329 25.8119 98.048 26.8933 95.392 26.8933C91.0326 26.8933 88.2035 23.7951 88.2035 19.8201C88.2035 15.8158 91.1196 12.7468 95.3633 12.7468C99.2894 12.6883 102.119 15.7281 102.119 19.7616ZM97.8462 18.3002C97.4712 16.9264 96.489 16.4588 95.392 16.4588C94.0931 16.4588 93.111 17.0726 92.736 18.3002H97.8462Z" fill="white"/>
<path d="M111.387 13.7993V16.6052C111.387 17.0729 111.127 17.336 110.665 17.336H109.424V25.7537C109.424 26.2213 109.164 26.4843 108.702 26.4843H105.699C105.237 26.4843 104.978 26.2213 104.978 25.7537V17.336H103.707C103.245 17.336 102.986 17.0729 102.986 16.6052V13.7993C102.986 13.3317 103.245 13.0686 103.707 13.0686H104.978V9.53198C104.978 9.06437 105.237 8.80131 105.699 8.80131H108.702C109.164 8.80131 109.424 9.06437 109.424 9.53198V13.0978H110.665C111.127 13.0686 111.387 13.3317 111.387 13.7993Z" fill="white"/>
<path d="M131.51 16.8974V20.1709V25.7827C131.51 26.2504 131.251 26.5135 130.789 26.5135H127.989C127.527 26.5135 127.266 26.2504 127.266 25.7827V24.6721C126.025 26.1335 124.149 26.9227 121.723 26.9227C116.41 26.9227 112.484 22.6553 112.484 17.1312C112.484 11.5778 116.584 7.33974 122.242 7.33974C126.516 7.33974 130.096 9.9703 131.251 13.4192C131.424 13.9161 131.164 14.2376 130.645 14.2376H127.065C126.66 14.2376 126.429 14.0915 126.198 13.7407C125.447 12.747 124.033 11.987 122.301 11.987C119.269 11.987 117.277 14.0915 117.277 17.1019C117.277 20.3755 119.356 22.48 122.271 22.48C124.177 22.48 125.765 21.7492 126.487 20.1709H123.166C122.704 20.1709 122.445 19.9079 122.445 19.4402V16.8974C122.445 16.4297 122.704 16.1666 123.166 16.1666H130.818C131.251 16.1666 131.51 16.4297 131.51 16.8974Z" fill="white"/>
<path d="M133.329 19.791C133.329 15.7867 136.505 12.7178 140.46 12.7178C144.445 12.6885 147.621 15.7867 147.621 19.791C147.621 23.7953 144.445 26.8642 140.489 26.8642C136.534 26.8642 133.329 23.7953 133.329 19.791ZM143.175 19.791C143.175 18.125 142.019 17.0143 140.489 17.0143C138.96 17.0143 137.804 18.125 137.804 19.791C137.804 21.457 138.96 22.5677 140.489 22.5677C142.019 22.5677 143.175 21.457 143.175 19.791Z" fill="white"/>
</g>
<defs>
<clipPath id="clip0_1254_10829">
<rect width="147.692" height="32" fill="white"/>
</clipPath>
</defs>
</svg>
