<svg width="40" height="40" viewBox="0 0 40 40" fill="none" xmlns="http://www.w3.org/2000/svg">
<path d="M36.788 16.024H34.3522V14.7199C34.3498 14.1303 34.1108 13.5657 33.6877 13.1496C33.2645 12.7336 32.6917 12.5 32.0945 12.5H4.74843C4.15212 12.5 3.58021 12.7339 3.15856 13.1502C2.7369 13.5665 2.50002 14.1311 2.50002 14.7199V27.7709C2.49879 28.0632 2.55603 28.3528 2.66847 28.6232C2.78091 28.8936 2.94633 29.1394 3.15524 29.3465C3.36415 29.5537 3.61242 29.718 3.88582 29.8301C4.15922 29.9423 4.45238 30 4.74843 30H32.0945C32.6933 30 33.2675 29.7651 33.691 29.3471C34.1144 28.9291 34.3522 28.3621 34.3522 27.7709V26.4759H36.788C36.9768 26.4759 37.1579 26.4019 37.2915 26.27C37.425 26.1382 37.5 25.9594 37.5 25.773V16.727C37.5 16.5406 37.425 16.3618 37.2915 16.2299C37.1579 16.0981 36.9768 16.024 36.788 16.024ZM10.3788 24.7833H5.13254V17.1432H6.79072V23.3126H10.3788V24.7833ZM12.8707 24.7833H11.3718V19.4371H12.8707V24.7833ZM12.7396 18.5029C12.5602 18.6547 12.3293 18.734 12.0932 18.7249C11.9832 18.7303 11.8732 18.7134 11.7701 18.6752C11.667 18.637 11.5729 18.5784 11.4936 18.5029C11.3509 18.336 11.2727 18.1247 11.2727 17.9063C11.2727 17.6879 11.3509 17.4766 11.4936 17.3097C11.5729 17.2342 11.667 17.1756 11.7701 17.1374C11.8732 17.0992 11.9832 17.0823 12.0932 17.0877C12.3293 17.0786 12.5602 17.1579 12.7396 17.3097C12.8823 17.4766 12.9605 17.6879 12.9605 17.9063C12.9605 18.1247 12.8823 18.336 12.7396 18.5029ZM18.0608 22.2027H14.0886V20.8893H18.0608V22.2027ZM24.6748 21.5182C24.4112 21.7644 24.1008 21.9566 23.7615 22.0836C23.4222 22.2106 23.0608 22.27 22.6981 22.2582H21.0961V24.7648H19.4379V17.1247H22.6981C23.0609 17.1119 23.4226 17.1708 23.762 17.2978C24.1015 17.4249 24.4118 17.6176 24.6748 17.8647C24.9239 18.1012 25.122 18.3849 25.2574 18.6988C25.3927 19.0127 25.4625 19.3503 25.4625 19.6915C25.4625 20.0326 25.3927 20.3703 25.2574 20.6842C25.122 20.9981 24.9239 21.2818 24.6748 21.5182ZM30.9609 24.0341C30.6989 24.3012 30.3851 24.5136 30.0383 24.6587C29.6915 24.8037 29.3187 24.8785 28.9421 24.8785C28.5654 24.8785 28.1926 24.8037 27.8458 24.6587C27.499 24.5136 27.1852 24.3012 26.9232 24.0341C26.6516 23.7856 26.4349 23.4844 26.2868 23.1493C26.1386 22.8143 26.0621 22.4526 26.0621 22.0871C26.0621 21.7215 26.1386 21.3599 26.2868 21.0248C26.4349 20.6898 26.6516 20.3886 26.9232 20.1401C27.1852 19.8729 27.499 19.6605 27.8458 19.5155C28.1926 19.3704 28.5654 19.2957 28.9421 19.2957C29.3187 19.2957 29.6915 19.3704 30.0383 19.5155C30.3851 19.6605 30.6989 19.8729 30.9609 20.1401C31.23 20.39 31.4445 20.6917 31.5911 21.0265C31.7377 21.3614 31.8133 21.7223 31.8133 22.0871C31.8133 22.4518 31.7377 22.8128 31.5911 23.1476C31.4445 23.4825 31.23 23.7841 30.9609 24.0341Z" fill="#4C06B7"/>
<path d="M28.9467 20.695C28.7701 20.6923 28.595 20.7272 28.4333 20.7975C28.2716 20.8677 28.1272 20.9716 28.0099 21.102C27.7558 21.3778 27.615 21.7373 27.615 22.1102C27.615 22.4831 27.7558 22.8425 28.0099 23.1184C28.1285 23.2475 28.2731 23.3506 28.4344 23.4212C28.5958 23.4917 28.7703 23.5282 28.9467 23.5282C29.1232 23.5282 29.2977 23.4917 29.4591 23.4212C29.6204 23.3506 29.765 23.2475 29.8836 23.1184C30.1377 22.8425 30.2785 22.4831 30.2785 22.1102C30.2785 21.7373 30.1377 21.3778 29.8836 21.102C29.7667 20.9711 29.6223 20.8669 29.4606 20.7966C29.2988 20.7263 29.1235 20.6917 28.9467 20.695Z" fill="#4C06B7"/>
<path d="M22.6419 18.6139H21.0961V20.7968H22.6419C22.7951 20.8023 22.9479 20.7772 23.0912 20.7232C23.2344 20.6692 23.3652 20.5873 23.4757 20.4823C23.5807 20.3834 23.664 20.2642 23.7205 20.1321C23.7769 20 23.8051 19.8579 23.8036 19.7146C23.8053 19.5699 23.7771 19.4263 23.7208 19.2927C23.6644 19.1591 23.581 19.0383 23.4757 18.9376C23.3656 18.8314 23.2351 18.7481 23.0919 18.6925C22.9487 18.6369 22.7957 18.6102 22.6419 18.6139Z" fill="#4C06B7"/>
</svg>
