<svg width="40" height="40" viewBox="0 0 40 40" fill="none" xmlns="http://www.w3.org/2000/svg">
<path d="M15.1022 21.0185C15.1022 23.8373 17.3288 26.1192 20.0651 26.1192C22.8015 26.1192 25.0281 23.8373 25.0281 21.0185C25.0281 20.8306 24.9745 20.2668 24.5184 19.0856L21.2455 22.6561C21.0041 22.9245 20.6553 23.0856 20.3066 23.0856C19.931 23.0856 19.6091 22.9245 19.3677 22.6561L17.2215 20.1863C16.7654 19.6494 16.8191 18.844 17.3556 18.3876C17.8922 17.9312 18.697 17.9849 19.153 18.5219L20.3602 19.9178L23.3917 16.6158C22.6674 15.2467 21.6211 13.5286 20.1456 11.3272C16.4167 16.6695 15.1022 19.891 15.1022 21.0185Z" fill="#4C06B7"/>
<path fill-rule="evenodd" clip-rule="evenodd" d="M20.5326 3.43291L34.1437 8.7309C34.6622 8.93272 35 9.4072 35 9.93344V16.3739C35 25.242 29.2826 33.219 20.5249 36.5702C20.1884 36.6989 19.8115 36.6989 19.4751 36.5702C10.7173 33.2189 5 25.2419 5 16.3739V9.93344C5 9.4072 5.33792 8.93272 5.85632 8.7309L19.4674 3.43291C19.8083 3.30016 20.1916 3.30023 20.5326 3.43291ZM28.8108 14.4144L26.45 17.0185C27.1475 18.495 27.6304 19.9447 27.6304 21.0453C27.6304 25.2869 24.2502 28.75 20.0652 28.75C15.907 28.75 12.5 25.2869 12.5 21.0453C12.5 18.1997 15.9338 12.8306 17.9727 9.85069C18.4556 9.1527 19.2336 8.75002 20.0652 8.75002C20.8968 8.75002 21.6748 9.1527 22.1577 9.85069C22.6138 10.495 23.9551 12.4279 25.1891 14.6024L26.9329 12.7232C27.3889 12.2131 28.1938 12.1594 28.7303 12.6158C29.24 13.0722 29.2937 13.8775 28.8108 14.4144Z" fill="#4C06B7"/>
</svg>
