<svg width="150" height="62" viewBox="0 0 150 62" fill="none" xmlns="http://www.w3.org/2000/svg">
<g opacity="0.2" clip-path="url(#clip0_127_57)">
<path fill-rule="evenodd" clip-rule="evenodd" d="M96.6529 0C97.1089 0.144 96.7969 0.024 96.9985 0.3456C97.0369 0.3456 97.0753 0.3456 97.1137 0.3456C97.1137 0.4224 97.1137 0.4992 97.1137 0.576C97.1905 0.6144 97.2673 0.6528 97.3441 0.6912C97.3441 0.768 97.3441 0.8448 97.3441 0.9216C97.4209 0.96 97.4977 0.9984 97.5745 1.0368C97.5745 1.1136 97.5745 1.1904 97.5745 1.2672C97.6513 1.3056 97.7281 1.344 97.8049 1.3824C97.8433 1.536 97.8817 1.6896 97.9201 1.8432C97.9969 1.8816 98.0737 1.92 98.1505 1.9584C98.1505 2.0352 98.1505 2.112 98.1505 2.1888C98.2273 2.2272 98.3041 2.2656 98.3809 2.304C98.4193 2.4576 98.4577 2.6112 98.4961 2.7648C98.5345 2.7648 98.5729 2.7648 98.6113 2.7648C98.6497 2.9184 98.6881 3.072 98.7265 3.2256C98.7649 3.2256 98.8033 3.2256 98.8417 3.2256C98.8801 3.456 98.9185 3.6864 98.9569 3.9168C98.9953 3.9168 99.0337 3.9168 99.0721 3.9168C99.0721 3.9936 99.0721 4.0704 99.0721 4.1472C99.1105 4.1472 99.1489 4.1472 99.1873 4.1472C99.2257 4.3776 99.2641 4.608 99.3025 4.8384C99.3409 4.8384 99.3793 4.8384 99.4177 4.8384C99.4177 4.9536 99.4177 5.0688 99.4177 5.184C99.4561 5.184 99.4945 5.184 99.5329 5.184C99.5713 5.3376 99.6097 5.4912 99.6481 5.6448C99.7633 5.6832 99.8785 5.7216 99.9937 5.76C100.032 5.8368 100.071 5.9136 100.109 5.9904C100.186 5.9904 100.263 5.9904 100.339 5.9904C100.339 6.0288 100.339 6.0672 100.339 6.1056C100.416 6.1056 100.493 6.1056 100.57 6.1056C101.031 6.6048 101.491 7.104 101.952 7.6032C101.952 7.68 101.952 7.7568 101.952 7.8336C102.029 7.872 102.106 7.9104 102.183 7.9488C102.259 8.1792 102.336 8.4096 102.413 8.64C102.49 8.6784 102.567 8.7168 102.643 8.7552C102.682 8.9472 102.72 9.1392 102.759 9.3312C102.797 9.3312 102.835 9.3312 102.874 9.3312C102.874 9.408 102.874 9.4848 102.874 9.5616C102.912 9.5616 102.951 9.5616 102.989 9.5616C103.066 9.792 103.143 10.0224 103.219 10.2528C103.258 10.2528 103.296 10.2528 103.335 10.2528C103.373 10.4832 103.411 10.7136 103.45 10.944C103.488 10.944 103.527 10.944 103.565 10.944C103.603 11.0976 103.642 11.2512 103.68 11.4048C103.719 11.4048 103.757 11.4048 103.795 11.4048C103.795 11.4816 103.795 11.5584 103.795 11.6352C103.834 11.6352 103.872 11.6352 103.911 11.6352C103.911 11.7504 103.911 11.8656 103.911 11.9808C103.949 11.9808 103.987 11.9808 104.026 11.9808C104.064 12.1344 104.103 12.288 104.141 12.4416C104.179 12.4416 104.218 12.4416 104.256 12.4416C104.256 12.5184 104.256 12.5952 104.256 12.672C104.295 12.672 104.333 12.672 104.371 12.672C104.371 12.7872 104.371 12.9024 104.371 13.0176C104.41 13.0176 104.448 13.0176 104.487 13.0176C104.525 13.1712 104.563 13.3248 104.602 13.4784C104.64 13.4784 104.679 13.4784 104.717 13.4784C104.832 13.824 104.947 14.1696 105.063 14.5152C105.101 14.5152 105.139 14.5152 105.178 14.5152C105.255 14.7456 105.331 14.976 105.408 15.2064C105.447 15.2064 105.485 15.2064 105.523 15.2064C105.6 15.4368 105.677 15.6672 105.754 15.8976C105.792 15.8976 105.831 15.8976 105.869 15.8976C105.907 16.0512 105.946 16.2048 105.984 16.3584C106.023 16.3584 106.061 16.3584 106.099 16.3584C106.099 16.4736 106.099 16.5888 106.099 16.704C106.162 16.8576 106.56 17.5392 106.675 17.6256C106.752 17.6256 106.829 17.6256 106.906 17.6256C106.983 17.7408 107.059 17.856 107.136 17.9712C107.213 17.9712 107.29 17.9712 107.367 17.9712C107.405 18.048 107.443 18.1248 107.482 18.2016C107.635 18.24 107.789 18.2784 107.943 18.3168C108.019 18.432 108.096 18.5472 108.173 18.6624C108.327 18.7008 108.48 18.7392 108.634 18.7776C108.634 18.816 108.634 18.8544 108.634 18.8928C108.749 18.9312 108.864 18.9696 108.979 19.008C109.018 19.0848 109.056 19.1616 109.095 19.2384C109.171 19.2384 109.248 19.2384 109.325 19.2384C109.363 19.3152 109.402 19.392 109.44 19.4688C109.594 19.5072 109.747 19.5456 109.901 19.584C109.939 19.6608 109.978 19.7376 110.016 19.8144C110.17 19.8528 110.323 19.8912 110.477 19.9296C110.515 20.0064 110.554 20.0832 110.592 20.16C110.707 20.1984 110.823 20.2368 110.938 20.2752C110.938 20.3136 110.938 20.352 110.938 20.3904C111.168 20.4672 111.399 20.544 111.629 20.6208C111.667 20.6976 111.706 20.7744 111.744 20.8512C111.821 20.8512 111.898 20.8512 111.975 20.8512C111.975 20.8896 111.975 20.928 111.975 20.9664C112.051 20.9664 112.128 20.9664 112.205 20.9664C112.205 21.0048 112.205 21.0432 112.205 21.0816C112.32 21.0816 112.435 21.0816 112.551 21.0816C112.551 21.12 112.551 21.1584 112.551 21.1968C112.627 21.1968 112.704 21.1968 112.781 21.1968C112.781 21.2352 112.781 21.2736 112.781 21.312C112.935 21.3504 113.088 21.3888 113.242 21.4272C113.242 21.4656 113.242 21.504 113.242 21.5424C113.587 21.6192 113.933 21.696 114.279 21.7728C114.279 21.8112 114.279 21.8496 114.279 21.888C114.355 21.888 114.432 21.888 114.509 21.888C114.509 21.9264 114.509 21.9648 114.509 22.0032C114.739 22.0416 114.97 22.08 115.2 22.1184C115.2 22.1568 115.2 22.1952 115.2 22.2336C115.469 22.272 115.738 22.3104 116.007 22.3488C116.007 22.3872 116.007 22.4256 116.007 22.464C116.083 22.464 116.16 22.464 116.237 22.464C116.237 22.5024 116.237 22.5408 116.237 22.5792C116.352 22.5792 116.467 22.5792 116.583 22.5792C116.583 22.6176 116.583 22.656 116.583 22.6944C116.967 22.7328 117.351 22.7712 117.735 22.8096C117.735 22.848 117.735 22.8864 117.735 22.9248C117.85 22.9248 117.965 22.9248 118.08 22.9248C118.08 22.9632 118.08 23.0016 118.08 23.04C118.157 23.04 118.234 23.04 118.311 23.04C118.311 23.0784 118.311 23.1168 118.311 23.1552C118.695 23.1936 119.079 23.232 119.463 23.2704C120.12 23.472 120.999 23.6544 121.651 23.8464C121.959 23.8464 122.266 23.8464 122.573 23.8464C122.573 23.8848 122.573 23.9232 122.573 23.9616C122.803 23.9616 123.034 23.9616 123.264 23.9616C123.264 24 123.264 24.0384 123.264 24.0768C123.495 24.0768 123.725 24.0768 123.955 24.0768C123.955 24.1152 123.955 24.1536 123.955 24.192C124.147 24.192 124.339 24.192 124.531 24.192C124.531 24.2304 124.531 24.2688 124.531 24.3072C125.683 24.3456 126.835 24.384 127.987 24.4224C127.987 24.4608 127.987 24.4992 127.987 24.5376C128.41 24.5376 128.832 24.5376 129.255 24.5376C129.255 24.576 129.255 24.6144 129.255 24.6528C129.6 24.6528 129.946 24.6528 130.291 24.6528C130.291 24.6912 130.291 24.7296 130.291 24.768C130.752 24.768 131.213 24.768 131.674 24.768C131.674 24.8064 131.674 24.8448 131.674 24.8832C132.096 24.8832 132.519 24.8832 132.941 24.8832C132.941 24.9216 132.941 24.96 132.941 24.9984C133.709 24.9984 134.477 24.9984 135.245 24.9984C135.245 25.0368 135.245 25.0752 135.245 25.1136C135.36 25.1136 135.475 25.1136 135.591 25.1136C135.591 25.152 135.591 25.1904 135.591 25.2288C135.706 25.2288 135.821 25.2288 135.936 25.2288C135.936 25.2672 135.936 25.3056 135.936 25.344C136.051 25.344 136.167 25.344 136.282 25.344C136.282 25.3824 136.282 25.4208 136.282 25.4592C136.435 25.4592 136.589 25.4592 136.743 25.4592C136.743 25.4976 136.743 25.536 136.743 25.5744C137.491 25.8 138.509 25.3776 138.931 25.2288C139.085 25.2288 139.239 25.2288 139.392 25.2288C139.392 25.1904 139.392 25.152 139.392 25.1136C140.026 24.9024 140.741 25.056 141.351 25.1136C141.658 25.6272 141.816 25.4592 141.811 26.3808C141.528 26.5392 141.432 26.8176 141.235 26.9568C141.159 26.9568 141.082 26.9568 141.005 26.9568C140.967 27.0336 140.928 27.1104 140.89 27.1872C140.621 27.2256 140.352 27.264 140.083 27.3024C140.083 27.3408 140.083 27.3792 140.083 27.4176C140.007 27.456 139.93 27.4944 139.853 27.5328C139.853 27.6096 139.853 27.6864 139.853 27.7632C139.815 27.7632 139.776 27.7632 139.738 27.7632C139.867 28.0896 140.007 28.4064 140.199 28.6848C140.314 28.7616 140.429 28.8384 140.544 28.9152C140.621 29.4912 140.698 30.0672 140.775 30.6432C140.813 30.6432 140.851 30.6432 140.89 30.6432C140.967 30.8736 141.043 31.104 141.12 31.3344C141.159 31.3344 141.197 31.3344 141.235 31.3344C141.235 31.4496 141.235 31.5648 141.235 31.68C141.274 31.68 141.312 31.68 141.351 31.68C141.351 31.7952 141.351 31.9104 141.351 32.0256C141.389 32.0256 141.427 32.0256 141.466 32.0256C141.466 32.1024 141.466 32.1792 141.466 32.256C141.504 32.256 141.543 32.256 141.581 32.256C141.581 32.3328 141.581 32.4096 141.581 32.4864C141.619 32.4864 141.658 32.4864 141.696 32.4864C141.735 32.64 141.773 32.7936 141.811 32.9472C141.85 32.9472 141.888 32.9472 141.927 32.9472C141.927 33.0624 141.927 33.1776 141.927 33.2928C141.965 33.2928 142.003 33.2928 142.042 33.2928C142.162 33.8016 141.48 33.792 141.696 34.56C141.735 34.56 141.773 34.56 141.811 34.56C141.85 35.1744 141.888 35.7888 141.927 36.4032C141.965 36.4032 142.003 36.4032 142.042 36.4032C142.042 36.7872 142.042 37.1712 142.042 37.5552C142.08 37.5552 142.119 37.5552 142.157 37.5552C142.157 37.632 142.157 37.7088 142.157 37.7856C142.195 37.7856 142.234 37.7856 142.272 37.7856C142.272 38.1312 142.272 38.4768 142.272 38.8224C142.311 38.8224 142.349 38.8224 142.387 38.8224C142.387 39.0144 142.387 39.2064 142.387 39.3984C142.426 39.3984 142.464 39.3984 142.503 39.3984C142.579 39.6288 142.656 39.8592 142.733 40.0896C142.771 40.0896 142.81 40.0896 142.848 40.0896C142.848 40.2048 142.848 40.32 142.848 40.4352C142.887 40.4352 142.925 40.4352 142.963 40.4352C143.002 40.6272 143.04 40.8192 143.079 41.0112C143.155 41.0496 143.232 41.088 143.309 41.1264C143.347 41.28 143.386 41.4336 143.424 41.5872C143.501 41.6256 143.578 41.664 143.655 41.7024C143.655 41.7792 143.655 41.856 143.655 41.9328C143.731 41.9712 143.808 42.0096 143.885 42.048C143.885 42.1248 143.885 42.2016 143.885 42.2784C143.923 42.2784 143.962 42.2784 144 42.2784C144.039 42.5856 144.077 42.8928 144.115 43.2C144.192 43.2384 144.269 43.2768 144.346 43.3152C144.384 43.4688 144.423 43.6224 144.461 43.776C144.615 43.8912 144.768 44.0064 144.922 44.1216C145.047 44.424 144.595 44.7888 144.807 45.2736C144.845 45.2736 144.883 45.2736 144.922 45.2736C145.215 45.8496 145.752 46.3248 146.189 46.7712C146.304 46.848 146.419 46.9248 146.535 47.0016C146.65 47.3472 146.765 47.6928 146.88 48.0384C147.341 48.4224 147.802 48.8064 148.263 49.1904C148.263 49.4208 148.263 49.6512 148.263 49.8816C148.339 49.92 148.416 49.9584 148.493 49.9968C148.493 50.0736 148.493 50.1504 148.493 50.2272C148.57 50.2656 148.647 50.304 148.723 50.3424C148.762 50.496 148.8 50.6496 148.839 50.8032C149.088 51.2592 149.371 51.3648 149.415 52.0704C149.179 52.2672 149.319 52.3104 149.184 52.5312C149.107 52.5696 149.031 52.608 148.954 52.6464C148.795 53.0304 149.122 53.3904 149.184 53.568C149.223 53.7984 149.261 54.0288 149.299 54.2592C149.338 54.2592 149.376 54.2592 149.415 54.2592C149.415 54.336 149.415 54.4128 149.415 54.4896C149.453 54.4896 149.491 54.4896 149.53 54.4896C149.53 54.5664 149.53 54.6432 149.53 54.72C149.568 54.72 149.607 54.72 149.645 54.72C149.765 55.0464 149.573 55.6032 149.53 55.7568C149.568 56.3712 149.607 56.9856 149.645 57.6C149.568 57.6 149.491 57.6 149.415 57.6C149.117 58.1712 149.175 59.016 149.184 59.904C149.146 59.904 149.107 59.904 149.069 59.904C149.031 60.096 148.992 60.288 148.954 60.48C148.685 60.672 148.416 60.864 148.147 61.056C147.802 61.056 147.456 61.056 147.111 61.056C146.007 61.3632 145.037 61.1616 143.77 61.1712C143.271 61.2096 142.771 61.248 142.272 61.2864C142.272 61.248 142.272 61.2096 142.272 61.1712C142.08 61.1328 141.888 61.0944 141.696 61.056C141.581 60.9024 141.466 60.7488 141.351 60.5952C141.312 60.5952 141.274 60.5952 141.235 60.5952C141.235 60.48 141.235 60.3648 141.235 60.2496C141.197 60.2496 141.159 60.2496 141.12 60.2496C141.187 59.8704 141.447 59.1648 141.696 58.9824C141.773 58.9824 141.85 58.9824 141.927 58.9824C142.003 58.8672 142.08 58.752 142.157 58.6368C142.234 58.6368 142.311 58.6368 142.387 58.6368C142.387 58.5984 142.387 58.56 142.387 58.5216C142.541 58.4064 142.695 58.2912 142.848 58.176C142.983 57.984 142.848 57.912 143.079 57.7152C143.002 56.64 142.925 55.5648 142.848 54.4896C142.81 54.4896 142.771 54.4896 142.733 54.4896C142.733 54.4128 142.733 54.336 142.733 54.2592C142.541 54.1056 142.349 53.952 142.157 53.7984C142.157 53.7216 142.157 53.6448 142.157 53.568C142.042 53.4912 141.927 53.4144 141.811 53.3376C141.811 53.2608 141.811 53.184 141.811 53.1072C141.499 52.6992 141.163 53.0928 140.775 52.8768C140.736 52.7616 140.698 52.6464 140.659 52.5312C140.583 52.4928 140.506 52.4544 140.429 52.416C140.429 52.3392 140.429 52.2624 140.429 52.1856C140.026 52.104 139.8 51.888 139.507 51.7248C139.431 51.7248 139.354 51.7248 139.277 51.7248C139.239 51.648 139.2 51.5712 139.162 51.4944C139.085 51.4944 139.008 51.4944 138.931 51.4944C138.893 51.4176 138.855 51.3408 138.816 51.264C138.739 51.264 138.663 51.264 138.586 51.264C138.547 51.1872 138.509 51.1104 138.471 51.0336C138.394 51.0336 138.317 51.0336 138.24 51.0336C138.202 50.9568 138.163 50.88 138.125 50.8032C138.048 50.8032 137.971 50.8032 137.895 50.8032C137.856 50.7264 137.818 50.6496 137.779 50.5728C137.703 50.5728 137.626 50.5728 137.549 50.5728C137.511 50.496 137.472 50.4192 137.434 50.3424C137.203 50.2656 136.973 50.1888 136.743 50.112C136.743 50.0736 136.743 50.0352 136.743 49.9968C136.666 49.9968 136.589 49.9968 136.512 49.9968C136.512 49.9584 136.512 49.92 136.512 49.8816C136.167 49.92 135.821 49.9584 135.475 49.9968C135.399 49.8816 135.322 49.7664 135.245 49.6512C135.207 49.6512 135.168 49.6512 135.13 49.6512C135.13 49.5744 135.13 49.4976 135.13 49.4208C135.053 49.3824 134.976 49.344 134.899 49.3056C134.899 49.2288 134.899 49.152 134.899 49.0752C134.823 49.0368 134.746 48.9984 134.669 48.96C134.631 48.8064 134.592 48.6528 134.554 48.4992C134.477 48.4608 134.4 48.4224 134.323 48.384C134.323 48.3072 134.323 48.2304 134.323 48.1536C133.863 47.7696 133.402 47.3856 132.941 47.0016C132.941 46.9248 132.941 46.848 132.941 46.7712L132.711 46.5408C132.711 46.464 132.711 46.3872 132.711 46.3104C132.672 46.3104 132.634 46.3104 132.595 46.3104C132.595 46.2336 132.595 46.1568 132.595 46.08C132.557 46.08 132.519 46.08 132.48 46.08C132.48 46.0032 132.48 45.9264 132.48 45.8496C132.442 45.8496 132.403 45.8496 132.365 45.8496C132.365 45.7728 132.365 45.696 132.365 45.6192C132.288 45.5808 132.211 45.5424 132.135 45.504C132.135 45.4272 132.135 45.3504 132.135 45.2736C131.943 45.12 131.751 44.9664 131.559 44.8128C131.559 44.736 131.559 44.6592 131.559 44.5824C131.482 44.544 131.405 44.5056 131.328 44.4672C131.29 44.3136 131.251 44.16 131.213 44.0064C131.136 43.968 131.059 43.9296 130.983 43.8912C130.944 43.7376 130.906 43.584 130.867 43.4304C130.791 43.392 130.714 43.3536 130.637 43.3152C130.599 43.1616 130.56 43.008 130.522 42.8544C130.445 42.816 130.368 42.7776 130.291 42.7392C130.291 42.6624 130.291 42.5856 130.291 42.5088C130.138 42.2352 129.927 42.0624 129.831 41.7024C129.538 41.6208 129.063 41.3328 128.909 41.1264C128.871 41.0112 128.832 40.896 128.794 40.7808C128.679 40.7424 128.563 40.704 128.448 40.6656C128.295 40.4736 128.141 40.2816 127.987 40.0896C127.911 40.0512 127.834 40.0128 127.757 39.9744C127.757 39.8976 127.757 39.8208 127.757 39.744C127.603 39.6288 127.45 39.5136 127.296 39.3984C127.296 39.3216 127.296 39.2448 127.296 39.168C126.835 38.784 126.375 38.4 125.914 38.016C125.799 38.016 125.683 38.016 125.568 38.016C125.568 37.9776 125.568 37.9392 125.568 37.9008C125.069 37.7472 124.575 38.04 124.301 38.1312C124.147 38.1312 123.994 38.1312 123.84 38.1312C123.84 38.1696 123.84 38.208 123.84 38.2464C123.687 38.2464 123.533 38.2464 123.379 38.2464C123.379 38.2848 123.379 38.3232 123.379 38.3616C123.111 38.3616 122.842 38.3616 122.573 38.3616C122.573 38.4 122.573 38.4384 122.573 38.4768C122.381 38.4768 122.189 38.4768 121.997 38.4768C121.997 38.5152 121.997 38.5536 121.997 38.592C121.843 38.592 121.69 38.592 121.536 38.592C121.536 38.6304 121.536 38.6688 121.536 38.7072C121.421 38.7072 121.306 38.7072 121.191 38.7072C121.191 38.7456 121.191 38.784 121.191 38.8224C120.615 38.8992 120.039 38.976 119.463 39.0528C119.463 39.0912 119.463 39.1296 119.463 39.168C119.347 39.168 119.232 39.168 119.117 39.168C119.117 39.2064 119.117 39.2448 119.117 39.2832C119.002 39.2832 118.887 39.2832 118.771 39.2832C118.771 39.3216 118.771 39.36 118.771 39.3984C118.618 39.3984 118.464 39.3984 118.311 39.3984C118.311 39.4368 118.311 39.4752 118.311 39.5136C117.927 39.552 117.543 39.5904 117.159 39.6288C117.159 39.6672 117.159 39.7056 117.159 39.744C117.043 39.744 116.928 39.744 116.813 39.744C116.813 39.7824 116.813 39.8208 116.813 39.8592C116.698 39.8592 116.583 39.8592 116.467 39.8592C116.467 39.8976 116.467 39.936 116.467 39.9744C116.352 39.9744 116.237 39.9744 116.122 39.9744C116.122 40.0128 116.122 40.0512 116.122 40.0896C115.968 40.0896 115.815 40.0896 115.661 40.0896C115.661 40.128 115.661 40.1664 115.661 40.2048C115.546 40.2048 115.431 40.2048 115.315 40.2048C115.315 40.2432 115.315 40.2816 115.315 40.32C115.239 40.32 115.162 40.32 115.085 40.32C115.085 40.3584 115.085 40.3968 115.085 40.4352C114.97 40.4352 114.855 40.4352 114.739 40.4352C114.739 40.4736 114.739 40.512 114.739 40.5504C114.279 40.6272 113.818 40.704 113.357 40.7808C113.357 40.8192 113.357 40.8576 113.357 40.896C113.203 40.9344 113.05 40.9728 112.896 41.0112C112.896 41.0496 112.896 41.088 112.896 41.1264C112.819 41.1264 112.743 41.1264 112.666 41.1264C112.589 41.2416 112.512 41.3568 112.435 41.472C112.359 41.472 112.282 41.472 112.205 41.472C112.167 41.5488 112.128 41.6256 112.09 41.7024C111.859 41.7792 111.629 41.856 111.399 41.9328C111.207 42.1632 111.015 42.3936 110.823 42.624C110.746 42.624 110.669 42.624 110.592 42.624C110.477 42.7776 110.362 42.9312 110.247 43.0848C110.208 43.0848 110.17 43.0848 110.131 43.0848C110.093 43.2384 110.055 43.392 110.016 43.5456C109.68 43.944 109.205 43.2912 108.979 44.0064C108.941 44.0064 108.903 44.0064 108.864 44.0064C108.903 44.2752 108.941 44.544 108.979 44.8128C109.018 44.8128 109.056 44.8128 109.095 44.8128C109.095 44.928 109.095 45.0432 109.095 45.1584C109.133 45.1584 109.171 45.1584 109.21 45.1584C109.171 45.5808 109.133 46.0032 109.095 46.4256C109.133 46.4256 109.171 46.4256 109.21 46.4256C109.21 46.5408 109.21 46.656 109.21 46.7712C109.248 46.7712 109.287 46.7712 109.325 46.7712C109.426 46.9872 109.973 48.2784 109.901 48.4992C109.815 48.7632 109.397 48.8784 109.555 49.4208C109.594 49.4208 109.632 49.4208 109.671 49.4208C109.771 49.704 110.112 50.6928 110.016 51.0336C109.978 51.0336 109.939 51.0336 109.901 51.0336C109.901 51.1872 109.901 51.3408 109.901 51.4944C109.863 51.4944 109.824 51.4944 109.786 51.4944C109.709 51.7248 109.632 51.9552 109.555 52.1856C109.517 52.1856 109.479 52.1856 109.44 52.1856C109.44 52.3008 109.44 52.416 109.44 52.5312C109.402 52.5312 109.363 52.5312 109.325 52.5312C109.325 52.8 109.325 53.0688 109.325 53.3376C109.363 53.3376 109.402 53.3376 109.44 53.3376C109.402 53.9904 109.363 54.6432 109.325 55.296C109.248 55.3344 109.171 55.3728 109.095 55.4112C109.095 55.488 109.095 55.5648 109.095 55.6416C109.056 55.6416 109.018 55.6416 108.979 55.6416C108.864 56.3328 108.749 57.024 108.634 57.7152C108.365 57.8688 108.096 58.0224 107.827 58.176C107.827 58.2528 107.827 58.3296 107.827 58.4064C107.789 58.4064 107.751 58.4064 107.712 58.4064C107.674 58.4832 107.635 58.56 107.597 58.6368C107.405 58.6368 107.213 58.6368 107.021 58.6368C106.906 58.7904 106.791 58.944 106.675 59.0976C106.637 59.0976 106.599 59.0976 106.56 59.0976C106.56 59.1744 106.56 59.2512 106.56 59.328C106.291 59.5584 106.023 59.7888 105.754 60.0192C105.754 60.096 105.754 60.1728 105.754 60.2496C105.715 60.2496 105.677 60.2496 105.639 60.2496C105.639 60.3264 105.639 60.4032 105.639 60.48C105.6 60.48 105.562 60.48 105.523 60.48C105.485 60.5568 105.447 60.6336 105.408 60.7104C105.331 60.7104 105.255 60.7104 105.178 60.7104C105.139 60.7872 105.101 60.864 105.063 60.9408C104.4 61.2912 103.186 61.032 102.298 61.1712C102.298 61.2096 102.298 61.248 102.298 61.2864C102.259 61.2864 102.221 61.2864 102.183 61.2864C102.183 61.248 102.183 61.2096 102.183 61.1712C101.952 61.1712 101.722 61.1712 101.491 61.1712C101.491 61.1328 101.491 61.0944 101.491 61.056C101.031 61.056 100.57 61.056 100.109 61.056C99.3409 61.1328 98.5729 61.2096 97.8049 61.2864C97.8049 61.248 97.8049 61.2096 97.8049 61.1712C97.6129 61.1328 97.4209 61.0944 97.2289 61.056C97.0129 60.6672 96.8977 60.672 96.8833 60.0192C97.0945 59.8416 96.9841 59.7888 97.1137 59.5584C97.1521 59.5584 97.1905 59.5584 97.2289 59.5584C97.2289 59.4816 97.2289 59.4048 97.2289 59.328C97.2673 59.328 97.3057 59.328 97.3441 59.328C97.4977 59.136 97.6513 58.944 97.8049 58.752C97.8817 58.752 97.9585 58.752 98.0353 58.752C98.0353 58.7136 98.0353 58.6752 98.0353 58.6368C98.1121 58.6368 98.1889 58.6368 98.2657 58.6368C98.2657 58.5984 98.2657 58.56 98.2657 58.5216C98.3425 58.5216 98.4193 58.5216 98.4961 58.5216C98.7649 58.3296 99.0337 58.1376 99.3025 57.9456C99.4177 57.6 99.5329 57.2544 99.6481 56.9088C99.6865 56.9088 99.7249 56.9088 99.7633 56.9088C99.7633 56.832 99.7633 56.7552 99.7633 56.6784C99.8017 56.6784 99.8401 56.6784 99.8785 56.6784C99.9169 56.448 99.9553 56.2176 99.9937 55.9872C100.032 55.9872 100.071 55.9872 100.109 55.9872C100.109 55.872 100.109 55.7568 100.109 55.6416C100.147 55.6416 100.186 55.6416 100.224 55.6416C100.224 55.5264 100.224 55.4112 100.224 55.296C100.263 55.296 100.301 55.296 100.339 55.296C100.339 55.1808 100.339 55.0656 100.339 54.9504C100.378 54.9504 100.416 54.9504 100.455 54.9504C100.455 54.6816 100.455 54.4128 100.455 54.144C100.493 54.144 100.531 54.144 100.57 54.144C100.719 53.6112 100.56 52.2048 100.455 51.84C100.455 51.456 100.455 51.072 100.455 50.688C100.416 50.688 100.378 50.688 100.339 50.688C100.339 50.3808 100.339 50.0736 100.339 49.7664C100.301 49.7664 100.263 49.7664 100.224 49.7664C100.224 49.5744 100.224 49.3824 100.224 49.1904C100.186 49.1904 100.147 49.1904 100.109 49.1904C100.109 48.8832 100.109 48.576 100.109 48.2688C100.071 48.2688 100.032 48.2688 99.9937 48.2688C99.9937 47.7696 99.9937 47.2704 99.9937 46.7712C99.9553 46.7712 99.9169 46.7712 99.8785 46.7712C99.8785 46.3872 99.8785 46.0032 99.8785 45.6192C99.6961 44.9952 99.5953 44.0544 99.4177 43.4304C99.4177 42.8544 99.4177 42.2784 99.4177 41.7024C99.3793 41.7024 99.3409 41.7024 99.3025 41.7024C99.3025 41.3952 99.3025 41.088 99.3025 40.7808C99.2641 40.7808 99.2257 40.7808 99.1873 40.7808C99.1873 40.512 99.1873 40.2432 99.1873 39.9744C99.1489 39.9744 99.1105 39.9744 99.0721 39.9744C99.0721 39.7056 99.0721 39.4368 99.0721 39.168C99.0337 39.168 98.9953 39.168 98.9569 39.168C98.9569 39.0144 98.9569 38.8608 98.9569 38.7072C98.9185 38.7072 98.8801 38.7072 98.8417 38.7072C98.7649 38.4768 98.6881 38.2464 98.6113 38.016C98.5729 38.016 98.5345 38.016 98.4961 38.016C98.4961 37.9392 98.4961 37.8624 98.4961 37.7856C98.4577 37.7856 98.4193 37.7856 98.3809 37.7856C98.3809 37.6704 98.3809 37.5552 98.3809 37.44C98.3425 37.44 98.3041 37.44 98.2657 37.44C98.2273 37.0944 98.1889 36.7488 98.1505 36.4032C98.1121 36.4032 98.0737 36.4032 98.0353 36.4032C97.9585 36.1728 97.8817 35.9424 97.8049 35.712C97.7665 35.712 97.7281 35.712 97.6897 35.712C97.6513 35.5584 97.6129 35.4048 97.5745 35.2512C97.4977 35.2128 97.4209 35.1744 97.3441 35.136C97.3057 34.9056 97.2673 34.6752 97.2289 34.4448C97.1905 34.4448 97.1521 34.4448 97.1137 34.4448C97.1137 34.368 97.1137 34.2912 97.1137 34.2144C97.0753 34.2144 97.0369 34.2144 96.9985 34.2144C96.8833 33.8688 96.7681 33.5232 96.6529 33.1776C96.6145 33.1776 96.5761 33.1776 96.5377 33.1776C96.5377 33.1008 96.5377 33.024 96.5377 32.9472C96.4993 32.9472 96.4609 32.9472 96.4225 32.9472C96.4225 32.832 96.4225 32.7168 96.4225 32.6016C96.3841 32.6016 96.3457 32.6016 96.3073 32.6016C96.3073 32.5248 96.3073 32.448 96.3073 32.3712C96.2689 32.3712 96.2305 32.3712 96.1921 32.3712C96.1921 32.256 96.1921 32.1408 96.1921 32.0256C96.1537 32.0256 96.1153 32.0256 96.0769 32.0256C96.0769 31.488 96.0769 30.9504 96.0769 30.4128C96.0385 30.4128 96.0001 30.4128 95.9617 30.4128C95.9617 30.2976 95.9617 30.1824 95.9617 30.0672C95.9233 30.0672 95.8849 30.0672 95.8465 30.0672C95.8465 29.9904 95.8465 29.9136 95.8465 29.8368C95.8081 29.8368 95.7697 29.8368 95.7313 29.8368C95.7697 29.3376 95.8081 28.8384 95.8465 28.3392C95.8849 28.3392 95.9233 28.3392 95.9617 28.3392C96.0001 27.9552 96.0385 27.5712 96.0769 27.1872C96.1153 27.1872 96.1537 27.1872 96.1921 27.1872C96.2305 26.9568 96.2689 26.7264 96.3073 26.496C96.3457 26.496 96.3841 26.496 96.4225 26.496C96.4225 26.4192 96.4225 26.3424 96.4225 26.2656C96.4609 26.2656 96.4993 26.2656 96.5377 26.2656C96.5377 26.0736 96.5377 25.8816 96.5377 25.6896C96.5761 25.6896 96.6145 25.6896 96.6529 25.6896C96.6529 24.8832 96.6529 24.0768 96.6529 23.2704C96.6529 22.5408 96.6529 21.8112 96.6529 21.0816C96.3841 20.3904 96.1153 19.6992 95.8465 19.008C95.8081 19.008 95.7697 19.008 95.7313 19.008C95.6929 18.8544 95.6545 18.7008 95.6161 18.5472C95.5777 18.5472 95.5393 18.5472 95.5009 18.5472C95.5009 18.432 95.5009 18.3168 95.5009 18.2016C95.4625 18.2016 95.4241 18.2016 95.3857 18.2016C95.3857 18.1248 95.3857 18.048 95.3857 17.9712C95.3473 17.9712 95.3089 17.9712 95.2705 17.9712C95.1937 17.7408 95.1169 17.5104 95.0401 17.28C95.0017 17.28 94.9633 17.28 94.9249 17.28C94.9249 17.1648 94.9249 17.0496 94.9249 16.9344C94.8865 16.9344 94.8481 16.9344 94.8097 16.9344C94.8097 16.8576 94.8097 16.7808 94.8097 16.704C94.7713 16.704 94.7329 16.704 94.6945 16.704C94.6945 16.6272 94.6945 16.5504 94.6945 16.4736C94.5361 16.176 94.3249 15.9552 94.2337 15.552C93.9505 15.4992 93.8113 15.4464 93.4273 15.4368C93.2977 15.5664 93.4273 15.4848 93.1969 15.552C93.1201 15.6672 93.0433 15.7824 92.9665 15.8976C92.9281 15.8976 92.8897 15.8976 92.8513 15.8976C92.8513 15.9744 92.8513 16.0512 92.8513 16.128C92.7745 16.1664 92.6977 16.2048 92.6209 16.2432C92.5825 16.3968 92.5441 16.5504 92.5057 16.704C92.4673 16.704 92.4289 16.704 92.3905 16.704C92.3521 16.8576 92.3137 17.0112 92.2753 17.1648C92.2369 17.1648 92.1985 17.1648 92.1601 17.1648C92.1601 17.28 92.1601 17.3952 92.1601 17.5104C91.9393 18.0816 91.8193 18.8736 91.5841 19.4688C91.4689 19.5072 91.3537 19.5456 91.2385 19.584C91.2385 19.5456 91.2385 19.5072 91.2385 19.4688C91.1233 19.4688 91.0081 19.4688 90.8929 19.4688C90.8545 19.5456 90.8161 19.6224 90.7777 19.6992C90.7009 19.7376 90.6241 19.776 90.5473 19.8144C90.2689 20.208 90.6481 20.2896 89.9713 20.3904C89.9713 20.352 89.9713 20.3136 89.9713 20.2752C89.7793 20.2368 89.5873 20.1984 89.3953 20.16C89.3953 20.1984 89.3953 20.2368 89.3953 20.2752C89.1841 20.4624 89.1073 20.8656 89.0497 21.1968C88.8961 21.1968 88.7425 21.1968 88.5889 21.1968C88.3585 20.8512 88.1281 20.5056 87.8977 20.16C87.8209 20.16 87.7441 20.16 87.6673 20.16C87.6673 20.1216 87.6673 20.0832 87.6673 20.0448C87.3217 19.8336 87.5809 20.1408 87.3217 19.8144C87.2833 19.8144 87.2449 19.8144 87.2065 19.8144C87.1681 19.5456 87.1297 19.2768 87.0913 19.008C87.0529 19.008 87.0145 19.008 86.9761 19.008C86.9761 18.9312 86.9761 18.8544 86.9761 18.7776C86.9377 18.7776 86.8993 18.7776 86.8609 18.7776C86.8609 18.6624 86.8609 18.5472 86.8609 18.432C86.8225 18.432 86.7841 18.432 86.7457 18.432C86.7457 18.3552 86.7457 18.2784 86.7457 18.2016C86.7073 18.2016 86.6689 18.2016 86.6305 18.2016C86.6305 18.0864 86.6305 17.9712 86.6305 17.856C86.5921 17.856 86.5537 17.856 86.5153 17.856C86.4385 17.6256 86.3617 17.3952 86.2849 17.1648C86.2465 17.1648 86.2081 17.1648 86.1697 17.1648C86.1697 17.088 86.1697 17.0112 86.1697 16.9344C86.1313 16.9344 86.0929 16.9344 86.0545 16.9344C86.0545 16.8192 86.0545 16.704 86.0545 16.5888C86.0161 16.5888 85.9777 16.5888 85.9393 16.5888C85.9393 16.512 85.9393 16.4352 85.9393 16.3584C85.9009 16.3584 85.8625 16.3584 85.8241 16.3584C85.8241 16.2816 85.8241 16.2048 85.8241 16.128C85.7857 16.128 85.7473 16.128 85.7089 16.128C85.6321 15.8976 85.5553 15.6672 85.4785 15.4368C85.4401 15.4368 85.4017 15.4368 85.3633 15.4368C85.3633 15.3216 85.3633 15.2064 85.3633 15.0912C85.3249 15.0912 85.2865 15.0912 85.2481 15.0912C85.2481 15.0144 85.2481 14.9376 85.2481 14.8608C85.2097 14.8608 85.1713 14.8608 85.1329 14.8608C85.0945 14.7072 85.0561 14.5536 85.0177 14.4C84.9793 14.4 84.9409 14.4 84.9025 14.4C84.9025 14.2848 84.9025 14.1696 84.9025 14.0544C84.8641 14.0544 84.8257 14.0544 84.7873 14.0544C84.7489 13.9008 84.7105 13.7472 84.6721 13.5936C84.6337 13.5936 84.5953 13.5936 84.5569 13.5936C84.4801 13.248 84.4033 12.9024 84.3265 12.5568C84.2881 12.5568 84.2497 12.5568 84.2113 12.5568C84.2113 12.48 84.2113 12.4032 84.2113 12.3264C84.1729 12.3264 84.1345 12.3264 84.0961 12.3264C83.9185 11.976 83.8849 11.664 83.8657 11.1744C83.9041 11.1744 83.9425 11.1744 83.9809 11.1744C84.0193 10.9824 84.0577 10.7904 84.0961 10.5984C84.1345 10.5984 84.1729 10.5984 84.2113 10.5984C84.3457 10.4256 84.3745 10.3968 84.4417 10.1376C84.5569 10.0992 84.6721 10.0608 84.7873 10.0224C84.7873 9.984 84.7873 9.9456 84.7873 9.9072C85.0561 9.8688 85.3249 9.8304 85.5937 9.792C85.5937 9.7536 85.5937 9.7152 85.5937 9.6768C85.7089 9.6768 85.8241 9.6768 85.9393 9.6768C85.9393 9.6384 85.9393 9.6 85.9393 9.5616C86.0545 9.5616 86.1697 9.5616 86.2849 9.5616C86.2849 9.5232 86.2849 9.4848 86.2849 9.4464C86.8225 9.3696 87.3601 9.2928 87.8977 9.216C87.8977 9.1776 87.8977 9.1392 87.8977 9.1008C88.0129 9.1008 88.1281 9.1008 88.2433 9.1008C88.2433 9.0624 88.2433 9.024 88.2433 8.9856C88.3585 8.9856 88.4737 8.9856 88.5889 8.9856C88.5889 8.9472 88.5889 8.9088 88.5889 8.8704C89.0497 8.7936 89.5105 8.7168 89.9713 8.64C90.0481 8.4432 90.0817 8.28 90.0865 7.9488C89.7745 7.7808 89.5777 7.5792 89.1649 7.488C89.1649 7.3728 89.1649 7.2576 89.1649 7.1424C89.3953 6.9504 89.6257 6.7584 89.8561 6.5664C89.8945 6.4896 89.9329 6.4128 89.9713 6.336C90.0481 6.336 90.1249 6.336 90.2017 6.336C90.2401 6.2592 90.2785 6.1824 90.3169 6.1056C90.5857 6.0672 90.8545 6.0288 91.1233 5.9904C91.1233 5.952 91.1233 5.9136 91.1233 5.8752C91.2385 5.8752 91.3537 5.8752 91.4689 5.8752C91.4689 5.8368 91.4689 5.7984 91.4689 5.76C91.5457 5.76 91.6225 5.76 91.6993 5.76C91.6993 5.7216 91.6993 5.6832 91.6993 5.6448C91.9297 5.6064 92.1601 5.568 92.3905 5.5296C92.3905 5.4912 92.3905 5.4528 92.3905 5.4144C92.6209 5.4144 92.8513 5.4144 93.0817 5.4144C93.2881 5.352 93.7489 5.232 94.0033 5.184C94.0801 5.0688 94.1569 4.9536 94.2337 4.8384C94.2721 4.8384 94.3105 4.8384 94.3489 4.8384C94.3489 4.7616 94.3489 4.6848 94.3489 4.608C94.3873 4.608 94.4257 4.608 94.4641 4.608C94.5025 4.1856 94.5409 3.7632 94.5793 3.3408C94.6177 3.3408 94.6561 3.3408 94.6945 3.3408C94.6945 3.1488 94.6945 2.9568 94.6945 2.7648C94.7329 2.7648 94.7713 2.7648 94.8097 2.7648C94.8097 2.5344 94.8097 2.304 94.8097 2.0736C94.8481 2.0736 94.8865 2.0736 94.9249 2.0736C94.9249 1.4976 94.9249 0.9216 94.9249 0.3456C94.9633 0.3456 95.0017 0.3456 95.0401 0.3456C95.0401 0.2688 95.0401 0.192 95.0401 0.1152C95.1169 0.1152 95.1937 0.1152 95.2705 0.1152C95.4289 0.2208 95.2993 0.3792 95.3857 0.576C95.4241 0.576 95.4625 0.576 95.5009 0.576C95.7217 1.0656 95.5105 1.176 96.1921 1.2672C96.3217 1.1376 96.1921 1.2192 96.4225 1.152C96.4993 0.768 96.5761 0.384 96.6529 0Z" fill="#3C4043"/>
<path fill-rule="evenodd" clip-rule="evenodd" d="M12.3264 1.72803C12.8016 1.85283 12.7728 2.07843 13.0176 2.41923C13.2096 2.57283 13.4016 2.72643 13.5936 2.88003C13.5936 2.95683 13.5936 3.03363 13.5936 3.11043C13.6704 3.14883 13.7472 3.18723 13.824 3.22563C13.824 3.30243 13.824 3.37923 13.824 3.45603L14.0544 3.68643C14.0544 3.76323 14.0544 3.84003 14.0544 3.91683C14.0928 3.91683 14.1312 3.91683 14.1696 3.91683C14.1696 3.99363 14.1696 4.07043 14.1696 4.14723C14.2464 4.18563 14.3232 4.22403 14.4 4.26243C14.4 4.33923 14.4 4.41603 14.4 4.49283C14.4384 4.49283 14.4768 4.49283 14.5152 4.49283C14.5536 4.72323 14.592 4.95363 14.6304 5.18403C14.6688 5.18403 14.7072 5.18403 14.7456 5.18403C14.784 5.33763 14.8224 5.49123 14.8608 5.64483C14.8992 5.64483 14.9376 5.64483 14.976 5.64483C14.976 5.79843 14.976 5.95203 14.976 6.10563C15.0144 6.10563 15.0528 6.10563 15.0912 6.10563C15.0912 6.22083 15.0912 6.33603 15.0912 6.45123C15.1296 6.45123 15.168 6.45123 15.2064 6.45123C15.2064 6.52803 15.2064 6.60483 15.2064 6.68163C15.2448 6.68163 15.2832 6.68163 15.3216 6.68163C15.3216 6.75843 15.3216 6.83523 15.3216 6.91203C15.4368 6.95043 15.552 6.98883 15.6672 7.02723C15.744 7.14243 15.8208 7.25763 15.8976 7.37283C15.9744 7.37283 16.0512 7.37283 16.128 7.37283C16.2048 7.48803 16.2816 7.60323 16.3584 7.71843C16.4352 7.71843 16.512 7.71843 16.5888 7.71843C16.6656 7.83363 16.7424 7.94883 16.8192 8.06403C16.896 8.06403 16.9728 8.06403 17.0496 8.06403C17.1264 8.17923 17.2032 8.29443 17.28 8.40963C17.3568 8.40963 17.4336 8.40963 17.5104 8.40963C17.5488 8.48643 17.5872 8.56323 17.6256 8.64003C17.7024 8.64003 17.7792 8.64003 17.856 8.64003C17.8944 8.71683 17.9328 8.79363 17.9712 8.87043C18.048 8.87043 18.1248 8.87043 18.2016 8.87043L18.432 9.10083C18.5088 9.10083 18.5856 9.10083 18.6624 9.10083C18.6624 9.13923 18.6624 9.17763 18.6624 9.21603C18.7392 9.21603 18.816 9.21603 18.8928 9.21603C18.8928 9.25443 18.8928 9.29283 18.8928 9.33123C18.9696 9.33123 19.0464 9.33123 19.1232 9.33123L19.3536 9.56163C19.4304 9.56163 19.5072 9.56163 19.584 9.56163C19.6224 9.63843 19.6608 9.71523 19.6992 9.79203C20.0448 9.90723 20.3904 10.0224 20.736 10.1376C20.7744 10.2144 20.8128 10.2912 20.8512 10.368C21.1968 10.4832 21.5424 10.5984 21.888 10.7136C21.9264 10.7904 21.9648 10.8672 22.0032 10.944C22.1184 10.944 22.2336 10.944 22.3488 10.944C22.3488 10.9824 22.3488 11.0208 22.3488 11.0592C22.5024 11.0976 22.656 11.136 22.8096 11.1744C22.848 11.2512 22.8864 11.328 22.9248 11.4048C23.0016 11.4048 23.0784 11.4048 23.1552 11.4048C23.1552 11.4432 23.1552 11.4816 23.1552 11.52C23.2704 11.52 23.3856 11.52 23.5008 11.52C23.5008 11.5584 23.5008 11.5968 23.5008 11.6352C23.5776 11.6352 23.6544 11.6352 23.7312 11.6352C23.7312 11.6736 23.7312 11.712 23.7312 11.7504C23.808 11.7504 23.8848 11.7504 23.9616 11.7504C24 11.8272 24.0384 11.904 24.0768 11.9808C24.2688 12.0192 24.4608 12.0576 24.6528 12.096C24.6528 12.1344 24.6528 12.1728 24.6528 12.2112C24.7296 12.2112 24.8064 12.2112 24.8832 12.2112C24.8832 12.2496 24.8832 12.288 24.8832 12.3264C24.96 12.3264 25.0368 12.3264 25.1136 12.3264C25.152 12.4032 25.1904 12.48 25.2288 12.5568C25.4208 12.5952 25.6128 12.6336 25.8048 12.672C25.8048 12.7104 25.8048 12.7488 25.8048 12.7872C25.8816 12.7872 25.9584 12.7872 26.0352 12.7872C26.0352 12.8256 26.0352 12.864 26.0352 12.9024C26.112 12.9024 26.1888 12.9024 26.2656 12.9024C26.304 12.9792 26.3424 13.056 26.3808 13.1328C26.5728 13.1712 26.7648 13.2096 26.9568 13.248C26.9568 13.2864 26.9568 13.3248 26.9568 13.3632C27.1104 13.4016 27.264 13.44 27.4176 13.4784C27.456 13.5552 27.4944 13.632 27.5328 13.7088C27.6096 13.7088 27.6864 13.7088 27.7632 13.7088C27.7632 13.7472 27.7632 13.7856 27.7632 13.824C27.8784 13.824 27.9936 13.824 28.1088 13.824C28.1088 13.8624 28.1088 13.9008 28.1088 13.9392C28.1856 13.9392 28.2624 13.9392 28.3392 13.9392C28.3776 14.016 28.416 14.0928 28.4544 14.1696C28.608 14.208 28.7616 14.2464 28.9152 14.2848C28.9152 14.3232 28.9152 14.3616 28.9152 14.4C29.0304 14.4 29.1456 14.4 29.2608 14.4C29.2608 14.4384 29.2608 14.4768 29.2608 14.5152C29.4144 14.5536 29.568 14.592 29.7216 14.6304C29.7216 14.6688 29.7216 14.7072 29.7216 14.7456C29.9136 14.7456 30.1056 14.7456 30.2976 14.7456C30.2976 14.784 30.2976 14.8224 30.2976 14.8608C30.4896 14.8608 30.6816 14.8608 30.8736 14.8608C30.8736 14.8992 30.8736 14.9376 30.8736 14.976C31.0272 15.0144 31.1808 15.0528 31.3344 15.0912C31.3728 15.168 31.4112 15.2448 31.4496 15.3216C31.5264 15.3216 31.6032 15.3216 31.68 15.3216C31.68 15.36 31.68 15.3984 31.68 15.4368C31.7568 15.4368 31.8336 15.4368 31.9104 15.4368C31.9104 15.4752 31.9104 15.5136 31.9104 15.552C32.1792 15.5904 32.448 15.6288 32.7168 15.6672C32.7168 15.7056 32.7168 15.744 32.7168 15.7824C32.9472 15.7824 33.1776 15.7824 33.408 15.7824C33.408 15.8208 33.408 15.8592 33.408 15.8976C33.5616 15.8976 33.7152 15.8976 33.8688 15.8976C33.8688 15.936 33.8688 15.9744 33.8688 16.0128C34.2912 16.0512 34.7136 16.0896 35.136 16.128C35.136 16.1664 35.136 16.2048 35.136 16.2432C35.2128 16.2432 35.2896 16.2432 35.3664 16.2432C35.3664 16.2816 35.3664 16.32 35.3664 16.3584C35.5968 16.3968 35.8272 16.4352 36.0576 16.4736C36.0576 16.512 36.0576 16.5504 36.0576 16.5888C36.3264 16.6272 36.5952 16.6656 36.864 16.704C36.864 16.7424 36.864 16.7808 36.864 16.8192C37.0944 16.896 37.3248 16.9728 37.5552 17.0496C37.5552 17.088 37.5552 17.1264 37.5552 17.1648C37.632 17.1648 37.7088 17.1648 37.7856 17.1648C37.7856 17.2032 37.7856 17.2416 37.7856 17.28C37.9008 17.28 38.016 17.28 38.1312 17.28C38.1312 17.3184 38.1312 17.3568 38.1312 17.3952C38.2848 17.4336 38.4384 17.472 38.592 17.5104C38.592 17.5488 38.592 17.5872 38.592 17.6256C38.6688 17.6256 38.7456 17.6256 38.8224 17.6256C38.8608 17.7024 38.8992 17.7792 38.9376 17.856C39.0912 17.8944 39.2448 17.9328 39.3984 17.9712C39.4368 18.048 39.4752 18.1248 39.5136 18.2016C39.744 18.2784 39.9744 18.3552 40.2048 18.432C40.2432 18.5088 40.2816 18.5856 40.32 18.6624C40.5504 18.7392 40.7808 18.816 41.0112 18.8928C41.0112 18.9312 41.0112 18.9696 41.0112 19.008C41.088 19.008 41.1648 19.008 41.2416 19.008C41.2416 19.0464 41.2416 19.0848 41.2416 19.1232C41.3184 19.1232 41.3952 19.1232 41.472 19.1232C41.472 19.1616 41.472 19.2 41.472 19.2384C41.5488 19.2384 41.6256 19.2384 41.7024 19.2384C41.7024 19.2768 41.7024 19.3152 41.7024 19.3536C41.7792 19.3536 41.856 19.3536 41.9328 19.3536C41.9328 19.392 41.9328 19.4304 41.9328 19.4688C42.0096 19.4688 42.0864 19.4688 42.1632 19.4688C42.1632 19.5072 42.1632 19.5456 42.1632 19.584C42.24 19.584 42.3168 19.584 42.3936 19.584C42.3936 19.6224 42.3936 19.6608 42.3936 19.6992C42.4704 19.6992 42.5472 19.6992 42.624 19.6992C42.624 19.7376 42.624 19.776 42.624 19.8144C43.1232 19.9296 43.6224 20.0448 44.1216 20.16C44.1216 20.1984 44.1216 20.2368 44.1216 20.2752C44.1984 20.2752 44.2752 20.2752 44.352 20.2752C44.352 20.3136 44.352 20.352 44.352 20.3904C44.928 20.4672 45.504 20.544 46.08 20.6208C46.08 20.6592 46.08 20.6976 46.08 20.736C46.2336 20.736 46.3872 20.736 46.5408 20.736C46.5408 20.7744 46.5408 20.8128 46.5408 20.8512C46.6944 20.8512 46.848 20.8512 47.0016 20.8512C47.0016 20.8896 47.0016 20.928 47.0016 20.9664C47.3088 20.9664 47.616 20.9664 47.9232 20.9664C47.9232 21.0048 47.9232 21.0432 47.9232 21.0816C48.3456 21.0816 48.768 21.0816 49.1904 21.0816C49.1904 21.12 49.1904 21.1584 49.1904 21.1968C49.344 21.1968 49.4976 21.1968 49.6512 21.1968C49.6512 21.2352 49.6512 21.2736 49.6512 21.312C49.9968 21.3504 50.3424 21.3888 50.688 21.4272C50.688 21.4656 50.688 21.504 50.688 21.5424C50.9184 21.5424 51.1488 21.5424 51.3792 21.5424C51.3792 21.5808 51.3792 21.6192 51.3792 21.6576C51.6864 21.6576 51.9936 21.6576 52.3008 21.6576C52.3008 21.696 52.3008 21.7344 52.3008 21.7728C52.5696 21.8112 52.8384 21.8496 53.1072 21.888C53.1072 21.9264 53.1072 21.9648 53.1072 22.0032C53.2224 22.0032 53.3376 22.0032 53.4528 22.0032C53.4528 22.0416 53.4528 22.08 53.4528 22.1184C53.9904 22.1952 54.528 22.272 55.0656 22.3488C55.0656 22.3872 55.0656 22.4256 55.0656 22.464C55.1424 22.464 55.2192 22.464 55.296 22.464C55.296 22.5024 55.296 22.5408 55.296 22.5792C55.4112 22.5792 55.5264 22.5792 55.6416 22.5792C55.6416 22.6176 55.6416 22.656 55.6416 22.6944C56.064 22.7712 56.4864 22.848 56.9088 22.9248C56.9472 23.0016 56.9856 23.0784 57.024 23.1552C57.3696 23.232 57.7152 23.3088 58.0608 23.3856C58.0608 23.424 58.0608 23.4624 58.0608 23.5008C58.1376 23.5008 58.2144 23.5008 58.2912 23.5008C58.2912 23.5392 58.2912 23.5776 58.2912 23.616C58.4448 23.6544 58.5984 23.6928 58.752 23.7312C58.752 23.7696 58.752 23.808 58.752 23.8464C58.9824 23.8848 59.2128 23.9232 59.4432 23.9616C59.4432 24 59.4432 24.0384 59.4432 24.0768C59.6736 24.1536 59.904 24.2304 60.1344 24.3072C60.1344 24.3456 60.1344 24.384 60.1344 24.4224C60.2112 24.4224 60.288 24.4224 60.3648 24.4224C60.3648 24.4608 60.3648 24.4992 60.3648 24.5376C60.5184 24.576 60.672 24.6144 60.8256 24.6528C60.864 24.7296 60.9024 24.8064 60.9408 24.8832C61.0176 24.8832 61.0944 24.8832 61.1712 24.8832C61.1712 24.9216 61.1712 24.96 61.1712 24.9984C61.248 24.9984 61.3248 24.9984 61.4016 24.9984C61.4016 25.0368 61.4016 25.0752 61.4016 25.1136C61.4784 25.1136 61.5552 25.1136 61.632 25.1136L61.8624 25.344C61.9392 25.344 62.016 25.344 62.0928 25.344C62.0928 25.3824 62.0928 25.4208 62.0928 25.4592C62.208 25.4976 62.3232 25.536 62.4384 25.5744C62.4768 25.6512 62.5152 25.728 62.5536 25.8048C62.7072 25.8432 62.8608 25.8816 63.0144 25.92C63.0528 25.9968 63.0912 26.0736 63.1296 26.1504C63.36 26.2272 63.5904 26.304 63.8208 26.3808C63.8976 26.496 63.9744 26.6112 64.0512 26.7264C64.392 26.9616 64.6416 27.048 65.2032 27.072C65.5488 26.6736 66.7392 26.3808 67.5072 26.3808C67.6512 26.5632 67.8144 26.6592 68.0832 26.7264C68.16 27.0864 68.472 27.4848 68.3136 27.9936C68.2752 27.9936 68.2368 27.9936 68.1984 27.9936C68.16 28.1856 68.1216 28.3776 68.0832 28.5696C67.6896 28.7808 67.2816 29.1408 66.816 29.2608C66.816 29.3376 66.816 29.4144 66.816 29.4912C66.7392 29.5296 66.6624 29.568 66.5856 29.6064C66.3504 30.1728 66.9408 31.104 67.0464 31.4496C67.0464 31.7952 67.0464 32.1408 67.0464 32.4864C67.0848 32.4864 67.1232 32.4864 67.1616 32.4864C67.1616 32.7552 67.1616 33.024 67.1616 33.2928C67.2 33.2928 67.2384 33.2928 67.2768 33.2928C67.2768 33.5616 67.2768 33.8304 67.2768 34.0992C67.3152 34.0992 67.3536 34.0992 67.392 34.0992C67.4688 34.944 67.5456 35.7888 67.6224 36.6336C67.6608 36.6336 67.6992 36.6336 67.7376 36.6336C67.7376 36.7872 67.7376 36.9408 67.7376 37.0944C67.776 37.0944 67.8144 37.0944 67.8528 37.0944C67.8528 37.2096 67.8528 37.3248 67.8528 37.44C67.8912 37.44 67.9296 37.44 67.968 37.44C67.968 37.5552 67.968 37.6704 67.968 37.7856C68.0064 37.7856 68.0448 37.7856 68.0832 37.7856C68.16 38.2464 68.2368 38.7072 68.3136 39.168C68.352 39.168 68.3904 39.168 68.4288 39.168C68.4288 39.2448 68.4288 39.3216 68.4288 39.3984C68.4672 39.3984 68.5056 39.3984 68.544 39.3984C68.5824 39.6288 68.6208 39.8592 68.6592 40.0896C68.6976 40.0896 68.736 40.0896 68.7744 40.0896C68.7744 40.1664 68.7744 40.2432 68.7744 40.32C68.8128 40.32 68.8512 40.32 68.8896 40.32C68.8896 40.4352 68.8896 40.5504 68.8896 40.6656C68.928 40.6656 68.9664 40.6656 69.0048 40.6656C69.0048 40.7424 69.0048 40.8192 69.0048 40.896C69.0432 40.896 69.0816 40.896 69.12 40.896C69.1584 41.088 69.1968 41.28 69.2352 41.472C69.2736 41.472 69.312 41.472 69.3504 41.472C69.4272 41.7024 69.504 41.9328 69.5808 42.1632C69.6192 42.1632 69.6576 42.1632 69.696 42.1632C69.696 42.24 69.696 42.3168 69.696 42.3936C69.7344 42.3936 69.7728 42.3936 69.8112 42.3936C69.8112 42.4704 69.8112 42.5472 69.8112 42.624L70.0416 42.8544C70.0416 42.9312 70.0416 43.008 70.0416 43.0848C70.08 43.0848 70.1184 43.0848 70.1568 43.0848C70.1952 43.2 70.2336 43.3152 70.272 43.4304C70.3488 43.4688 70.4256 43.5072 70.5024 43.5456C70.5408 43.6992 70.5792 43.8528 70.6176 44.0064C70.656 44.0064 70.6944 44.0064 70.7328 44.0064C70.7712 44.1216 70.8096 44.2368 70.848 44.352C70.9248 44.3904 71.0016 44.4288 71.0784 44.4672C71.0784 44.544 71.0784 44.6208 71.0784 44.6976C71.1552 44.736 71.232 44.7744 71.3088 44.8128C71.3088 44.8896 71.3088 44.9664 71.3088 45.0432C71.4624 45.1584 71.616 45.2736 71.7696 45.3888C71.7696 45.4656 71.7696 45.5424 71.7696 45.6192C71.8464 45.6576 71.9232 45.696 72 45.7344C72 45.8112 72 45.888 72 45.9648C72.1536 46.08 72.3072 46.1952 72.4608 46.3104C72.4608 46.3872 72.4608 46.464 72.4608 46.5408C73.0368 47.0784 73.6128 47.616 74.1888 48.1536C74.4192 48.96 74.6496 49.7664 74.88 50.5728C74.88 50.8416 74.88 51.1104 74.88 51.3792C74.9184 51.3792 74.9568 51.3792 74.9952 51.3792C74.9952 51.4944 74.9952 51.6096 74.9952 51.7248C75.0336 51.7248 75.072 51.7248 75.1104 51.7248C75.1104 51.84 75.1104 51.9552 75.1104 52.0704C75.1488 52.0704 75.1872 52.0704 75.2256 52.0704C75.2256 52.224 75.2256 52.3776 75.2256 52.5312C75.264 52.5312 75.3024 52.5312 75.3408 52.5312C75.3408 52.6848 75.3408 52.8384 75.3408 52.992C75.3792 52.992 75.4176 52.992 75.456 52.992C75.456 53.2224 75.456 53.4528 75.456 53.6832C75.4944 53.6832 75.5328 53.6832 75.5712 53.6832C75.648 54.0672 75.7248 54.4512 75.8016 54.8352C75.84 54.8352 75.8784 54.8352 75.9168 54.8352C75.9552 55.1808 75.9936 55.5264 76.032 55.872C76.1424 56.2176 76.488 57.4368 76.2624 58.0608C76.224 58.0608 76.1856 58.0608 76.1472 58.0608C76.0704 58.2912 75.9936 58.5216 75.9168 58.752C75.7296 58.8576 75.4032 59.1504 75.2256 59.2128C74.88 59.2128 74.5344 59.2128 74.1888 59.2128C72.9648 59.2128 72.3216 59.184 72.2304 58.0608C72.2688 58.0608 72.3072 58.0608 72.3456 58.0608C72.384 57.8688 72.4224 57.6768 72.4608 57.4848C72.4992 57.4848 72.5376 57.4848 72.576 57.4848C72.576 57.408 72.576 57.3312 72.576 57.2544C72.8352 56.7696 73.5936 55.9728 73.2672 54.9504C73.2288 54.9504 73.1904 54.9504 73.152 54.9504C73.1136 54.72 73.0752 54.4896 73.0368 54.2592C72.9984 54.2592 72.96 54.2592 72.9216 54.2592C72.8832 54.1056 72.8448 53.952 72.8064 53.7984C72.768 53.7984 72.7296 53.7984 72.6912 53.7984C72.6528 53.568 72.6144 53.3376 72.576 53.1072C72.5376 53.1072 72.4992 53.1072 72.4608 53.1072C72.4608 53.0304 72.4608 52.9536 72.4608 52.8768C72.4224 52.8768 72.384 52.8768 72.3456 52.8768C72.3456 52.7616 72.3456 52.6464 72.3456 52.5312C72.3072 52.5312 72.2688 52.5312 72.2304 52.5312C72.2304 52.4544 72.2304 52.3776 72.2304 52.3008C72.192 52.3008 72.1536 52.3008 72.1152 52.3008C72.1152 52.1856 72.1152 52.0704 72.1152 51.9552C72.0768 51.9552 72.0384 51.9552 72 51.9552C72 51.84 72 51.7248 72 51.6096C71.9616 51.6096 71.9232 51.6096 71.8848 51.6096C71.808 51.3792 71.7312 51.1488 71.6544 50.9184C71.616 50.9184 71.5776 50.9184 71.5392 50.9184C71.4624 50.5728 71.3856 50.2272 71.3088 49.8816C71.04 49.6512 70.7712 49.4208 70.5024 49.1904C70.4256 49.1904 70.3488 49.1904 70.272 49.1904C70.272 49.152 70.272 49.1136 70.272 49.0752C70.1952 49.0752 70.1184 49.0752 70.0416 49.0752C70.0032 48.9984 69.9648 48.9216 69.9264 48.8448C69.8496 48.8448 69.7728 48.8448 69.696 48.8448C69.6576 48.768 69.6192 48.6912 69.5808 48.6144C69.504 48.6144 69.4272 48.6144 69.3504 48.6144C69.312 48.5376 69.2736 48.4608 69.2352 48.384C69.1584 48.384 69.0816 48.384 69.0048 48.384C68.9664 48.3072 68.928 48.2304 68.8896 48.1536C68.7744 48.1152 68.6592 48.0768 68.544 48.0384C68.544 48 68.544 47.9616 68.544 47.9232C68.4672 47.9232 68.3904 47.9232 68.3136 47.9232C68.3136 47.8848 68.3136 47.8464 68.3136 47.808C68.2368 47.808 68.16 47.808 68.0832 47.808C68.0448 47.7312 68.0064 47.6544 67.968 47.5776C67.8144 47.5392 67.6608 47.5008 67.5072 47.4624C67.4688 47.3856 67.4304 47.3088 67.392 47.232C67.0464 47.1168 66.7008 47.0016 66.3552 46.8864C66.2016 47.1792 66.1248 47.2896 66.1248 47.808C66.768 48.3648 66.2016 49.4736 66.4704 50.4576C66.696 51.2832 66.72 54.5952 66.4704 55.4112C66.4704 55.6032 66.4704 55.7952 66.4704 55.9872C66.432 55.9872 66.3936 55.9872 66.3552 55.9872C66.3168 56.1408 66.2784 56.2944 66.24 56.448C66.2016 56.448 66.1632 56.448 66.1248 56.448C65.9904 56.6208 65.9664 56.6496 65.8944 56.9088C65.8176 56.9088 65.7408 56.9088 65.664 56.9088C65.6256 56.9856 65.5872 57.0624 65.5488 57.1392C65.2416 57.1392 64.9344 57.1392 64.6272 57.1392C64.6272 57.1776 64.6272 57.216 64.6272 57.2544C63.9264 57.4512 63.2448 57.1152 62.784 57.024C62.64 56.6976 62.5584 56.52 62.5536 55.9872C62.592 55.9872 62.6304 55.9872 62.6688 55.9872C62.6688 55.872 62.6688 55.7568 62.6688 55.6416C62.8224 55.5264 62.976 55.4112 63.1296 55.296C63.4752 54.7968 63.8208 54.2976 64.1664 53.7984C64.4304 53.0592 63.8544 51.2448 63.7056 50.8032C63.6288 50.4576 63.552 50.112 63.4752 49.7664C63.3984 49.728 63.3216 49.6896 63.2448 49.6512C63.2064 49.4976 63.168 49.344 63.1296 49.1904C63.0528 49.152 62.976 49.1136 62.8992 49.0752C62.8992 48.9984 62.8992 48.9216 62.8992 48.8448C62.784 48.768 62.6688 48.6912 62.5536 48.6144C62.5536 48.5376 62.5536 48.4608 62.5536 48.384C62.1696 48.0384 61.7856 47.6928 61.4016 47.3472C61.248 47.1552 61.0944 46.9632 60.9408 46.7712C60.864 46.7712 60.7872 46.7712 60.7104 46.7712C60.0192 46.0416 59.328 45.312 58.6368 44.5824C58.2144 44.1984 57.792 43.8144 57.3696 43.4304C57.3696 43.3536 57.3696 43.2768 57.3696 43.2C57.216 43.0848 57.0624 42.9696 56.9088 42.8544C56.9088 42.7776 56.9088 42.7008 56.9088 42.624C56.6784 42.432 56.448 42.24 56.2176 42.048C56.2176 41.9712 56.2176 41.8944 56.2176 41.8176C56.1408 41.7792 56.064 41.7408 55.9872 41.7024C55.9488 41.5872 55.9104 41.472 55.872 41.3568C55.8336 41.3568 55.7952 41.3568 55.7568 41.3568C55.7568 41.28 55.7568 41.2032 55.7568 41.1264C55.68 41.088 55.6032 41.0496 55.5264 41.0112C55.5264 40.9344 55.5264 40.8576 55.5264 40.7808C55.4112 40.704 55.296 40.6272 55.1808 40.5504C55.1424 40.4352 55.104 40.32 55.0656 40.2048C54.9888 40.1664 54.912 40.128 54.8352 40.0896C54.7968 39.936 54.7584 39.7824 54.72 39.6288C54.6432 39.5904 54.5664 39.552 54.4896 39.5136C54.4896 39.4368 54.4896 39.36 54.4896 39.2832C54.4128 39.2448 54.336 39.2064 54.2592 39.168C54.2592 39.0912 54.2592 39.0144 54.2592 38.9376C54.1824 38.8992 54.1056 38.8608 54.0288 38.8224C54.0288 38.7456 54.0288 38.6688 54.0288 38.592C53.952 38.5536 53.8752 38.5152 53.7984 38.4768C53.7216 38.2464 53.6448 38.016 53.568 37.7856C53.5296 37.7856 53.4912 37.7856 53.4528 37.7856C53.4144 37.6704 53.376 37.5552 53.3376 37.44C53.2608 37.4016 53.184 37.3632 53.1072 37.3248C53.1072 37.248 53.1072 37.1712 53.1072 37.0944C53.0304 37.056 52.9536 37.0176 52.8768 36.9792C52.8768 36.9024 52.8768 36.8256 52.8768 36.7488C52.8 36.7104 52.7232 36.672 52.6464 36.6336C52.6464 36.5568 52.6464 36.48 52.6464 36.4032C52.608 36.4032 52.5696 36.4032 52.5312 36.4032C52.4928 36.288 52.4544 36.1728 52.416 36.0576C52.3392 36.0192 52.2624 35.9808 52.1856 35.9424C52.1856 35.8656 52.1856 35.7888 52.1856 35.712C52.1088 35.6736 52.032 35.6352 51.9552 35.5968C51.9168 35.4816 51.8784 35.3664 51.84 35.2512C51.7248 35.1744 51.6096 35.0976 51.4944 35.0208C51.4944 34.944 51.4944 34.8672 51.4944 34.7904C51.3792 34.7136 51.264 34.6368 51.1488 34.56C51.1488 34.4832 51.1488 34.4064 51.1488 34.3296C51.1104 34.3296 51.072 34.3296 51.0336 34.3296C50.9952 34.2528 50.9568 34.176 50.9184 34.0992C50.736 33.9696 50.6544 34.0944 50.4576 33.8688C49.4208 33.8496 48.1152 33.9552 47.3472 34.2144C47.1936 34.2144 47.04 34.2144 46.8864 34.2144C46.8864 34.2528 46.8864 34.2912 46.8864 34.3296C46.3104 34.4064 45.7344 34.4832 45.1584 34.56C45.1584 34.5984 45.1584 34.6368 45.1584 34.6752C45.0432 34.6752 44.928 34.6752 44.8128 34.6752C44.8128 34.7136 44.8128 34.752 44.8128 34.7904C44.6976 34.7904 44.5824 34.7904 44.4672 34.7904C44.4672 34.8288 44.4672 34.8672 44.4672 34.9056C44.352 34.9056 44.2368 34.9056 44.1216 34.9056C44.1216 34.944 44.1216 34.9824 44.1216 35.0208C43.9296 35.0208 43.7376 35.0208 43.5456 35.0208C43.5456 35.0592 43.5456 35.0976 43.5456 35.136C43.1616 35.2128 42.7776 35.2896 42.3936 35.3664C42.3936 35.4048 42.3936 35.4432 42.3936 35.4816C41.9712 35.52 41.5488 35.5584 41.1264 35.5968C40.4688 35.7984 39.5904 35.9808 38.9376 36.1728C38.5152 36.1728 38.0928 36.1728 37.6704 36.1728C37.6704 36.2112 37.6704 36.2496 37.6704 36.288C37.2864 36.288 36.9024 36.288 36.5184 36.288C36.5184 36.3264 36.5184 36.3648 36.5184 36.4032C36.3264 36.4032 36.1344 36.4032 35.9424 36.4032C35.9424 36.4032 35.9424 36.4704 35.712 36.5184C35.6352 36.6336 35.5584 36.7488 35.4816 36.864C35.4432 36.864 35.4048 36.864 35.3664 36.864C35.3664 36.9408 35.3664 37.0176 35.3664 37.0944C35.328 37.0944 35.2896 37.0944 35.2512 37.0944C35.136 37.4112 35.5056 38.5008 35.5968 38.7072C35.6352 38.7072 35.6736 38.7072 35.712 38.7072C35.7504 39.0528 35.7888 39.3984 35.8272 39.744C35.8656 39.744 35.904 39.744 35.9424 39.744C35.9424 39.8208 35.9424 39.8976 35.9424 39.9744C35.9808 39.9744 36.0192 39.9744 36.0576 39.9744C36.096 40.2048 36.1344 40.4352 36.1728 40.6656C36.2112 40.6656 36.2496 40.6656 36.288 40.6656C36.3264 40.9344 36.3648 41.2032 36.4032 41.472C36.4416 41.472 36.48 41.472 36.5184 41.472C36.5184 41.5872 36.5184 41.7024 36.5184 41.8176C36.5568 41.8176 36.5952 41.8176 36.6336 41.8176C36.6336 41.8944 36.6336 41.9712 36.6336 42.048C36.672 42.048 36.7104 42.048 36.7488 42.048C36.7872 42.3552 36.8256 42.6624 36.864 42.9696C36.9024 42.9696 36.9408 42.9696 36.9792 42.9696C36.9792 43.1232 36.9792 43.2768 36.9792 43.4304C37.0176 43.4304 37.056 43.4304 37.0944 43.4304C37.0944 43.5456 37.0944 43.6608 37.0944 43.776C37.1328 43.776 37.1712 43.776 37.2096 43.776C37.2096 43.8912 37.2096 44.0064 37.2096 44.1216C37.248 44.1216 37.2864 44.1216 37.3248 44.1216C37.3248 44.2368 37.3248 44.352 37.3248 44.4672C37.3632 44.4672 37.4016 44.4672 37.44 44.4672C37.44 44.6208 37.44 44.7744 37.44 44.928C37.4784 44.928 37.5168 44.928 37.5552 44.928C37.5552 45.0432 37.5552 45.1584 37.5552 45.2736C37.5936 45.2736 37.632 45.2736 37.6704 45.2736C37.6704 45.3888 37.6704 45.504 37.6704 45.6192C37.7088 45.6192 37.7472 45.6192 37.7856 45.6192C37.7856 45.7344 37.7856 45.8496 37.7856 45.9648C37.824 45.9648 37.8624 45.9648 37.9008 45.9648C37.9008 46.08 37.9008 46.1952 37.9008 46.3104C37.9392 46.3104 37.9776 46.3104 38.016 46.3104C38.016 46.5024 38.016 46.6944 38.016 46.8864C38.0544 46.8864 38.0928 46.8864 38.1312 46.8864C38.1312 47.0016 38.1312 47.1168 38.1312 47.232C38.1696 47.232 38.208 47.232 38.2464 47.232C38.2464 47.3472 38.2464 47.4624 38.2464 47.5776C38.2848 47.5776 38.3232 47.5776 38.3616 47.5776C38.3616 47.6544 38.3616 47.7312 38.3616 47.808C38.4 47.808 38.4384 47.808 38.4768 47.808C38.4768 47.9616 38.4768 48.1152 38.4768 48.2688C38.5152 48.2688 38.5536 48.2688 38.592 48.2688C38.592 48.4224 38.592 48.576 38.592 48.7296C38.6304 48.7296 38.6688 48.7296 38.7072 48.7296C38.7072 48.8448 38.7072 48.96 38.7072 49.0752C38.7456 49.0752 38.784 49.0752 38.8224 49.0752C38.8224 49.1904 38.8224 49.3056 38.8224 49.4208C38.8608 49.4208 38.8992 49.4208 38.9376 49.4208C38.9376 49.4976 38.9376 49.5744 38.9376 49.6512C38.976 49.6512 39.0144 49.6512 39.0528 49.6512C39.0528 49.8048 39.0528 49.9584 39.0528 50.112C39.0912 50.112 39.1296 50.112 39.168 50.112C39.168 50.3424 39.168 50.5728 39.168 50.8032C39.2064 50.8032 39.2448 50.8032 39.2832 50.8032C39.2832 50.9952 39.2832 51.1872 39.2832 51.3792C39.2448 51.3792 39.2064 51.3792 39.168 51.3792C39.168 51.9552 39.168 52.5312 39.168 53.1072C38.9328 53.8992 38.8272 54.96 38.592 55.7568C38.592 56.1792 38.592 56.6016 38.592 57.024C38.5536 57.024 38.5152 57.024 38.4768 57.024C38.1936 57.7824 38.0112 58.7712 37.2096 58.9824C36.7248 59.4528 34.3008 59.2128 33.7536 58.9824C33.6528 58.7136 33.6384 58.4736 33.6384 58.0608C33.9072 57.7536 34.176 57.4464 34.4448 57.1392C34.5216 57.1392 34.5984 57.1392 34.6752 57.1392C34.6752 57.1008 34.6752 57.0624 34.6752 57.024C34.752 57.024 34.8288 57.024 34.9056 57.024C34.9056 56.9856 34.9056 56.9472 34.9056 56.9088C34.9824 56.9088 35.0592 56.9088 35.136 56.9088C35.4048 56.7168 35.6736 56.5248 35.9424 56.3328C35.9808 56.1792 36.0192 56.0256 36.0576 55.872C36.096 55.872 36.1344 55.872 36.1728 55.872C36.2112 55.2576 36.2496 54.6432 36.288 54.0288C36.5376 53.112 36.576 51.9648 36.288 51.0336C36.288 50.8416 36.288 50.6496 36.288 50.4576C36.2496 50.4576 36.2112 50.4576 36.1728 50.4576C36.1728 50.3808 36.1728 50.304 36.1728 50.2272C36.1344 50.2272 36.096 50.2272 36.0576 50.2272C36.0192 50.0736 35.9808 49.92 35.9424 49.7664C35.904 49.7664 35.8656 49.7664 35.8272 49.7664C35.7888 49.6128 35.7504 49.4592 35.712 49.3056C35.6736 49.3056 35.6352 49.3056 35.5968 49.3056C35.5968 49.2288 35.5968 49.152 35.5968 49.0752C35.5584 49.0752 35.52 49.0752 35.4816 49.0752C35.4816 48.9984 35.4816 48.9216 35.4816 48.8448C35.4432 48.8448 35.4048 48.8448 35.3664 48.8448C35.3664 48.768 35.3664 48.6912 35.3664 48.6144C35.328 48.6144 35.2896 48.6144 35.2512 48.6144C35.2512 48.5376 35.2512 48.4608 35.2512 48.384C35.2128 48.384 35.1744 48.384 35.136 48.384C35.0976 48.2304 35.0592 48.0768 35.0208 47.9232C34.9824 47.9232 34.944 47.9232 34.9056 47.9232C34.8672 47.7696 34.8288 47.616 34.7904 47.4624C34.752 47.4624 34.7136 47.4624 34.6752 47.4624C34.6752 47.3856 34.6752 47.3088 34.6752 47.232C34.6368 47.232 34.5984 47.232 34.56 47.232C34.56 47.1552 34.56 47.0784 34.56 47.0016C34.5216 47.0016 34.4832 47.0016 34.4448 47.0016C34.4448 46.9248 34.4448 46.848 34.4448 46.7712C34.4064 46.7712 34.368 46.7712 34.3296 46.7712C34.3296 46.6944 34.3296 46.6176 34.3296 46.5408C34.2912 46.5408 34.2528 46.5408 34.2144 46.5408C34.2144 46.464 34.2144 46.3872 34.2144 46.3104L33.984 46.08C33.984 46.0032 33.984 45.9264 33.984 45.8496C33.9072 45.8112 33.8304 45.7728 33.7536 45.7344C33.7536 45.6576 33.7536 45.5808 33.7536 45.504L33.5232 45.2736C33.5232 45.1968 33.5232 45.12 33.5232 45.0432C33.4848 45.0432 33.4464 45.0432 33.408 45.0432C33.408 44.9664 33.408 44.8896 33.408 44.8128C33.3696 44.8128 33.3312 44.8128 33.2928 44.8128C33.2544 44.6592 33.216 44.5056 33.1776 44.352C33.1392 44.352 33.1008 44.352 33.0624 44.352C33.024 44.1984 32.9856 44.0448 32.9472 43.8912C32.9088 43.8912 32.8704 43.8912 32.832 43.8912C32.832 43.8144 32.832 43.7376 32.832 43.6608C32.7936 43.6608 32.7552 43.6608 32.7168 43.6608C32.7168 43.584 32.7168 43.5072 32.7168 43.4304C32.6784 43.4304 32.64 43.4304 32.6016 43.4304C32.6016 43.3536 32.6016 43.2768 32.6016 43.2C32.5632 43.2 32.5248 43.2 32.4864 43.2C32.4864 43.1232 32.4864 43.0464 32.4864 42.9696C32.448 42.9696 32.4096 42.9696 32.3712 42.9696C32.2944 42.7392 32.2176 42.5088 32.1408 42.2784C32.1024 42.2784 32.064 42.2784 32.0256 42.2784C31.9872 42.1248 31.9488 41.9712 31.9104 41.8176C31.872 41.8176 31.8336 41.8176 31.7952 41.8176C31.7568 41.664 31.7184 41.5104 31.68 41.3568C31.6416 41.3568 31.6032 41.3568 31.5648 41.3568C31.5264 41.2032 31.488 41.0496 31.4496 40.896C31.4112 40.896 31.3728 40.896 31.3344 40.896C31.3344 40.8192 31.3344 40.7424 31.3344 40.6656C31.296 40.6656 31.2576 40.6656 31.2192 40.6656C31.2192 40.5888 31.2192 40.512 31.2192 40.4352C31.1808 40.4352 31.1424 40.4352 31.104 40.4352C31.104 40.3584 31.104 40.2816 31.104 40.2048C31.0656 40.2048 31.0272 40.2048 30.9888 40.2048C30.9888 40.128 30.9888 40.0512 30.9888 39.9744C30.9504 39.9744 30.912 39.9744 30.8736 39.9744C30.7968 39.744 30.72 39.5136 30.6432 39.2832C30.5664 39.2448 30.4896 39.2064 30.4128 39.168C30.4128 39.0912 30.4128 39.0144 30.4128 38.9376C30.3744 38.9376 30.336 38.9376 30.2976 38.9376C30.048 38.4864 30.144 38.3232 29.7216 38.016C29.7216 37.9776 29.7216 37.9392 29.7216 37.9008C29.5296 37.9008 29.3376 37.9008 29.1456 37.9008C28.8768 38.1312 28.608 38.3616 28.3392 38.592C28.3392 38.6688 28.3392 38.7456 28.3392 38.8224C28.3008 38.8224 28.2624 38.8224 28.224 38.8224C28.1856 38.9376 28.1472 39.0528 28.1088 39.168C28.032 39.2064 27.9552 39.2448 27.8784 39.2832C27.8784 39.36 27.8784 39.4368 27.8784 39.5136C27.6096 39.744 27.3408 39.9744 27.072 40.2048C27.072 40.2816 27.072 40.3584 27.072 40.4352C26.88 40.5888 26.688 40.7424 26.496 40.896C26.496 40.9728 26.496 41.0496 26.496 41.1264C26.3808 41.2032 26.2656 41.28 26.1504 41.3568C26.1504 41.4336 26.1504 41.5104 26.1504 41.5872C26.0352 41.664 25.92 41.7408 25.8048 41.8176C25.8048 41.8944 25.8048 41.9712 25.8048 42.048C25.728 42.0864 25.6512 42.1248 25.5744 42.1632C25.5744 42.24 25.5744 42.3168 25.5744 42.3936C25.3056 42.624 25.0368 42.8544 24.768 43.0848C24.768 43.1616 24.768 43.2384 24.768 43.3152C24.576 43.4688 24.384 43.6224 24.192 43.776C24.192 43.8528 24.192 43.9296 24.192 44.0064C24.0768 44.0832 23.9616 44.16 23.8464 44.2368C23.8464 44.3136 23.8464 44.3904 23.8464 44.4672C23.808 44.4672 23.7696 44.4672 23.7312 44.4672C23.6208 44.6112 23.6496 44.6928 23.5008 44.8128C23.5008 45.0816 23.5008 45.3504 23.5008 45.6192C23.5392 45.6192 23.5776 45.6192 23.616 45.6192C23.616 45.696 23.616 45.7728 23.616 45.8496C23.6928 45.888 23.7696 45.9264 23.8464 45.9648C23.8464 46.0416 23.8464 46.1184 23.8464 46.1952C24 46.3104 24.1536 46.4256 24.3072 46.5408C24.8448 47.0832 25.5456 48.0864 26.2656 48.384C26.7264 48.4608 27.1872 48.5376 27.648 48.6144C27.8784 48.8832 28.1088 49.152 28.3392 49.4208C28.3392 49.4976 28.3392 49.5744 28.3392 49.6512C28.3776 49.6512 28.416 49.6512 28.4544 49.6512C28.4544 49.7664 28.4544 49.8816 28.4544 49.9968C28.4928 49.9968 28.5312 49.9968 28.5696 49.9968C28.5696 50.112 28.5696 50.2272 28.5696 50.3424C28.608 50.3424 28.6464 50.3424 28.6848 50.3424C28.6848 50.4576 28.6848 50.5728 28.6848 50.688C28.7232 50.688 28.7616 50.688 28.8 50.688C28.8 50.7648 28.8 50.8416 28.8 50.9184C28.8384 50.9184 28.8768 50.9184 28.9152 50.9184C28.9152 51.0336 28.9152 51.1488 28.9152 51.264C28.9536 51.264 28.992 51.264 29.0304 51.264C29.0304 51.456 29.0304 51.648 29.0304 51.84C29.0688 51.84 29.1072 51.84 29.1456 51.84C29.2704 52.2768 29.0832 52.8096 29.0304 53.1072C28.7376 53.2608 28.6272 53.3376 28.1088 53.3376C27.9072 53.1024 27.6768 53.064 27.4176 52.8768C27.1488 52.5696 26.88 52.2624 26.6112 51.9552C26.5344 51.9552 26.4576 51.9552 26.3808 51.9552C26.0352 51.5712 25.6896 51.1872 25.344 50.8032C25.2672 50.8032 25.1904 50.8032 25.1136 50.8032C25.0368 50.688 24.96 50.5728 24.8832 50.4576C24.8064 50.4576 24.7296 50.4576 24.6528 50.4576C24.5376 50.304 24.4224 50.1504 24.3072 49.9968C24.2304 49.9968 24.1536 49.9968 24.0768 49.9968C23.9232 49.8048 23.7696 49.6128 23.616 49.4208C23.5008 49.3824 23.3856 49.344 23.2704 49.3056C22.9632 48.96 22.656 48.6144 22.3488 48.2688C22.1184 48.0768 21.888 47.8848 21.6576 47.6928C21.6576 47.616 21.6576 47.5392 21.6576 47.4624C21.5424 47.3856 21.4272 47.3088 21.312 47.232C20.8416 46.752 20.2704 46.2144 20.0448 45.504C19.68 44.3424 20.976 42.672 21.312 42.048C21.3504 41.8944 21.3888 41.7408 21.4272 41.5872C21.504 41.5488 21.5808 41.5104 21.6576 41.472C21.6576 41.3952 21.6576 41.3184 21.6576 41.2416L21.888 41.0112C21.888 40.9344 21.888 40.8576 21.888 40.7808C21.9648 40.7424 22.0416 40.704 22.1184 40.6656C22.1184 40.5888 22.1184 40.512 22.1184 40.4352C22.1568 40.4352 22.1952 40.4352 22.2336 40.4352C22.272 40.2816 22.3104 40.128 22.3488 39.9744C22.3872 39.9744 22.4256 39.9744 22.464 39.9744C22.464 39.8592 22.464 39.744 22.464 39.6288C22.5408 39.5904 22.6176 39.552 22.6944 39.5136C22.6944 39.4368 22.6944 39.36 22.6944 39.2832C22.7328 39.2832 22.7712 39.2832 22.8096 39.2832C22.8096 39.2064 22.8096 39.1296 22.8096 39.0528L23.04 38.8224C23.04 38.7456 23.04 38.6688 23.04 38.592C23.1168 38.5536 23.1936 38.5152 23.2704 38.4768C23.2704 38.4 23.2704 38.3232 23.2704 38.2464C23.3088 38.2464 23.3472 38.2464 23.3856 38.2464C23.3856 38.1696 23.3856 38.0928 23.3856 38.016C23.424 38.016 23.4624 38.016 23.5008 38.016C23.5008 37.9392 23.5008 37.8624 23.5008 37.7856L23.7312 37.5552C23.7312 37.4784 23.7312 37.4016 23.7312 37.3248C23.808 37.2864 23.8848 37.248 23.9616 37.2096C23.9616 37.1328 23.9616 37.056 23.9616 36.9792L24.192 36.7488C24.192 36.672 24.192 36.5952 24.192 36.5184C24.2304 36.5184 24.2688 36.5184 24.3072 36.5184C24.3072 36.4416 24.3072 36.3648 24.3072 36.288C24.3456 36.288 24.384 36.288 24.4224 36.288C24.4224 36.2112 24.4224 36.1344 24.4224 36.0576C24.4608 36.0576 24.4992 36.0576 24.5376 36.0576C24.576 35.904 24.6144 35.7504 24.6528 35.5968C24.7296 35.5584 24.8064 35.52 24.8832 35.4816C24.8832 35.4048 24.8832 35.328 24.8832 35.2512C25.1328 34.8096 25.3824 34.5216 25.4592 33.8688C25.4208 33.8688 25.3824 33.8688 25.344 33.8688C25.3056 33.6768 25.2672 33.4848 25.2288 33.2928C25.152 33.2544 25.0752 33.216 24.9984 33.1776C24.8832 32.832 24.768 32.4864 24.6528 32.1408C24.6144 32.1408 24.576 32.1408 24.5376 32.1408C24.5376 32.064 24.5376 31.9872 24.5376 31.9104C24.4992 31.9104 24.4608 31.9104 24.4224 31.9104C24.384 31.7184 24.3456 31.5264 24.3072 31.3344C24.2688 31.3344 24.2304 31.3344 24.192 31.3344C24.1536 31.0272 24.1152 30.72 24.0768 30.4128C24.0384 30.4128 24 30.4128 23.9616 30.4128C23.9616 30.2592 23.9616 30.1056 23.9616 29.952C23.9232 29.952 23.8848 29.952 23.8464 29.952C23.8464 29.8368 23.8464 29.7216 23.8464 29.6064C23.808 29.6064 23.7696 29.6064 23.7312 29.6064C23.7312 29.4912 23.7312 29.376 23.7312 29.2608C23.6928 29.2608 23.6544 29.2608 23.616 29.2608C23.616 29.0304 23.616 28.8 23.616 28.5696C23.5776 28.5696 23.5392 28.5696 23.5008 28.5696C23.5008 28.224 23.5008 27.8784 23.5008 27.5328C23.4624 27.5328 23.424 27.5328 23.3856 27.5328C23.3856 27.264 23.3856 26.9952 23.3856 26.7264C23.3472 26.7264 23.3088 26.7264 23.2704 26.7264C23.2704 26.496 23.2704 26.2656 23.2704 26.0352C23.232 26.0352 23.1936 26.0352 23.1552 26.0352C23.1552 25.8048 23.1552 25.5744 23.1552 25.344C23.1168 25.344 23.0784 25.344 23.04 25.344C23.04 25.2288 23.04 25.1136 23.04 24.9984C22.9248 24.9216 22.8096 24.8448 22.6944 24.768C22.6944 24.6912 22.6944 24.6144 22.6944 24.5376C22.6176 24.4992 22.5408 24.4608 22.464 24.4224C22.464 24.384 22.464 24.3456 22.464 24.3072C22.3488 24.2304 22.2336 24.1536 22.1184 24.0768C22.1184 24 22.1184 23.9232 22.1184 23.8464C22.08 23.8464 22.0416 23.8464 22.0032 23.8464C22.0032 23.7696 22.0032 23.6928 22.0032 23.616C21.9648 23.616 21.9264 23.616 21.888 23.616C21.888 23.232 21.888 22.848 21.888 22.464C21.8496 22.464 21.8112 22.464 21.7728 22.464C21.7344 22.3872 21.696 22.3104 21.6576 22.2336C21.5808 22.2336 21.504 22.2336 21.4272 22.2336C21.3504 22.1184 21.2736 22.0032 21.1968 21.888C21.12 21.888 21.0432 21.888 20.9664 21.888C20.8512 21.7344 20.736 21.5808 20.6208 21.4272C20.544 21.4272 20.4672 21.4272 20.3904 21.4272C20.3136 21.312 20.2368 21.1968 20.16 21.0816C20.0832 21.0816 20.0064 21.0816 19.9296 21.0816C19.8528 20.9664 19.776 20.8512 19.6992 20.736C19.6224 20.736 19.5456 20.736 19.4688 20.736C19.392 20.6208 19.3152 20.5056 19.2384 20.3904C19.1616 20.3904 19.0848 20.3904 19.008 20.3904C18.8544 20.1984 18.7008 20.0064 18.5472 19.8144C18.4704 19.8144 18.3936 19.8144 18.3168 19.8144C18.1248 19.584 17.9328 19.3536 17.7408 19.1232C17.664 19.1232 17.5872 19.1232 17.5104 19.1232C17.472 19.0464 17.4336 18.9696 17.3952 18.8928C17.28 18.8544 17.1648 18.816 17.0496 18.7776C17.0496 18.7392 17.0496 18.7008 17.0496 18.6624C16.9728 18.6624 16.896 18.6624 16.8192 18.6624C16.704 18.5088 16.5888 18.3552 16.4736 18.2016C16.0416 17.8992 15.0528 17.496 14.4 17.7408C14.4 17.7792 14.4 17.8176 14.4 17.856C14.3232 17.856 14.2464 17.856 14.1696 17.856C14.1696 17.8944 14.1696 17.9328 14.1696 17.9712C14.016 18.0096 13.8624 18.048 13.7088 18.0864C13.632 18.2016 13.5552 18.3168 13.4784 18.432C13.4016 18.432 13.3248 18.432 13.248 18.432C12.9408 18.7776 12.6336 19.1232 12.3264 19.4688C12.1728 19.584 12.0192 19.6992 11.8656 19.8144C11.8656 19.8912 11.8656 19.968 11.8656 20.0448C11.7888 20.0832 11.712 20.1216 11.6352 20.16C11.6352 20.2368 11.6352 20.3136 11.6352 20.3904C11.5584 20.4288 11.4816 20.4672 11.4048 20.5056C11.4048 20.5824 11.4048 20.6592 11.4048 20.736C11.328 20.7744 11.2512 20.8128 11.1744 20.8512C11.1744 20.928 11.1744 21.0048 11.1744 21.0816C11.0976 21.12 11.0208 21.1584 10.944 21.1968C10.944 21.2736 10.944 21.3504 10.944 21.4272C10.9056 21.4272 10.8672 21.4272 10.8288 21.4272C10.752 21.5424 10.6752 21.6576 10.5984 21.7728C10.5216 21.7728 10.4448 21.7728 10.368 21.7728C10.368 21.8112 10.368 21.8496 10.368 21.888C10.2912 21.888 10.2144 21.888 10.1376 21.888C10.1376 21.9264 10.1376 21.9648 10.1376 22.0032C9.9312 22.0944 8.7504 22.2384 8.4096 22.1184C8.4096 22.08 8.4096 22.0416 8.4096 22.0032C8.3328 22.0032 8.256 22.0032 8.1792 22.0032C8.1792 21.9648 8.1792 21.9264 8.1792 21.888C7.9488 21.9264 7.7184 21.9648 7.488 22.0032C7.488 22.0416 7.488 22.08 7.488 22.1184C7.4496 22.1184 7.4112 22.1184 7.3728 22.1184C7.3728 22.2336 7.3728 22.3488 7.3728 22.464C7.3344 22.464 7.296 22.464 7.2576 22.464C7.296 23.232 7.3344 24 7.3728 24.768C7.176 24.8448 7.0128 24.8784 6.6816 24.8832C6.6432 24.7296 6.6048 24.576 6.5664 24.4224C6.528 24.4224 6.4896 24.4224 6.4512 24.4224C6.3072 24.0096 6.4896 23.1696 6.5664 22.9248C6.6048 22.5792 6.6432 22.2336 6.6816 21.888C6.72 21.888 6.7584 21.888 6.7968 21.888C6.7968 21.7728 6.7968 21.6576 6.7968 21.5424C6.8352 21.5424 6.8736 21.5424 6.912 21.5424C6.912 21.4272 6.912 21.312 6.912 21.1968C6.9888 21.1584 7.0656 21.12 7.1424 21.0816C7.1808 20.928 7.2192 20.7744 7.2576 20.6208C7.3344 20.5824 7.4112 20.544 7.488 20.5056C7.5264 20.3904 7.5648 20.2752 7.6032 20.16C7.6416 20.16 7.68 20.16 7.7184 20.16C7.7184 20.0832 7.7184 20.0064 7.7184 19.9296C7.7712 19.8384 8.112 19.2864 8.1792 19.2384C8.256 19.2384 8.3328 19.2384 8.4096 19.2384C8.448 19.1616 8.4864 19.0848 8.5248 19.008C8.6016 19.008 8.6784 19.008 8.7552 19.008C8.832 18.8928 8.9088 18.7776 8.9856 18.6624C9.0624 18.6624 9.1392 18.6624 9.216 18.6624C9.2928 18.5472 9.3696 18.432 9.4464 18.3168C9.5232 18.3168 9.6 18.3168 9.6768 18.3168C9.7536 18.2016 9.8304 18.0864 9.9072 17.9712C9.984 17.9712 10.0608 17.9712 10.1376 17.9712C10.176 17.8944 10.2144 17.8176 10.2528 17.7408C10.3296 17.7408 10.4064 17.7408 10.4832 17.7408C10.4832 17.7024 10.4832 17.664 10.4832 17.6256C10.6752 17.472 10.8672 17.3184 11.0592 17.1648C11.0976 16.8576 11.136 16.5504 11.1744 16.2432C11.016 16.1088 10.9968 16.032 10.944 15.7824C10.584 15.696 9.5184 15.3216 8.8704 15.552C8.8704 15.5904 8.8704 15.6288 8.8704 15.6672C8.64 15.744 8.4096 15.8208 8.1792 15.8976C8.1792 15.936 8.1792 15.9744 8.1792 16.0128C8.1024 16.0128 8.0256 16.0128 7.9488 16.0128C7.9104 16.0896 7.872 16.1664 7.8336 16.2432C7.7568 16.2432 7.68 16.2432 7.6032 16.2432C7.5264 16.3584 7.4496 16.4736 7.3728 16.5888C7.296 16.5888 7.2192 16.5888 7.1424 16.5888C7.104 16.6656 7.0656 16.7424 7.0272 16.8192C6.9504 16.8192 6.8736 16.8192 6.7968 16.8192C6.7584 16.896 6.72 16.9728 6.6816 17.0496C6.4512 17.1264 6.2208 17.2032 5.9904 17.28C5.952 17.3568 5.9136 17.4336 5.8752 17.5104C5.7984 17.5104 5.7216 17.5104 5.6448 17.5104C5.6064 17.5872 5.568 17.664 5.5296 17.7408C5.4528 17.7408 5.376 17.7408 5.2992 17.7408C5.2608 17.8176 5.2224 17.8944 5.184 17.9712C5.0304 18.0096 4.8768 18.048 4.7232 18.0864C4.7232 18.1248 4.7232 18.1632 4.7232 18.2016C4.4928 18.2016 4.2624 18.2016 4.032 18.2016C4.032 18.24 4.032 18.2784 4.032 18.3168C3.84 18.3168 3.648 18.3168 3.456 18.3168C3.456 18.2784 3.456 18.24 3.456 18.2016C3.2256 18.2016 2.9952 18.2016 2.7648 18.2016C2.7648 18.1632 2.7648 18.1248 2.7648 18.0864C2.688 18.0864 2.6112 18.0864 2.5344 18.0864C2.5344 18.048 2.5344 18.0096 2.5344 17.9712C2.4192 17.9712 2.304 17.9712 2.1888 17.9712C2.1888 17.9328 2.1888 17.8944 2.1888 17.856C2.0352 17.8176 1.8816 17.7792 1.728 17.7408C1.728 17.7024 1.728 17.664 1.728 17.6256C1.5744 17.5872 1.4208 17.5488 1.2672 17.5104C1.2288 17.4336 1.1904 17.3568 1.152 17.28C1.0752 17.28 0.9984 17.28 0.9216 17.28C0.8448 17.1648 0.768 17.0496 0.6912 16.9344C0.5376 16.8576 0.384 16.7808 0.2304 16.704C0.2304 16.6272 0.2304 16.5504 0.2304 16.4736C0.1536 16.4352 0.0768 16.3968 0 16.3584C0 16.0896 0 15.8208 0 15.552C0.1296 15.4224 0.048 15.552 0.1152 15.3216C0.3456 15.168 0.576 15.0144 0.8064 14.8608C0.8448 14.784 0.8832 14.7072 0.9216 14.6304C0.9984 14.6304 1.0752 14.6304 1.152 14.6304C1.1904 14.5536 1.2288 14.4768 1.2672 14.4C1.3824 14.3616 1.4976 14.3232 1.6128 14.2848C1.6128 14.2464 1.6128 14.208 1.6128 14.1696C1.6896 14.1696 1.7664 14.1696 1.8432 14.1696C1.92 14.0544 1.9968 13.9392 2.0736 13.824C2.1504 13.824 2.2272 13.824 2.304 13.824C2.3424 13.7472 2.3808 13.6704 2.4192 13.5936C2.496 13.5936 2.5728 13.5936 2.6496 13.5936C2.688 13.5168 2.7264 13.44 2.7648 13.3632C2.88 13.3248 2.9952 13.2864 3.1104 13.248C3.1104 13.2096 3.1104 13.1712 3.1104 13.1328C3.264 13.0944 3.4176 13.056 3.5712 13.0176C3.6096 12.9408 3.648 12.864 3.6864 12.7872C3.7632 12.7872 3.84 12.7872 3.9168 12.7872C3.9168 12.7488 3.9168 12.7104 3.9168 12.672C3.9936 12.672 4.0704 12.672 4.1472 12.672C4.1472 12.6336 4.1472 12.5952 4.1472 12.5568C4.224 12.5568 4.3008 12.5568 4.3776 12.5568C4.3776 12.5184 4.3776 12.48 4.3776 12.4416C4.4544 12.4416 4.5312 12.4416 4.608 12.4416L4.8384 12.2112C4.9152 12.2112 4.992 12.2112 5.0688 12.2112C5.1072 12.1344 5.1456 12.0576 5.184 11.9808C5.2608 11.9808 5.3376 11.9808 5.4144 11.9808C5.4144 11.9424 5.4144 11.904 5.4144 11.8656C5.616 11.6976 5.6928 11.6064 5.9904 11.52C6.1056 11.0784 6.3792 11.0496 6.5664 10.7136C6.72 10.2912 6.8736 9.86883 7.0272 9.44643C7.1424 9.36963 7.2576 9.29283 7.3728 9.21603C7.68 8.87043 7.9872 8.52483 8.2944 8.17923C8.3712 8.17923 8.448 8.17923 8.5248 8.17923C8.6784 7.98723 8.832 7.79523 8.9856 7.60323C9.0624 7.60323 9.1392 7.60323 9.216 7.60323C9.2928 7.48803 9.3696 7.37283 9.4464 7.25763C9.5232 7.25763 9.6 7.25763 9.6768 7.25763C9.7152 7.18083 9.7536 7.10403 9.792 7.02723C9.8688 7.02723 9.9456 7.02723 10.0224 7.02723C10.2144 6.79683 10.4064 6.56643 10.5984 6.33603C10.6752 5.52963 10.752 4.72323 10.8288 3.91683C10.7904 3.91683 10.752 3.91683 10.7136 3.91683C10.6752 3.30243 10.6368 2.68803 10.5984 2.07363C10.7904 2.11203 10.9824 2.15043 11.1744 2.18883C11.1744 2.22723 11.1744 2.26563 11.1744 2.30403C11.2704 2.37603 11.6832 2.71203 11.8656 2.64963C11.8656 2.61123 11.8656 2.57283 11.8656 2.53443C11.9808 2.49603 12.096 2.45763 12.2112 2.41923C12.2496 2.18883 12.288 1.95843 12.3264 1.72803Z" fill="#3C4043"/>
</g>
<defs>
<clipPath id="clip0_127_57">
<rect width="149.683" height="61.2864" fill="white"/>
</clipPath>
</defs>
</svg>
