<svg width="143" height="54" viewBox="0 0 143 54" fill="none" xmlns="http://www.w3.org/2000/svg">
<g opacity="0.2" clip-path="url(#clip0_127_54)">
<path fill-rule="evenodd" clip-rule="evenodd" d="M133.877 47.4444C133.78 47.9898 133.499 48.4812 132.97 48.6108C132.408 49.2426 130.491 48.9996 129.341 48.9996C126.101 48.9564 122.861 48.9132 119.621 48.87C118.643 48.87 116.203 49.0752 115.733 48.6108C115.387 48.3192 115.393 47.6172 115.603 47.1852C116.224 45.927 117.196 46.332 118.714 46.4076C118.8 46.1862 118.838 46.0026 118.843 45.63C118.573 45.4086 118.535 45.144 118.325 44.8524C118.152 44.7228 117.979 44.5932 117.806 44.4636C117.806 44.3772 117.806 44.2908 117.806 44.2044L117.547 43.9452C117.547 43.8588 117.547 43.7724 117.547 43.686C117.461 43.6428 117.374 43.5996 117.288 43.5564C117.072 43.146 116.672 40.5918 116.899 39.798C117.142 38.9556 117.331 38.7018 117.158 37.7244C116.424 37.422 115.69 37.1196 114.955 36.8172C114.955 36.774 114.955 36.7308 114.955 36.6876C114.869 36.6876 114.782 36.6876 114.696 36.6876C114.696 36.6444 114.696 36.6012 114.696 36.558C114.394 36.558 114.091 36.558 113.789 36.558C113.702 36.6876 113.616 36.8172 113.53 36.9468C113.486 36.9468 113.443 36.9468 113.4 36.9468C113.4 37.0332 113.4 37.1196 113.4 37.206C113.314 37.2492 113.227 37.2924 113.141 37.3356C113.141 37.422 113.141 37.5084 113.141 37.5948C113.098 37.5948 113.054 37.5948 113.011 37.5948C113.011 37.6812 113.011 37.7676 113.011 37.854C112.925 37.8972 112.838 37.9404 112.752 37.9836C112.752 38.07 112.752 38.1564 112.752 38.2428C112.666 38.286 112.579 38.3292 112.493 38.3724C112.45 38.5452 112.406 38.718 112.363 38.8908C112.277 38.934 112.19 38.9772 112.104 39.0204C112.104 39.1068 112.104 39.1932 112.104 39.2796C112.018 39.3228 111.931 39.366 111.845 39.4092C111.845 39.4956 111.845 39.582 111.845 39.6684C111.758 39.7116 111.672 39.7548 111.586 39.798C111.586 39.8844 111.586 39.9708 111.586 40.0572C111.499 40.1004 111.413 40.1436 111.326 40.1868C111.283 40.3596 111.24 40.5324 111.197 40.7052C111.11 40.7484 111.024 40.7916 110.938 40.8348C110.894 41.0076 110.851 41.1804 110.808 41.3532C110.722 41.3964 110.635 41.4396 110.549 41.4828C110.549 41.5692 110.549 41.6556 110.549 41.742C110.462 41.7852 110.376 41.8284 110.29 41.8716C110.29 41.958 110.29 42.0444 110.29 42.1308C110.203 42.174 110.117 42.2172 110.03 42.2604C109.987 42.4332 109.944 42.606 109.901 42.7788C109.814 42.822 109.728 42.8652 109.642 42.9084C109.642 42.9948 109.642 43.0812 109.642 43.1676C108.648 44.0748 107.654 44.982 106.661 45.8892C105.797 46.7964 104.933 47.7036 104.069 48.6108C103.194 49.1454 100.273 48.87 98.8848 48.87C98.3178 48.87 97.4268 48.9888 97.0704 48.7404C97.0704 48.6972 97.0704 48.654 97.0704 48.6108C96.7572 48.3354 96.8274 48.411 96.8112 47.8332C96.957 47.6874 96.8652 47.8332 96.9408 47.574C97.3026 47.3634 97.5834 46.9692 97.9776 46.7964C98.1072 46.7964 98.2368 46.7964 98.3664 46.7964C98.3664 46.7532 98.3664 46.71 98.3664 46.6668C98.6688 46.6236 98.9712 46.5804 99.2736 46.5372C99.2736 46.494 99.2736 46.4508 99.2736 46.4076C99.4464 46.3644 99.6192 46.3212 99.792 46.278C99.792 46.2348 99.792 46.1916 99.792 46.1484C99.8784 46.1484 99.9648 46.1484 100.051 46.1484C100.224 45.9324 100.397 45.7164 100.57 45.5004C100.656 45.4572 100.742 45.414 100.829 45.3708C100.829 45.2844 100.829 45.198 100.829 45.1116C100.915 45.0684 101.002 45.0252 101.088 44.982C101.088 44.8956 101.088 44.8092 101.088 44.7228C101.218 44.6364 101.347 44.55 101.477 44.4636C101.477 44.3772 101.477 44.2908 101.477 44.2044C101.606 44.118 101.736 44.0316 101.866 43.9452C101.866 43.8588 101.866 43.7724 101.866 43.686C101.952 43.6428 102.038 43.5996 102.125 43.5564C102.125 43.47 102.125 43.3836 102.125 43.2972C102.254 43.2108 102.384 43.1244 102.514 43.038C102.514 42.9516 102.514 42.8652 102.514 42.7788C102.6 42.7356 102.686 42.6924 102.773 42.6492C102.816 42.4764 102.859 42.3036 102.902 42.1308C102.989 42.0876 103.075 42.0444 103.162 42.0012C103.162 41.9148 103.162 41.8284 103.162 41.742C103.248 41.6988 103.334 41.6556 103.421 41.6124C103.421 41.526 103.421 41.4396 103.421 41.3532C103.507 41.31 103.594 41.2668 103.68 41.2236C103.68 41.1372 103.68 41.0508 103.68 40.9644C103.723 40.9644 103.766 40.9644 103.81 40.9644C104.069 40.1868 104.328 39.4092 104.587 38.6316C104.587 38.4588 104.587 38.286 104.587 38.1132C104.63 38.1132 104.674 38.1132 104.717 38.1132C104.717 37.9836 104.717 37.854 104.717 37.7244C104.76 37.7244 104.803 37.7244 104.846 37.7244C104.846 37.638 104.846 37.5516 104.846 37.4652C104.89 37.4652 104.933 37.4652 104.976 37.4652C105.019 37.1628 105.062 36.8604 105.106 36.558C105.149 36.558 105.192 36.558 105.235 36.558C105.235 36.4284 105.235 36.2988 105.235 36.1692C105.278 36.1692 105.322 36.1692 105.365 36.1692C105.365 36.0396 105.365 35.91 105.365 35.7804C105.408 35.7804 105.451 35.7804 105.494 35.7804C105.494 35.6508 105.494 35.5212 105.494 35.3916C105.538 35.3916 105.581 35.3916 105.624 35.3916C105.624 35.262 105.624 35.1324 105.624 35.0028C105.667 35.0028 105.71 35.0028 105.754 35.0028C105.754 34.83 105.754 34.6572 105.754 34.4844C105.797 34.4844 105.84 34.4844 105.883 34.4844C105.883 34.3548 105.883 34.2252 105.883 34.0956C105.926 34.0956 105.97 34.0956 106.013 34.0956C106.013 33.966 106.013 33.8364 106.013 33.7068C106.056 33.7068 106.099 33.7068 106.142 33.7068C106.142 33.5772 106.142 33.4476 106.142 33.318C106.186 33.318 106.229 33.318 106.272 33.318C106.272 33.1884 106.272 33.0588 106.272 32.9292C106.315 32.9292 106.358 32.9292 106.402 32.9292C106.531 32.3676 106.661 31.806 106.79 31.2444C106.834 31.2444 106.877 31.2444 106.92 31.2444C107.012 31.0068 107.185 29.8026 107.05 29.43C107.006 29.43 106.963 29.43 106.92 29.43C106.877 29.2572 106.834 29.0844 106.79 28.9116C106.704 28.8684 106.618 28.8252 106.531 28.782C106.488 28.566 106.445 28.35 106.402 28.134C106.358 28.134 106.315 28.134 106.272 28.134C106.186 27.8748 106.099 27.6156 106.013 27.3564C105.97 27.3564 105.926 27.3564 105.883 27.3564C105.883 27.1836 105.883 27.0108 105.883 26.838C105.84 26.838 105.797 26.838 105.754 26.838C105.754 26.6652 105.754 26.4924 105.754 26.3196C105.71 26.3196 105.667 26.3196 105.624 26.3196C105.581 25.4124 105.538 24.5052 105.494 23.598C105.494 23.2956 105.494 22.9932 105.494 22.6908C105.451 22.6908 105.408 22.6908 105.365 22.6908C105.322 22.3452 105.278 21.9996 105.235 21.654C105.192 21.654 105.149 21.654 105.106 21.654C105.106 21.5244 105.106 21.3948 105.106 21.2652C105.062 21.2652 105.019 21.2652 104.976 21.2652C104.976 21.1788 104.976 21.0924 104.976 21.006C104.933 21.006 104.89 21.006 104.846 21.006C104.803 20.79 104.76 20.574 104.717 20.358C104.674 20.358 104.63 20.358 104.587 20.358C104.501 20.0988 104.414 19.8396 104.328 19.5804C104.285 19.5804 104.242 19.5804 104.198 19.5804C104.198 19.494 104.198 19.4076 104.198 19.3212C104.155 19.3212 104.112 19.3212 104.069 19.3212C103.982 19.062 103.896 18.8028 103.81 18.5436C103.723 18.5004 103.637 18.4572 103.55 18.414C103.507 18.2412 103.464 18.0684 103.421 17.8956C103.334 17.8524 103.248 17.8092 103.162 17.766C103.162 17.6796 103.162 17.5932 103.162 17.5068C102.859 17.2476 102.557 16.9884 102.254 16.7292C101.504 16.7292 101.083 16.8696 100.57 17.118C100.57 17.1612 100.57 17.2044 100.57 17.2476C100.44 17.2476 100.31 17.2476 100.181 17.2476C100.181 17.2908 100.181 17.334 100.181 17.3772C100.094 17.3772 100.008 17.3772 99.9216 17.3772C99.9216 17.4204 99.9216 17.4636 99.9216 17.5068C99.792 17.5068 99.6624 17.5068 99.5328 17.5068C99.5328 17.55 99.5328 17.5932 99.5328 17.6364C99.36 17.6796 99.1872 17.7228 99.0144 17.766C99.0144 17.8092 99.0144 17.8524 99.0144 17.8956C98.7552 17.9388 98.496 17.982 98.2368 18.0252C98.2368 18.0684 98.2368 18.1116 98.2368 18.1548C97.7616 18.1548 97.2864 18.1548 96.8112 18.1548C96.8112 18.1116 96.8112 18.0684 96.8112 18.0252C96.3684 17.9064 95.9472 18.0954 95.6448 18.1548C95.5638 18.6138 95.5152 19.2132 95.5152 19.8396C95.4288 19.8396 95.3424 19.8396 95.256 19.8396C95.229 19.3752 95.0832 19.2348 95.256 18.6732C95.2992 18.6732 95.3424 18.6732 95.3856 18.6732C95.3856 18.414 95.3856 18.1548 95.3856 17.8956C95.4288 17.8956 95.472 17.8956 95.5152 17.8956C95.5584 17.7228 95.6016 17.55 95.6448 17.3772C96.0768 17.0748 96.5088 16.7724 96.9408 16.47C97.1136 16.47 97.2864 16.47 97.4592 16.47C98.1396 16.2324 99.4356 16.1136 99.792 15.5628C100.111 15.2604 100.003 14.9364 99.9216 14.526C99.792 14.4828 99.6624 14.4396 99.5328 14.3964C99.1062 14.0292 97.605 14.4018 97.2 14.526C96.984 14.526 96.768 14.526 96.552 14.526C96.552 14.5692 96.552 14.6124 96.552 14.6556C96.3792 14.6556 96.2064 14.6556 96.0336 14.6556C96.0336 14.6988 96.0336 14.742 96.0336 14.7852C95.7744 14.7852 95.5152 14.7852 95.256 14.7852C95.256 14.8284 95.256 14.8716 95.256 14.9148C94.4136 15.1524 93.0582 14.6718 92.664 14.3964C92.5776 14.2668 92.4912 14.1372 92.4048 14.0076C92.2752 13.9212 92.1456 13.8348 92.016 13.7484C92.016 13.662 92.016 13.5756 92.016 13.4892C91.9296 13.446 91.8432 13.4028 91.7568 13.3596C91.7568 13.0572 91.7568 12.7548 91.7568 12.4524C91.8864 12.366 92.016 12.2796 92.1456 12.1932C92.1456 12.15 92.1456 12.1068 92.1456 12.0636C92.3184 12.0204 92.4912 11.9772 92.664 11.934C92.7072 11.8476 92.7504 11.7612 92.7936 11.6748C92.88 11.6748 92.9664 11.6748 93.0528 11.6748C93.096 11.5884 93.1392 11.502 93.1824 11.4156C93.2688 11.4156 93.3552 11.4156 93.4416 11.4156C93.4848 11.3292 93.528 11.2428 93.5712 11.1564C93.6576 11.1564 93.744 11.1564 93.8304 11.1564C93.8736 11.07 93.9168 10.9836 93.96 10.8972C94.0464 10.8972 94.1328 10.8972 94.2192 10.8972C94.2624 10.8108 94.3056 10.7244 94.3488 10.638C94.4352 10.638 94.5216 10.638 94.608 10.638C94.6512 10.5516 94.6944 10.4652 94.7376 10.3788C94.824 10.3788 94.9104 10.3788 94.9968 10.3788C95.04 10.2924 95.0832 10.206 95.1264 10.1196C95.2128 10.1196 95.2992 10.1196 95.3856 10.1196C95.4288 10.0332 95.472 9.94682 95.5152 9.86042C95.6016 9.86042 95.688 9.86042 95.7744 9.86042C95.8176 9.77402 95.8608 9.68762 95.904 9.60122C95.9904 9.60122 96.0768 9.60122 96.1632 9.60122C96.2064 9.51482 96.2496 9.42842 96.2928 9.34202C96.3792 9.34202 96.4656 9.34202 96.552 9.34202C96.5952 9.25562 96.6384 9.16922 96.6816 9.08282C96.768 9.08282 96.8544 9.08282 96.9408 9.08282C96.9408 9.03962 96.9408 8.99642 96.9408 8.95322C97.1568 8.78042 97.3728 8.60762 97.5888 8.43482C97.632 8.17562 97.6752 7.91642 97.7184 7.65722C97.7616 7.65722 97.8048 7.65722 97.848 7.65722C97.848 7.57082 97.848 7.48442 97.848 7.39802C97.9344 7.35482 98.0208 7.31162 98.1072 7.26842C98.1504 7.09562 98.1936 6.92282 98.2368 6.75002C98.3232 6.70682 98.4096 6.66362 98.496 6.62042C98.496 6.53402 98.496 6.44762 98.496 6.36122C98.9712 5.97242 99.4464 5.58362 99.9216 5.19482C99.9216 5.06522 99.9216 4.93562 99.9216 4.80602C99.9648 4.80602 100.008 4.80602 100.051 4.80602C100.008 4.46042 99.9648 4.11482 99.9216 3.76922C99.8784 3.76922 99.8352 3.76922 99.792 3.76922C99.792 3.46682 99.792 3.16442 99.792 2.86202C99.7488 2.86202 99.7056 2.86202 99.6624 2.86202C99.468 2.17082 99.873 0.561619 100.181 0.399619C100.31 0.399619 100.44 0.399619 100.57 0.399619C101.234 0.982819 101.736 -0.102581 102.125 0.0108192C102.125 0.0540192 102.125 0.0972192 102.125 0.140419C102.784 0.329419 102.616 0.658819 102.902 1.17722C102.946 1.17722 102.989 1.17722 103.032 1.17722C103.032 1.26362 103.032 1.35002 103.032 1.43642C103.118 1.47962 103.205 1.52282 103.291 1.56602C103.291 1.65242 103.291 1.73882 103.291 1.82522C103.334 1.82522 103.378 1.82522 103.421 1.82522C103.421 1.91162 103.421 1.99802 103.421 2.08442C103.464 2.08442 103.507 2.08442 103.55 2.08442C103.55 2.21402 103.55 2.34362 103.55 2.47322C103.594 2.47322 103.637 2.47322 103.68 2.47322C103.68 2.55962 103.68 2.64602 103.68 2.73242C103.766 2.77562 103.853 2.81882 103.939 2.86202C103.982 3.03482 104.026 3.20762 104.069 3.38042C104.155 3.42362 104.242 3.46682 104.328 3.51002C104.328 3.59642 104.328 3.68282 104.328 3.76922C104.544 3.94202 104.76 4.11482 104.976 4.28762C105.322 4.67642 105.667 5.06522 106.013 5.45402C106.099 5.45402 106.186 5.45402 106.272 5.45402C106.272 5.49722 106.272 5.54042 106.272 5.58362C106.402 5.67002 106.531 5.75642 106.661 5.84282C106.877 6.10202 107.093 6.36122 107.309 6.62042C107.395 6.62042 107.482 6.62042 107.568 6.62042C107.827 6.92282 108.086 7.22522 108.346 7.52762C109.544 8.39162 110.43 9.48242 111.456 10.5084C112.45 11.4588 113.443 12.4092 114.437 13.3596C114.869 13.8348 115.301 14.31 115.733 14.7852C115.819 14.7852 115.906 14.7852 115.992 14.7852C116.122 14.958 116.251 15.1308 116.381 15.3036C116.467 15.3036 116.554 15.3036 116.64 15.3036C116.726 15.4332 116.813 15.5628 116.899 15.6924C117.029 15.7356 117.158 15.7788 117.288 15.822C117.331 15.9084 117.374 15.9948 117.418 16.0812C117.504 16.0812 117.59 16.0812 117.677 16.0812C117.72 16.1676 117.763 16.254 117.806 16.3404C117.893 16.3404 117.979 16.3404 118.066 16.3404C118.152 16.47 118.238 16.5996 118.325 16.7292C118.411 16.7292 118.498 16.7292 118.584 16.7292C118.67 16.8588 118.757 16.9884 118.843 17.118C118.93 17.118 119.016 17.118 119.102 17.118C119.189 17.2476 119.275 17.3772 119.362 17.5068C119.448 17.5068 119.534 17.5068 119.621 17.5068C119.664 17.5932 119.707 17.6796 119.75 17.766C119.794 17.766 119.837 17.766 119.88 17.766C119.923 17.8524 119.966 17.9388 120.01 18.0252C120.096 18.0252 120.182 18.0252 120.269 18.0252C120.398 18.198 120.528 18.3708 120.658 18.5436C120.744 18.5436 120.83 18.5436 120.917 18.5436C121.219 18.8892 121.522 19.2348 121.824 19.5804C122.602 20.3148 123.379 21.0492 124.157 21.7836C124.157 21.87 124.157 21.9564 124.157 22.0428C124.373 22.2156 124.589 22.3884 124.805 22.5612C124.805 22.6476 124.805 22.734 124.805 22.8204C124.848 22.8204 124.891 22.8204 124.934 22.8204C125.021 22.95 125.107 23.0796 125.194 23.2092C125.28 23.2524 125.366 23.2956 125.453 23.3388C125.453 23.4252 125.453 23.5116 125.453 23.598C125.582 23.6844 125.712 23.7708 125.842 23.8572C125.885 23.9868 125.928 24.1164 125.971 24.246C126.058 24.2892 126.144 24.3324 126.23 24.3756C126.23 24.462 126.23 24.5484 126.23 24.6348C126.317 24.678 126.403 24.7212 126.49 24.7644C126.49 24.8508 126.49 24.9372 126.49 25.0236C126.533 25.0236 126.576 25.0236 126.619 25.0236C126.662 25.1532 126.706 25.2828 126.749 25.4124C126.835 25.4556 126.922 25.4988 127.008 25.542C127.008 25.6284 127.008 25.7148 127.008 25.8012C127.094 25.8444 127.181 25.8876 127.267 25.9308C127.31 26.0604 127.354 26.19 127.397 26.3196C127.526 26.406 127.656 26.4924 127.786 26.5788C127.786 26.6652 127.786 26.7516 127.786 26.838C127.872 26.8812 127.958 26.9244 128.045 26.9676C128.088 27.0972 128.131 27.2268 128.174 27.3564C128.218 27.3564 128.261 27.3564 128.304 27.3564C128.304 27.4428 128.304 27.5292 128.304 27.6156C128.39 27.6588 128.477 27.702 128.563 27.7452C128.563 27.8316 128.563 27.918 128.563 28.0044C128.65 28.0476 128.736 28.0908 128.822 28.134C128.822 28.2204 128.822 28.3068 128.822 28.3932C128.909 28.4364 128.995 28.4796 129.082 28.5228C129.082 28.6092 129.082 28.6956 129.082 28.782C129.211 28.8684 129.341 28.9548 129.47 29.0412C129.47 29.1276 129.47 29.214 129.47 29.3004C129.557 29.3436 129.643 29.3868 129.73 29.43C129.73 29.5164 129.73 29.6028 129.73 29.6892C129.816 29.7324 129.902 29.7756 129.989 29.8188C129.989 29.9052 129.989 29.9916 129.989 30.078C130.075 30.1212 130.162 30.1644 130.248 30.2076C130.248 30.294 130.248 30.3804 130.248 30.4668C130.334 30.51 130.421 30.5532 130.507 30.5964C130.55 30.7692 130.594 30.942 130.637 31.1148C130.723 31.158 130.81 31.2012 130.896 31.2444C130.982 31.5036 131.069 31.7628 131.155 32.022C131.242 32.0652 131.328 32.1084 131.414 32.1516C131.414 32.238 131.414 32.3244 131.414 32.4108C131.458 32.4108 131.501 32.4108 131.544 32.4108C131.544 32.4972 131.544 32.5836 131.544 32.67L131.803 32.9292C131.803 33.0156 131.803 33.102 131.803 33.1884C131.89 33.2316 131.976 33.2748 132.062 33.318C132.106 33.4908 132.149 33.6636 132.192 33.8364C132.235 33.8364 132.278 33.8364 132.322 33.8364C132.322 33.9228 132.322 34.0092 132.322 34.0956C132.365 34.0956 132.408 34.0956 132.451 34.0956C132.538 34.3548 132.624 34.614 132.71 34.8732C132.754 34.8732 132.797 34.8732 132.84 34.8732C132.84 35.0028 132.84 35.1324 132.84 35.262C132.883 35.262 132.926 35.262 132.97 35.262C132.97 35.3484 132.97 35.4348 132.97 35.5212C133.013 35.5212 133.056 35.5212 133.099 35.5212C133.099 35.6508 133.099 35.7804 133.099 35.91C133.142 35.91 133.186 35.91 133.229 35.91C133.272 36.0828 133.315 36.2556 133.358 36.4284C133.402 36.4284 133.445 36.4284 133.488 36.4284C133.574 36.8172 133.661 37.206 133.747 37.5948C133.79 37.5948 133.834 37.5948 133.877 37.5948C133.877 37.7244 133.877 37.854 133.877 37.9836C133.92 37.9836 133.963 37.9836 134.006 37.9836C134.006 38.07 134.006 38.1564 134.006 38.2428C134.05 38.2428 134.093 38.2428 134.136 38.2428C134.179 38.5452 134.222 38.8476 134.266 39.15C134.309 39.15 134.352 39.15 134.395 39.15C134.395 39.2796 134.395 39.4092 134.395 39.5388C134.438 39.5388 134.482 39.5388 134.525 39.5388C134.525 39.6684 134.525 39.798 134.525 39.9276C134.568 39.9276 134.611 39.9276 134.654 39.9276C134.654 40.0572 134.654 40.1868 134.654 40.3164C134.698 40.3164 134.741 40.3164 134.784 40.3164C134.827 40.7052 134.87 41.094 134.914 41.4828C134.957 41.4828 135 41.4828 135.043 41.4828C135.043 41.6556 135.043 41.8284 135.043 42.0012C135.086 42.0012 135.13 42.0012 135.173 42.0012C135.173 42.1308 135.173 42.2604 135.173 42.39C135.216 42.39 135.259 42.39 135.302 42.39C135.302 42.5628 135.302 42.7356 135.302 42.9084C135.475 43.4268 135.648 43.9452 135.821 44.4636C136.717 44.8416 138.1 44.928 139.061 45.2412C139.234 45.2412 139.406 45.2412 139.579 45.2412C139.579 45.2844 139.579 45.3276 139.579 45.3708C139.752 45.3708 139.925 45.3708 140.098 45.3708C140.098 45.414 140.098 45.4572 140.098 45.5004C140.184 45.5004 140.27 45.5004 140.357 45.5004C140.4 45.5868 140.443 45.6732 140.486 45.7596C140.573 45.7596 140.659 45.7596 140.746 45.7596C140.789 45.846 140.832 45.9324 140.875 46.0188C140.962 46.0188 141.048 46.0188 141.134 46.0188C141.221 46.1484 141.307 46.278 141.394 46.4076C141.48 46.4076 141.566 46.4076 141.653 46.4076L141.912 46.6668C141.912 46.7532 141.912 46.8396 141.912 46.926C142.042 47.0124 142.171 47.0988 142.301 47.1852C142.43 47.574 142.56 47.9628 142.69 48.3516C142.733 48.3516 142.776 48.3516 142.819 48.3516C143.078 49.1616 142.56 50.5764 142.301 50.9436C142.042 51.1596 141.782 51.3756 141.523 51.5916C141.437 51.7212 141.35 51.8508 141.264 51.9804C141.178 51.9804 141.091 51.9804 141.005 51.9804C141.005 52.0236 141.005 52.0668 141.005 52.11C140.746 52.1964 140.486 52.2828 140.227 52.3692C140.227 52.4124 140.227 52.4556 140.227 52.4988C140.098 52.4988 139.968 52.4988 139.838 52.4988C139.838 52.542 139.838 52.5852 139.838 52.6284C139.622 52.6284 139.406 52.6284 139.19 52.6284C139.19 52.6716 139.19 52.7148 139.19 52.758C138.888 52.758 138.586 52.758 138.283 52.758C136.885 53.1522 134.752 53.0172 132.97 53.0172C131.571 53.0172 130.124 53.0604 129.082 52.758C128.65 52.758 128.218 52.758 127.786 52.758C127.613 52.758 127.44 52.758 127.267 52.758C127.267 52.7148 127.267 52.6716 127.267 52.6284C126.371 52.3746 125.377 52.8066 124.805 52.2396C124.762 52.2396 124.718 52.2396 124.675 52.2396C124.675 52.0668 124.675 51.894 124.675 51.7212C125.021 51.5052 125.366 51.2892 125.712 51.0732C126.619 50.8572 127.526 50.6412 128.434 50.4252C130.464 50.382 132.494 50.3388 134.525 50.2956C135.481 50.0202 136.663 49.7178 137.635 49.518C137.738 49.3344 137.992 48.9996 138.154 48.87C138.154 48.7836 138.154 48.6972 138.154 48.6108C137.997 48.5244 137.792 48.2382 137.765 48.222C137.592 48.222 137.419 48.222 137.246 48.222C137.246 48.1788 137.246 48.1356 137.246 48.0924C137.074 48.0492 136.901 48.006 136.728 47.9628C136.728 47.9196 136.728 47.8764 136.728 47.8332C136.512 47.79 136.296 47.7468 136.08 47.7036C136.08 47.6604 136.08 47.6172 136.08 47.574C135.907 47.574 135.734 47.574 135.562 47.574C135.562 47.5308 135.562 47.4876 135.562 47.4444C135.173 47.358 134.784 47.2716 134.395 47.1852C134.395 47.2284 134.395 47.2716 134.395 47.3148C134.222 47.358 134.05 47.4012 133.877 47.4444Z" fill="#3C4043"/>
<path fill-rule="evenodd" clip-rule="evenodd" d="M71.28 8.9533C71.6364 9.0451 71.5716 8.9911 71.6688 9.3421C71.712 9.3421 71.7552 9.3421 71.7984 9.3421C71.7552 9.8605 71.712 10.3789 71.6688 10.8973C71.7714 10.9459 71.928 11.1565 71.928 11.1565C72.1872 11.1565 72.4464 11.1565 72.7056 11.1565L72.8352 11.2861C72.8622 11.8207 73.2834 12.5713 73.0944 13.1005C73.008 13.3435 72.4032 13.8187 72.576 14.2669C72.6624 14.3101 72.7488 14.3533 72.8352 14.3965C72.8352 14.4829 72.8352 14.5693 72.8352 14.6557C72.8784 14.6557 72.9216 14.6557 72.9648 14.6557C72.9216 15.0877 72.8784 15.5197 72.8352 15.9517C72.8784 15.9517 72.9216 15.9517 72.9648 15.9517C73.008 16.1677 73.0512 16.3837 73.0944 16.5997C73.0512 16.5997 73.008 16.5997 72.9648 16.5997C72.9216 16.7293 72.8784 16.8589 72.8352 16.9885C72.7488 17.0317 72.6624 17.0749 72.576 17.1181C72.4896 17.6365 72.4032 18.1549 72.3168 18.6733C71.8416 18.6733 71.3664 18.6733 70.8912 18.6733C70.8102 18.8785 70.7778 18.9811 70.7616 19.3213C70.9128 19.4617 70.9182 19.5211 71.0208 19.7101C70.9776 19.7101 70.9344 19.7101 70.8912 19.7101C70.5834 19.9855 70.1568 19.8019 69.8544 19.9693C69.8544 20.0125 69.8544 20.0557 69.8544 20.0989C69.8112 20.0989 69.768 20.0989 69.7248 20.0989C69.7248 20.1421 69.7248 20.1853 69.7248 20.2285C69.6816 20.2285 69.6384 20.2285 69.5952 20.2285C69.5952 20.3149 69.5952 20.4013 69.5952 20.4877C69.552 20.4877 69.5088 20.4877 69.4656 20.4877C69.4656 20.6173 69.4656 20.7469 69.4656 20.8765C69.2064 21.0493 68.9472 21.2221 68.688 21.3949C68.6448 21.5677 68.6016 21.7405 68.5584 21.9133C68.1372 22.4263 67.7376 21.4975 67.6512 22.6909C67.878 22.8853 67.8996 23.0419 67.9104 23.4685C67.7808 23.5117 67.6512 23.5549 67.5216 23.5981C67.5216 23.6413 67.5216 23.6845 67.5216 23.7277C67.4352 23.7277 67.3488 23.7277 67.2624 23.7277C67.2624 23.7709 67.2624 23.8141 67.2624 23.8573C67.0464 23.8573 66.8304 23.8573 66.6144 23.8573C65.4696 24.2029 63.6012 24.0409 62.4672 23.9869C62.478 24.3271 62.4996 24.4297 62.5968 24.6349C62.5536 24.6349 62.5104 24.6349 62.4672 24.6349C62.1054 25.0453 60.8958 24.9103 60.1344 24.8941C60.0048 25.1533 59.8752 25.4125 59.7456 25.6717C59.3244 25.5205 59.4162 25.5907 58.968 25.6717C58.8438 26.3521 58.9086 26.2333 59.0976 26.8381C59.0976 27.0973 59.0976 27.3565 59.0976 27.6157C59.1408 27.6157 59.184 27.6157 59.2272 27.6157C59.2272 27.8317 59.2272 28.0477 59.2272 28.2637C59.2704 28.2637 59.3136 28.2637 59.3568 28.2637C59.3568 28.6525 59.3568 29.0413 59.3568 29.4301C59.4 29.4301 59.4432 29.4301 59.4864 29.4301C59.4864 29.6893 59.4864 29.9485 59.4864 30.2077C59.5296 30.2077 59.5728 30.2077 59.616 30.2077C59.8212 30.9151 59.4756 31.7251 59.3568 32.1517C59.2434 32.5621 59.5026 34.1065 59.616 34.3549C59.6592 34.3549 59.7024 34.3549 59.7456 34.3549C59.7456 34.4413 59.7456 34.5277 59.7456 34.6141C59.832 34.6573 59.9184 34.7005 60.0048 34.7437C60.048 34.9165 60.0912 35.0893 60.1344 35.2621C60.2208 35.3053 60.3072 35.3485 60.3936 35.3917C60.3936 35.4781 60.3936 35.5645 60.3936 35.6509C60.6096 35.8237 60.8256 35.9965 61.0416 36.1693C61.0848 36.2557 61.128 36.3421 61.1712 36.4285C61.2576 36.4285 61.344 36.4285 61.4304 36.4285C61.4304 36.4717 61.4304 36.5149 61.4304 36.5581C61.56 36.6445 61.6896 36.7309 61.8192 36.8173C61.8624 36.9901 61.9056 37.1629 61.9488 37.3357C62.0352 37.3789 62.1216 37.4221 62.208 37.4653C62.208 37.5517 62.208 37.6381 62.208 37.7245C62.3376 37.8109 62.4672 37.8973 62.5968 37.9837C62.5968 38.1133 62.5968 38.2429 62.5968 38.3725C62.64 38.3725 62.6832 38.3725 62.7264 38.3725C62.9424 38.8801 62.6292 38.9719 63.2448 39.1501C63.3906 39.7765 63.8928 40.2949 64.2816 40.7053C64.368 40.7485 64.4544 40.7917 64.5408 40.8349C64.5408 40.9213 64.5408 41.0077 64.5408 41.0941C64.6272 41.1373 64.7136 41.1805 64.8 41.2237C64.8 41.3101 64.8 41.3965 64.8 41.4829C64.8432 41.4829 64.8864 41.4829 64.9296 41.4829C64.9296 41.5693 64.9296 41.6557 64.9296 41.7421C64.9728 41.7421 65.016 41.7421 65.0592 41.7421C65.0592 41.8717 65.0592 42.0013 65.0592 42.1309C65.1024 42.1309 65.1456 42.1309 65.1888 42.1309C65.1888 42.2605 65.1888 42.3901 65.1888 42.5197C65.232 42.5197 65.2752 42.5197 65.3184 42.5197C65.3184 42.6061 65.3184 42.6925 65.3184 42.7789C65.3616 42.7789 65.4048 42.7789 65.448 42.7789C65.448 42.9085 65.448 43.0381 65.448 43.1677C65.5344 43.2109 65.6208 43.2541 65.7072 43.2973C65.7072 43.3837 65.7072 43.4701 65.7072 43.5565C65.7504 43.5565 65.7936 43.5565 65.8368 43.5565C65.8368 43.8157 65.8368 44.0749 65.8368 44.3341C65.88 44.3341 65.9232 44.3341 65.9664 44.3341C66.0096 44.5069 66.0528 44.6797 66.096 44.8525C66.1392 44.8525 66.1824 44.8525 66.2256 44.8525C66.2256 44.9389 66.2256 45.0253 66.2256 45.1117C66.2688 45.1117 66.312 45.1117 66.3552 45.1117C66.3552 45.1981 66.3552 45.2845 66.3552 45.3709C66.3984 45.3709 66.4416 45.3709 66.4848 45.3709C66.4848 45.5005 66.4848 45.6301 66.4848 45.7597C66.5712 45.8029 66.6576 45.8461 66.744 45.8893C67.1382 46.3159 67.4676 46.6669 68.04 46.9261C67.9968 47.0125 67.9536 47.0989 67.9104 47.1853C67.7376 47.2447 67.9482 47.2447 67.7808 47.3149C67.6512 47.3149 67.5216 47.3149 67.392 47.3149C67.392 47.3581 67.392 47.4013 67.392 47.4445C66.8412 47.6875 66.771 47.4121 66.744 48.2221C67.2624 48.3949 67.7808 48.5677 68.2992 48.7405C68.3424 48.8701 68.3856 48.9997 68.4288 49.1293C68.5152 49.1725 68.6016 49.2157 68.688 49.2589C68.7312 49.4317 68.7744 49.6045 68.8176 49.7773C68.8608 49.7773 68.904 49.7773 68.9472 49.7773C68.9472 49.9933 68.9472 50.2093 68.9472 50.4253C68.9904 50.4253 69.0336 50.4253 69.0768 50.4253C69.2442 50.9977 69.0228 51.8401 68.9472 52.2397C68.7636 52.3423 68.4288 52.5961 68.2992 52.7581C67.7808 52.7581 67.2624 52.7581 66.744 52.7581C66.3984 52.5421 66.0528 52.3261 65.7072 52.1101C65.7072 52.0237 65.7072 51.9373 65.7072 51.8509C65.5776 51.7645 65.448 51.6781 65.3184 51.5917C65.3184 51.5053 65.3184 51.4189 65.3184 51.3325C65.232 51.2893 65.1456 51.2461 65.0592 51.2029C65.0592 51.1165 65.0592 51.0301 65.0592 50.9437C64.9728 50.9005 64.8864 50.8573 64.8 50.8141C64.8 50.7277 64.8 50.6413 64.8 50.5549C64.7136 50.5117 64.6272 50.4685 64.5408 50.4253C64.5408 50.3389 64.5408 50.2525 64.5408 50.1661C64.4544 50.1229 64.368 50.0797 64.2816 50.0365C64.2816 49.9501 64.2816 49.8637 64.2816 49.7773C64.1952 49.7341 64.1088 49.6909 64.0224 49.6477C64.0224 49.5613 64.0224 49.4749 64.0224 49.3885C63.936 49.3453 63.8496 49.3021 63.7632 49.2589C63.7632 49.1725 63.7632 49.0861 63.7632 48.9997C63.6768 48.9565 63.5904 48.9133 63.504 48.8701C63.504 48.7837 63.504 48.6973 63.504 48.6109C63.4176 48.5677 63.3312 48.5245 63.2448 48.4813C63.2448 48.3949 63.2448 48.3085 63.2448 48.2221C63.1584 48.1789 63.072 48.1357 62.9856 48.0925C62.9856 48.0061 62.9856 47.9197 62.9856 47.8333C62.8992 47.7901 62.8128 47.7469 62.7264 47.7037C62.7264 47.6173 62.7264 47.5309 62.7264 47.4445C62.64 47.4013 62.5536 47.3581 62.4672 47.3149C62.4672 47.2285 62.4672 47.1421 62.4672 47.0557C62.424 47.0557 62.3808 47.0557 62.3376 47.0557C62.2944 46.9261 62.2512 46.7965 62.208 46.6669C62.1216 46.6237 62.0352 46.5805 61.9488 46.5373C61.9488 46.4509 61.9488 46.3645 61.9488 46.2781C61.8624 46.2349 61.776 46.1917 61.6896 46.1485C61.6896 46.0621 61.6896 45.9757 61.6896 45.8893C61.6032 45.8461 61.5168 45.8029 61.4304 45.7597C61.4304 45.6733 61.4304 45.5869 61.4304 45.5005C61.3872 45.5005 61.344 45.5005 61.3008 45.5005C61.2576 45.3709 61.2144 45.2413 61.1712 45.1117C61.0848 45.0685 60.9984 45.0253 60.912 44.9821C60.912 44.8957 60.912 44.8093 60.912 44.7229C60.6528 44.5069 60.3936 44.2909 60.1344 44.0749C60.048 44.0749 59.9616 44.0749 59.8752 44.0749C59.8752 44.0317 59.8752 43.9885 59.8752 43.9453C58.968 43.9021 58.0608 43.8589 57.1536 43.8157C57.1536 43.8589 57.1536 43.9021 57.1536 43.9453C56.8188 43.9939 56.4894 43.6267 56.2464 43.5565C55.8144 43.5997 55.3824 43.6429 54.9504 43.6861C54.9504 43.6429 54.9504 43.5997 54.9504 43.5565C54.864 43.5565 54.7776 43.5565 54.6912 43.5565C54.6912 43.5133 54.6912 43.4701 54.6912 43.4269C54.6048 43.4269 54.5184 43.4269 54.432 43.4269C54.432 43.3837 54.432 43.3405 54.432 43.2973C54.0432 43.1677 53.6544 43.0381 53.2656 42.9085C53.0928 42.6925 52.92 42.4765 52.7472 42.2605C52.6608 42.2605 52.5744 42.2605 52.488 42.2605C52.4448 42.1741 52.4016 42.0877 52.3584 42.0013C52.056 41.7961 51.813 41.7475 51.4512 41.6125C51.4512 41.5693 51.4512 41.5261 51.4512 41.4829C51.3216 41.5261 51.192 41.5693 51.0624 41.6125C51.1056 41.8717 51.1488 42.1309 51.192 42.3901C51.2352 42.3901 51.2784 42.3901 51.3216 42.3901C51.2784 42.5629 51.2352 42.7357 51.192 42.9085C50.5062 43.0597 50.4846 43.2919 50.4144 44.0749C50.4144 44.2045 50.4144 44.3341 50.4144 44.4637C50.3712 44.4637 50.328 44.4637 50.2848 44.4637C50.1066 44.6743 49.8366 44.7931 49.6368 44.9821C49.5936 45.0685 49.5504 45.1549 49.5072 45.2413C49.4208 45.2413 49.3344 45.2413 49.248 45.2413C49.1454 45.3223 49.1508 45.5005 48.9888 45.6301C48.9456 46.3213 48.9024 47.0125 48.8592 47.7037C48.7728 47.7037 48.6864 47.7037 48.6 47.7037C48.6 47.7469 48.6 47.7901 48.6 47.8333C48.3516 47.8819 48.0384 47.5039 47.6928 47.7037C47.6928 47.7469 47.6928 47.7901 47.6928 47.8333C47.1744 47.9791 47.2662 48.1789 46.9152 48.4813C46.9152 48.5245 46.9152 48.5677 46.9152 48.6109C46.656 48.6973 46.3968 48.7837 46.1376 48.8701C46.008 49.0861 45.8784 49.3021 45.7488 49.5181C45.5328 49.5613 45.3168 49.6045 45.1008 49.6477C44.9712 49.8205 44.8416 49.9933 44.712 50.1661C44.6688 50.1661 44.6256 50.1661 44.5824 50.1661C44.5824 50.2525 44.5824 50.3389 44.5824 50.4253C44.496 50.4685 44.4096 50.5117 44.3232 50.5549C44.3232 50.6413 44.3232 50.7277 44.3232 50.8141C44.1504 50.9437 43.9776 51.0733 43.8048 51.2029C43.8048 51.2893 43.8048 51.3757 43.8048 51.4621C43.6752 51.5053 43.5456 51.5485 43.416 51.5917C43.3296 51.7213 43.2432 51.8509 43.1568 51.9805C43.0704 51.9805 42.984 51.9805 42.8976 51.9805C42.8976 52.0237 42.8976 52.0669 42.8976 52.1101C42.6384 52.1965 42.3792 52.2829 42.12 52.3693C42.12 52.4125 42.12 52.4557 42.12 52.4989C41.9472 52.4989 41.7744 52.4989 41.6016 52.4989C41.6016 52.5421 41.6016 52.5853 41.6016 52.6285C41.1156 52.7743 38.7558 52.6501 38.4912 52.4989C38.4912 52.4557 38.4912 52.4125 38.4912 52.3693C38.3616 52.2829 38.232 52.1965 38.1024 52.1101C38.1024 51.9805 38.1024 51.8509 38.1024 51.7213C38.0592 51.7213 38.016 51.7213 37.9728 51.7213C38.0592 51.3757 38.1456 51.0301 38.232 50.6845C38.7072 50.3821 39.1824 50.0797 39.6576 49.7773C39.9168 49.7341 40.176 49.6909 40.4352 49.6477C40.4352 49.6045 40.4352 49.5613 40.4352 49.5181C40.608 49.4749 40.7808 49.4317 40.9536 49.3885C40.9968 49.3021 41.04 49.2157 41.0832 49.1293C41.1696 49.1293 41.256 49.1293 41.3424 49.1293C41.3424 49.0861 41.3424 49.0429 41.3424 48.9997C41.472 48.9133 41.6016 48.8269 41.7312 48.7405C41.7312 48.6541 41.7312 48.5677 41.7312 48.4813C41.7744 48.4813 41.8176 48.4813 41.8608 48.4813C41.8608 48.3949 41.8608 48.3085 41.8608 48.2221C41.9472 48.1789 42.0336 48.1357 42.12 48.0925C42.12 48.0061 42.12 47.9197 42.12 47.8333C42.1632 47.8333 42.2064 47.8333 42.2496 47.8333C42.2496 47.7469 42.2496 47.6605 42.2496 47.5741C42.2928 47.5741 42.336 47.5741 42.3792 47.5741C42.3792 47.4445 42.3792 47.3149 42.3792 47.1853C42.4224 47.1853 42.4656 47.1853 42.5088 47.1853C42.5088 47.0989 42.5088 47.0125 42.5088 46.9261C42.552 46.9261 42.5952 46.9261 42.6384 46.9261C42.6384 46.8397 42.6384 46.7533 42.6384 46.6669C42.7248 46.6237 42.8112 46.5805 42.8976 46.5373C43.0272 46.1485 43.1568 45.7597 43.2864 45.3709C43.3728 45.3277 43.4592 45.2845 43.5456 45.2413C43.5456 45.1117 43.5456 44.9821 43.5456 44.8525C43.5888 44.8525 43.632 44.8525 43.6752 44.8525C43.6752 44.7661 43.6752 44.6797 43.6752 44.5933C43.7184 44.5933 43.7616 44.5933 43.8048 44.5933C43.8048 44.5069 43.8048 44.4205 43.8048 44.3341C43.8912 44.2909 43.9776 44.2477 44.064 44.2045C44.064 44.1181 44.064 44.0317 44.064 43.9453L44.3232 43.6861C44.3232 43.5997 44.3232 43.5133 44.3232 43.4269C44.3664 43.4269 44.4096 43.4269 44.4528 43.4269C44.4528 43.3405 44.4528 43.2541 44.4528 43.1677C44.496 43.1677 44.5392 43.1677 44.5824 43.1677C44.5824 43.0813 44.5824 42.9949 44.5824 42.9085C44.6256 42.9085 44.6688 42.9085 44.712 42.9085C44.712 42.8221 44.712 42.7357 44.712 42.6493C44.7552 42.6493 44.7984 42.6493 44.8416 42.6493C44.8416 42.3469 44.8416 42.0445 44.8416 41.7421C44.7984 41.7421 44.7552 41.7421 44.712 41.7421C44.712 41.6125 44.712 41.4829 44.712 41.3533C44.6688 41.3533 44.6256 41.3533 44.5824 41.3533C44.5392 41.1805 44.496 41.0077 44.4528 40.8349C44.4096 40.8349 44.3664 40.8349 44.3232 40.8349C44.3232 40.7053 44.3232 40.5757 44.3232 40.4461C44.28 40.4461 44.2368 40.4461 44.1936 40.4461C44.1936 40.3165 44.1936 40.1869 44.1936 40.0573C44.1504 40.0573 44.1072 40.0573 44.064 40.0573C44.064 39.9277 44.064 39.7981 44.064 39.6685C44.0208 39.6685 43.9776 39.6685 43.9344 39.6685C43.9344 39.5389 43.9344 39.4093 43.9344 39.2797C43.8912 39.2797 43.848 39.2797 43.8048 39.2797C43.8048 39.1501 43.8048 39.0205 43.8048 38.8909C43.7616 38.8909 43.7184 38.8909 43.6752 38.8909C43.524 38.5183 43.7076 38.5021 43.416 38.2429C43.416 38.1997 43.416 38.1565 43.416 38.1133C43.2432 38.1133 43.0704 38.1133 42.8976 38.1133C42.741 38.3941 42.6114 38.5399 42.2496 38.6317C42.1794 38.5129 41.8338 38.1457 41.6016 38.2429C41.6016 38.2861 41.6016 38.3293 41.6016 38.3725C41.2992 38.4481 41.2938 38.4913 41.0832 38.6317C41.0832 38.6749 41.0832 38.7181 41.0832 38.7613C40.7376 38.7613 40.392 38.7613 40.0464 38.7613C40.0464 38.8045 40.0464 38.8477 40.0464 38.8909C39.96 38.8909 39.8736 38.8909 39.7872 38.8909C39.4092 39.1285 39.7386 39.3013 39.0096 39.4093C38.7828 38.9881 38.4912 38.6587 37.8432 38.6317C37.7676 39.0745 37.6218 39.4255 37.1952 39.5389C36.9738 39.7441 36.3258 39.6793 35.8992 39.6685C35.775 39.5065 35.6076 39.5281 35.5104 39.4093C35.208 39.0313 35.3754 38.8369 34.7328 38.7613C34.6518 38.9719 34.6194 39.0691 34.6032 39.4093C34.83 39.6091 34.7274 39.6469 34.8624 39.9277C34.9056 39.9277 34.9488 39.9277 34.992 39.9277C34.992 40.1005 34.992 40.2733 34.992 40.4461C35.0352 40.4461 35.0784 40.4461 35.1216 40.4461C35.208 40.7053 35.2944 40.9645 35.3808 41.2237C35.127 41.3695 35.073 41.5693 34.8624 41.7421C34.992 42.5953 35.2566 42.8167 36.288 42.7789C36.6876 42.3955 37.7676 42.8923 38.1024 43.0381C38.232 43.2757 38.5344 43.5781 38.6208 43.8157C38.6208 44.2045 38.6208 44.5933 38.6208 44.9821C38.3346 45.1711 38.4318 45.3061 38.232 45.5005C38.1024 45.5437 37.9728 45.5869 37.8432 45.6301C37.8 45.7165 37.7568 45.8029 37.7136 45.8893C37.6272 45.8893 37.5408 45.8893 37.4544 45.8893C37.4544 45.9325 37.4544 45.9757 37.4544 46.0189C37.368 46.0189 37.2816 46.0189 37.1952 46.0189C37.1952 46.0621 37.1952 46.1053 37.1952 46.1485C36.7632 46.3375 34.1604 46.7533 33.4368 46.5373C33.048 46.4077 32.6592 46.2781 32.2704 46.1485C32.1408 45.9757 32.0112 45.8029 31.8816 45.6301C31.8384 45.6301 31.7952 45.6301 31.752 45.6301C31.7088 45.4573 31.6656 45.2845 31.6224 45.1117C31.5792 45.1117 31.536 45.1117 31.4928 45.1117C31.4064 44.8525 31.32 44.5933 31.2336 44.3341C31.1904 44.3341 31.1472 44.3341 31.104 44.3341C31.104 44.2045 31.104 44.0749 31.104 43.9453C31.0608 43.9453 31.0176 43.9453 30.9744 43.9453C30.9744 43.8589 30.9744 43.7725 30.9744 43.6861C30.9312 43.6861 30.888 43.6861 30.8448 43.6861C30.7584 43.4269 30.672 43.1677 30.5856 42.9085C30.5424 42.9085 30.4992 42.9085 30.456 42.9085C30.3264 42.5197 30.1968 42.1309 30.0672 41.7421C30.024 41.7421 29.9808 41.7421 29.9376 41.7421C29.9376 41.6557 29.9376 41.5693 29.9376 41.4829C29.8944 41.4829 29.8512 41.4829 29.808 41.4829C29.808 41.3533 29.808 41.2237 29.808 41.0941C29.7648 41.0941 29.7216 41.0941 29.6784 41.0941C29.6784 41.0077 29.6784 40.9213 29.6784 40.8349C29.6352 40.8349 29.592 40.8349 29.5488 40.8349C29.2518 40.2841 29.4948 40.0951 28.6416 40.0573C28.5552 40.1869 28.4688 40.3165 28.3824 40.4461C28.3392 40.4461 28.296 40.4461 28.2528 40.4461C28.2096 40.6189 28.1664 40.7917 28.1232 40.9645C27.9504 41.0941 27.7776 41.2237 27.6048 41.3533C27.6048 41.4397 27.6048 41.5261 27.6048 41.6125C27.5616 41.6125 27.5184 41.6125 27.4752 41.6125C27.4752 41.6989 27.4752 41.7853 27.4752 41.8717C27.432 41.8717 27.3888 41.8717 27.3456 41.8717C27.3024 42.0013 27.2592 42.1309 27.216 42.2605C27.0864 42.3037 26.9568 42.3469 26.8272 42.3901C26.676 41.7367 26.2278 41.7097 25.4016 41.7421C25.4016 41.7853 25.4016 41.8285 25.4016 41.8717C25.1856 41.9149 24.9696 41.9581 24.7536 42.0013C24.5376 42.3469 24.3216 42.6925 24.1056 43.0381C24.1056 43.1245 24.1056 43.2109 24.1056 43.2973C24.0624 43.2973 24.0192 43.2973 23.976 43.2973C23.976 43.3837 23.976 43.4701 23.976 43.5565C23.9328 43.5565 23.8896 43.5565 23.8464 43.5565C23.6142 44.2045 24.0624 45.1387 23.7168 45.6301C23.5872 45.6733 23.4576 45.7165 23.328 45.7597C23.2416 45.8893 23.1552 46.0189 23.0688 46.1485C22.9824 46.1485 22.896 46.1485 22.8096 46.1485C22.7664 46.2781 22.7232 46.4077 22.68 46.5373C22.5936 46.5805 22.5072 46.6237 22.4208 46.6669C22.4208 46.7533 22.4208 46.8397 22.4208 46.9261C22.248 47.0557 22.0752 47.1853 21.9024 47.3149C21.9024 47.3581 21.9024 47.4013 21.9024 47.4445C21.7296 47.4445 21.5568 47.4445 21.384 47.4445C20.7576 47.5201 20.8818 47.7037 20.8656 48.3517C20.9088 48.3517 20.952 48.3517 20.9952 48.3517C20.9952 48.6109 20.9952 48.8701 20.9952 49.1293C20.8656 49.1725 20.736 49.2157 20.6064 49.2589C20.4552 49.3939 19.8018 49.4803 19.5696 49.5181C19.44 49.9069 19.3104 50.2957 19.1808 50.6845C18.7164 50.6845 18.4788 50.7493 18.144 50.8141C18.0684 51.1705 17.9442 51.4405 17.7552 51.7213C17.6688 51.7645 17.5824 51.8077 17.496 51.8509C17.496 51.9373 17.496 52.0237 17.496 52.1101C17.4096 52.1533 17.3232 52.1965 17.2368 52.2397C17.2368 52.3261 17.2368 52.4125 17.2368 52.4989C17.1504 52.5421 17.064 52.5853 16.9776 52.6285C16.848 52.8013 16.7184 52.9741 16.5888 53.1469C15.6384 53.7841 13.095 53.8003 11.7936 53.6653C11.664 53.4925 11.5344 53.3197 11.4048 53.1469C11.3616 53.1469 11.3184 53.1469 11.2752 53.1469C11.07 52.7743 11.2536 52.4503 11.2752 51.9805C11.3184 51.9805 11.3616 51.9805 11.4048 51.9805C11.448 51.8509 11.4912 51.7213 11.5344 51.5917C11.6208 51.5485 11.7072 51.5053 11.7936 51.4621C11.7936 51.4189 11.7936 51.3757 11.7936 51.3325C11.88 51.3325 11.9664 51.3325 12.0528 51.3325C12.096 51.2461 12.1392 51.1597 12.1824 51.0733C12.3984 51.0301 12.6144 50.9869 12.8304 50.9437C12.8304 50.9005 12.8304 50.8573 12.8304 50.8141C12.9168 50.8141 13.0032 50.8141 13.0896 50.8141C13.0896 50.7709 13.0896 50.7277 13.0896 50.6845C13.2192 50.6845 13.3488 50.6845 13.4784 50.6845C13.4784 50.6413 13.4784 50.5981 13.4784 50.5549C13.7376 50.4685 13.9968 50.3821 14.256 50.2957C14.3856 50.1229 14.5152 49.9501 14.6448 49.7773C14.7312 49.7341 14.8176 49.6909 14.904 49.6477C15.0336 49.2589 15.1632 48.8701 15.2928 48.4813C15.336 48.4813 15.3792 48.4813 15.4224 48.4813C15.4224 48.3517 15.4224 48.2221 15.4224 48.0925C15.4656 48.0925 15.5088 48.0925 15.552 48.0925C15.552 48.0061 15.552 47.9197 15.552 47.8333C15.5952 47.8333 15.6384 47.8333 15.6816 47.8333C15.6816 47.7037 15.6816 47.5741 15.6816 47.4445C15.7248 47.4445 15.768 47.4445 15.8112 47.4445C15.8112 47.3581 15.8112 47.2717 15.8112 47.1853C15.8544 47.1853 15.8976 47.1853 15.9408 47.1853C15.984 46.9261 16.0272 46.6669 16.0704 46.4077C16.1136 46.4077 16.1568 46.4077 16.2 46.4077C16.2 46.3213 16.2 46.2349 16.2 46.1485C16.2432 46.1485 16.2864 46.1485 16.3296 46.1485C16.3296 46.0189 16.3296 45.8893 16.3296 45.7597C16.3728 45.7597 16.416 45.7597 16.4592 45.7597C16.4592 45.6733 16.4592 45.5869 16.4592 45.5005C16.5024 45.5005 16.5456 45.5005 16.5888 45.5005C16.632 45.2413 16.6752 44.9821 16.7184 44.7229C16.7616 44.7229 16.8048 44.7229 16.848 44.7229C16.8912 44.5501 16.9344 44.3773 16.9776 44.2045C17.0208 44.2045 17.064 44.2045 17.1072 44.2045C17.1504 43.9453 17.1936 43.6861 17.2368 43.4269C17.28 43.4269 17.3232 43.4269 17.3664 43.4269C17.4096 43.2541 17.4528 43.0813 17.496 42.9085C17.5392 42.9085 17.5824 42.9085 17.6256 42.9085C17.6256 42.7789 17.6256 42.6493 17.6256 42.5197C17.6688 42.5197 17.712 42.5197 17.7552 42.5197C17.7552 42.4333 17.7552 42.3469 17.7552 42.2605C17.7984 42.2605 17.8416 42.2605 17.8848 42.2605C17.928 42.0013 17.9712 41.7421 18.0144 41.4829C18.0576 41.4829 18.1008 41.4829 18.144 41.4829C18.144 41.3965 18.144 41.3101 18.144 41.2237C18.1872 41.2237 18.2304 41.2237 18.2736 41.2237C18.441 40.8997 18.3816 40.5379 18.5328 40.1869C18.576 40.1869 18.6192 40.1869 18.6624 40.1869C18.6624 40.1005 18.6624 40.0141 18.6624 39.9277C18.7056 39.9277 18.7488 39.9277 18.792 39.9277C18.792 39.7981 18.792 39.6685 18.792 39.5389C18.8352 39.5389 18.8784 39.5389 18.9216 39.5389C19.2024 38.6479 18.5328 37.4815 18.4032 36.8173C18.0738 36.6445 17.9496 36.5581 17.3664 36.5581C17.3664 36.4717 17.3664 36.3853 17.3664 36.2989C16.9398 35.9317 17.1936 35.7913 16.3296 35.7805C16.254 35.8345 16.308 35.9911 16.0704 35.9101C16.0704 35.8669 16.0704 35.8237 16.0704 35.7805C15.8058 35.5591 15.7626 35.2945 15.552 35.0029C15.4224 34.9165 15.2928 34.8301 15.1632 34.7437C15.1632 34.7005 15.1632 34.6573 15.1632 34.6141C15.0768 34.6141 14.9904 34.6141 14.904 34.6141C14.904 34.5709 14.904 34.5277 14.904 34.4845C14.7744 34.4845 14.6448 34.4845 14.5152 34.4845C14.5152 34.4413 14.5152 34.3981 14.5152 34.3549C14.3856 34.2685 14.256 34.1821 14.1264 34.0957C14.0832 33.8797 14.04 33.6637 13.9968 33.4477C13.9536 33.4477 13.9104 33.4477 13.8672 33.4477C13.8672 33.3613 13.8672 33.2749 13.8672 33.1885C13.7808 33.1453 13.6944 33.1021 13.608 33.0589C13.5648 32.8429 13.5216 32.6269 13.4784 32.4109C13.4352 32.4109 13.392 32.4109 13.3488 32.4109C13.3056 32.1949 13.2624 31.9789 13.2192 31.7629C12.9168 31.5901 12.6144 31.4173 12.312 31.2445C12.2688 31.0285 12.2256 30.8125 12.1824 30.5965C12.1392 30.5965 12.096 30.5965 12.0528 30.5965C12.0096 30.4237 11.9664 30.2509 11.9232 30.0781C11.8368 30.0349 11.7504 29.9917 11.664 29.9485C11.664 29.8621 11.664 29.7757 11.664 29.6893C11.6208 29.6893 11.5776 29.6893 11.5344 29.6893C11.5344 29.5597 11.5344 29.4301 11.5344 29.3005C11.4912 29.3005 11.448 29.3005 11.4048 29.3005C11.4048 28.0909 11.4048 26.8813 11.4048 25.6717C11.448 25.6717 11.4912 25.6717 11.5344 25.6717C11.5344 25.3693 11.5344 25.0669 11.5344 24.7645C11.4912 24.7645 11.448 24.7645 11.4048 24.7645C11.4048 24.5917 11.4048 24.4189 11.4048 24.2461C11.3616 24.2461 11.3184 24.2461 11.2752 24.2461C11.232 24.0301 11.1888 23.8141 11.1456 23.5981C11.1024 23.5981 11.0592 23.5981 11.016 23.5981C11.016 23.5117 11.016 23.4253 11.016 23.3389C10.9728 23.3389 10.9296 23.3389 10.8864 23.3389C10.8432 23.1229 10.8 22.9069 10.7568 22.6909C10.6704 22.6477 10.584 22.6045 10.4976 22.5613C10.4976 22.4749 10.4976 22.3885 10.4976 22.3021C10.368 22.2157 10.2384 22.1293 10.1088 22.0429C9.9144 21.8485 9.7362 21.4921 9.4608 21.3949C8.9208 21.2005 8.1594 21.7783 7.9056 21.9133C7.8192 21.9133 7.7328 21.9133 7.6464 21.9133C7.6464 21.9565 7.6464 21.9997 7.6464 22.0429C7.56 22.0429 7.4736 22.0429 7.3872 22.0429C7.3872 22.0861 7.3872 22.1293 7.3872 22.1725C7.2144 22.2157 7.0416 22.2589 6.8688 22.3021C6.8688 22.3453 6.8688 22.3885 6.8688 22.4317C6.399 22.6423 4.4496 23.0581 3.6288 22.8205C3.6288 22.7773 3.6288 22.7341 3.6288 22.6909C3.4128 22.6909 3.1968 22.6909 2.9808 22.6909C2.9808 22.6477 2.9808 22.6045 2.9808 22.5613C2.8944 22.5613 2.808 22.5613 2.7216 22.5613C2.7216 22.5181 2.7216 22.4749 2.7216 22.4317C2.6352 22.4317 2.5488 22.4317 2.4624 22.4317C2.4192 22.3453 2.376 22.2589 2.3328 22.1725C2.1168 21.9997 1.9008 21.8269 1.6848 21.6541C1.6848 21.5677 1.6848 21.4813 1.6848 21.3949L1.4256 21.1357C1.4256 21.0493 1.4256 20.9629 1.4256 20.8765C1.3824 20.8765 1.3392 20.8765 1.296 20.8765C1.296 20.7901 1.296 20.7037 1.296 20.6173C1.2528 20.6173 1.2096 20.6173 1.1664 20.6173C1.1664 20.5309 1.1664 20.4445 1.1664 20.3581C1.1232 20.3581 1.08 20.3581 1.0368 20.3581C1.0368 20.2717 1.0368 20.1853 1.0368 20.0989C0.9936 20.0989 0.9504 20.0989 0.9072 20.0989C0.9072 20.0125 0.9072 19.9261 0.9072 19.8397C0.864 19.8397 0.8208 19.8397 0.7776 19.8397C0.7344 19.6669 0.6912 19.4941 0.648 19.3213C0.6048 19.3213 0.5616 19.3213 0.5184 19.3213C0.5184 19.2349 0.5184 19.1485 0.5184 19.0621C0.4752 19.0621 0.432 19.0621 0.3888 19.0621C0.3888 18.9757 0.3888 18.8893 0.3888 18.8029C0.3024 18.7597 0.216 18.7165 0.1296 18.6733C0.0864 18.2413 0.0432 17.8093 0 17.3773C0.1728 17.2477 0.3456 17.1181 0.5184 16.9885C0.5184 16.9453 0.5184 16.9021 0.5184 16.8589C0.6048 16.8589 0.6912 16.8589 0.7776 16.8589C0.864 16.7293 0.9504 16.5997 1.0368 16.4701C1.1232 16.4701 1.2096 16.4701 1.296 16.4701C1.296 16.4269 1.296 16.3837 1.296 16.3405C1.3824 16.3405 1.4688 16.3405 1.5552 16.3405C1.5984 16.2541 1.6416 16.1677 1.6848 16.0813C1.7712 16.0813 1.8576 16.0813 1.944 16.0813C1.9872 15.9949 2.0304 15.9085 2.0736 15.8221C2.16 15.8221 2.2464 15.8221 2.3328 15.8221C2.376 15.7357 2.4192 15.6493 2.4624 15.5629C2.6352 15.5197 2.808 15.4765 2.9808 15.4333C3.024 15.3469 3.0672 15.2605 3.1104 15.1741C3.1968 15.1741 3.2832 15.1741 3.3696 15.1741C3.4128 15.0877 3.456 15.0013 3.4992 14.9149C3.5856 14.9149 3.672 14.9149 3.7584 14.9149C3.8016 14.8285 3.8448 14.7421 3.888 14.6557C4.104 14.4829 4.32 14.3101 4.536 14.1373C4.6224 13.7485 4.7088 13.3597 4.7952 12.9709C4.8384 12.9709 4.8816 12.9709 4.9248 12.9709C5.0112 12.7117 5.0976 12.4525 5.184 12.1933C5.2272 12.1933 5.2704 12.1933 5.3136 12.1933C5.3136 12.1069 5.3136 12.0205 5.3136 11.9341C5.4864 11.8045 5.6592 11.6749 5.832 11.5453C5.8752 11.4589 5.9184 11.3725 5.9616 11.2861C6.048 11.2861 6.1344 11.2861 6.2208 11.2861C6.264 11.1997 6.3072 11.1133 6.3504 11.0269C6.6096 10.9405 6.8688 10.8541 7.128 10.7677C7.128 10.7245 7.128 10.6813 7.128 10.6381C7.2144 10.6381 7.3008 10.6381 7.3872 10.6381C7.3872 10.5949 7.3872 10.5517 7.3872 10.5085C7.6464 10.4221 7.9056 10.3357 8.1648 10.2493C8.1648 10.2061 8.1648 10.1629 8.1648 10.1197C8.3376 10.1197 8.5104 10.1197 8.6832 10.1197C8.6832 10.0765 8.6832 10.0333 8.6832 9.9901C8.9856 9.9469 9.288 9.9037 9.5904 9.8605C9.5904 9.8173 9.5904 9.7741 9.5904 9.7309C9.8064 9.7309 10.0224 9.7309 10.2384 9.7309C10.2384 9.6877 10.2384 9.6445 10.2384 9.6013C10.4976 9.6013 10.7568 9.6013 11.016 9.6013C11.016 9.5581 11.016 9.5149 11.016 9.4717C11.7072 9.2773 14.0508 9.7849 14.3856 9.9901C14.9904 10.5517 15.5952 11.1133 16.2 11.6749C16.2 11.7613 16.2 11.8477 16.2 11.9341C16.5456 12.2365 16.8912 12.5389 17.2368 12.8413C17.2368 12.9277 17.2368 13.0141 17.2368 13.1005C17.5824 13.4029 17.928 13.7053 18.2736 14.0077C18.4032 14.1805 18.5328 14.3533 18.6624 14.5261C18.7488 14.5261 18.8352 14.5261 18.9216 14.5261C19.0512 14.6989 19.1808 14.8717 19.3104 15.0445C19.3968 15.0445 19.4832 15.0445 19.5696 15.0445C19.656 15.1741 19.7424 15.3037 19.8288 15.4333C19.9152 15.4333 20.0016 15.4333 20.088 15.4333C20.1312 15.5197 20.1744 15.6061 20.2176 15.6925C20.304 15.6925 20.3904 15.6925 20.4768 15.6925C20.4768 15.7357 20.4768 15.7789 20.4768 15.8221C20.5632 15.8221 20.6496 15.8221 20.736 15.8221C20.736 15.8653 20.736 15.9085 20.736 15.9517C20.8224 15.9517 20.9088 15.9517 20.9952 15.9517C20.9952 15.9949 20.9952 16.0381 20.9952 16.0813C21.0816 16.0813 21.168 16.0813 21.2544 16.0813L21.5136 16.3405C21.6 16.3405 21.6864 16.3405 21.7728 16.3405C22.032 16.6429 22.2912 16.9453 22.5504 17.2477C22.6368 17.2477 22.7232 17.2477 22.8096 17.2477C22.8528 17.3341 22.896 17.4205 22.9392 17.5069C23.112 17.5501 23.2848 17.5933 23.4576 17.6365C23.4576 17.6797 23.4576 17.7229 23.4576 17.7661C23.544 17.7661 23.6304 17.7661 23.7168 17.7661C23.7168 17.8093 23.7168 17.8525 23.7168 17.8957C23.976 17.9821 24.2352 18.0685 24.4944 18.1549C24.4944 18.1981 24.4944 18.2413 24.4944 18.2845C24.8832 18.3709 25.272 18.4573 25.6608 18.5437C25.6608 18.5869 25.6608 18.6301 25.6608 18.6733C25.7472 18.6733 25.8336 18.6733 25.92 18.6733C25.92 18.7165 25.92 18.7597 25.92 18.8029C26.136 18.8029 26.352 18.8029 26.568 18.8029C26.568 18.8461 26.568 18.8893 26.568 18.9325C27.3456 18.9757 28.1232 19.0189 28.9008 19.0621C28.9008 19.1053 28.9008 19.1485 28.9008 19.1917C29.16 19.1917 29.4192 19.1917 29.6784 19.1917C29.6784 19.2349 29.6784 19.2781 29.6784 19.3213C30.24 19.3213 30.8016 19.3213 31.3632 19.3213C31.3632 19.3645 31.3632 19.4077 31.3632 19.4509C32.1408 19.4509 32.9184 19.4509 33.696 19.4509C33.696 19.4941 33.696 19.5373 33.696 19.5805C36.0288 19.5805 38.3616 19.5805 40.6944 19.5805C43.0704 19.5805 45.4464 19.5805 47.8224 19.5805C47.8224 19.5373 47.8224 19.4941 47.8224 19.4509C49.5072 19.4509 51.192 19.4509 52.8768 19.4509C52.8768 19.4077 52.8768 19.3645 52.8768 19.3213C53.2656 19.3213 53.6544 19.3213 54.0432 19.3213C54.0432 19.2781 54.0432 19.2349 54.0432 19.1917C54.5184 19.1485 54.9936 19.1053 55.4688 19.0621C55.4688 19.0189 55.4688 18.9757 55.4688 18.9325C55.728 18.9325 55.9872 18.9325 56.2464 18.9325C56.2464 18.8893 56.2464 18.8461 56.2464 18.8029C56.4192 18.8029 56.592 18.8029 56.7648 18.8029C56.7648 18.7597 56.7648 18.7165 56.7648 18.6733C56.8944 18.6733 57.024 18.6733 57.1536 18.6733C57.1536 18.6301 57.1536 18.5869 57.1536 18.5437C57.2832 18.5437 57.4128 18.5437 57.5424 18.5437C57.5424 18.5005 57.5424 18.4573 57.5424 18.4141C57.672 18.4141 57.8016 18.4141 57.9312 18.4141C57.9312 18.3709 57.9312 18.3277 57.9312 18.2845C58.104 18.2845 58.2768 18.2845 58.4496 18.2845C58.4496 18.2413 58.4496 18.1981 58.4496 18.1549C58.536 18.1549 58.6224 18.1549 58.7088 18.1549C58.7088 18.1117 58.7088 18.0685 58.7088 18.0253C58.8384 18.0253 58.968 18.0253 59.0976 18.0253C59.0976 17.9821 59.0976 17.9389 59.0976 17.8957C59.184 17.8957 59.2704 17.8957 59.3568 17.8957C59.3568 17.8525 59.3568 17.8093 59.3568 17.7661C59.7456 17.6365 60.1344 17.5069 60.5232 17.3773C60.5664 17.2909 60.6096 17.2045 60.6528 17.1181C60.912 17.0317 61.1712 16.9453 61.4304 16.8589C61.4736 16.7725 61.5168 16.6861 61.56 16.5997C61.7328 16.5565 61.9056 16.5133 62.0784 16.4701C62.0784 16.4269 62.0784 16.3837 62.0784 16.3405C62.208 16.2973 62.3376 16.2541 62.4672 16.2109C62.5104 16.1245 62.5536 16.0381 62.5968 15.9517C62.6832 15.9517 62.7696 15.9517 62.856 15.9517C62.8992 15.8653 62.9424 15.7789 62.9856 15.6925C63.072 15.6925 63.1584 15.6925 63.2448 15.6925C63.3312 15.5629 63.4176 15.4333 63.504 15.3037C63.5904 15.3037 63.6768 15.3037 63.7632 15.3037C63.8064 15.2173 63.8496 15.1309 63.8928 15.0445C64.0224 14.9581 64.152 14.8717 64.2816 14.7853C64.2816 14.7421 64.2816 14.6989 64.2816 14.6557C64.368 14.6557 64.4544 14.6557 64.5408 14.6557C64.7136 14.4397 64.8864 14.2237 65.0592 14.0077C65.1456 14.0077 65.232 14.0077 65.3184 14.0077C65.664 13.6189 66.0096 13.2301 66.3552 12.8413C66.5712 12.6685 66.7872 12.4957 67.0032 12.3229C67.0032 12.2365 67.0032 12.1501 67.0032 12.0637C67.176 11.9341 67.3488 11.8045 67.5216 11.6749C67.5216 11.5885 67.5216 11.5021 67.5216 11.4157C67.6944 11.2861 67.8672 11.1565 68.04 11.0269C68.04 10.9405 68.04 10.8541 68.04 10.7677C68.2128 10.6381 68.3856 10.5085 68.5584 10.3789C68.6016 10.2493 68.6448 10.1197 68.688 9.9901C68.7744 9.9469 68.8608 9.9037 68.9472 9.8605C68.9472 9.7741 68.9472 9.6877 68.9472 9.6013C69.12 9.4717 69.2928 9.3421 69.4656 9.2125C69.4656 9.1261 69.4656 9.0397 69.4656 8.9533C69.5952 8.8669 69.7248 8.7805 69.8544 8.6941C70.173 8.2459 70.0488 8.0191 70.7616 7.9165C70.9344 8.2621 71.1072 8.6077 71.28 8.9533Z" fill="#3C4043"/>
</g>
<defs>
<clipPath id="clip0_127_54">
<rect width="142.889" height="53.73" fill="white"/>
</clipPath>
</defs>
</svg>
