<svg width="112" height="42" viewBox="0 0 112 42" fill="none" xmlns="http://www.w3.org/2000/svg">
<g opacity="0.2" clip-path="url(#clip0_127_51)">
<path fill-rule="evenodd" clip-rule="evenodd" d="M85.9139 1.97093C86.0084 2.33543 86.049 2.37593 86.238 2.61893C86.292 2.61893 86.3459 2.61893 86.4 2.61893C86.4 2.72693 86.4 2.83493 86.4 2.94293C86.5079 2.99693 86.6159 3.05093 86.7239 3.10493C86.7239 3.21293 86.7239 3.32093 86.7239 3.42893C86.7779 3.42893 86.832 3.42893 86.886 3.42893C86.886 3.53693 86.886 3.64493 86.886 3.75293C86.94 3.75293 86.994 3.75293 87.048 3.75293C87.048 3.91493 87.048 4.07693 87.048 4.23893C87.102 4.23893 87.1559 4.23893 87.2099 4.23893C87.2099 4.56293 87.2099 4.88693 87.2099 5.21093C87.6284 6.73643 86.0017 8.14043 85.59 9.42292C85.2727 10.4219 85.8802 12.6832 86.0759 13.3109C86.1839 14.0129 86.292 14.7149 86.4 15.4169C86.454 15.4169 86.508 15.4169 86.562 15.4169C86.67 15.7409 86.778 16.0649 86.886 16.3889C86.94 16.3889 86.994 16.3889 87.048 16.3889C87.048 16.4969 87.048 16.6049 87.048 16.7129C87.372 16.9829 87.6959 17.2529 88.0199 17.5229C88.1279 17.6849 88.236 17.8469 88.344 18.0089C88.452 18.0089 88.5599 18.0089 88.6679 18.0089C88.6679 18.0629 88.6679 18.1169 88.6679 18.1709C88.992 18.2789 89.316 18.3869 89.64 18.4949C89.64 18.5489 89.64 18.6029 89.64 18.6569C90.126 18.7109 90.612 18.7649 91.098 18.8189C91.098 18.8729 91.098 18.9269 91.098 18.9809C91.368 18.9809 91.638 18.9809 91.908 18.9809C91.908 19.0349 91.908 19.0889 91.908 19.1429C93.69 19.1429 95.472 19.1429 97.254 19.1429C98.5095 19.4939 100.271 19.4737 101.952 19.4669C102.269 18.9809 102.411 19.3117 102.6 18.6569C102.654 18.6569 102.708 18.6569 102.762 18.6569C102.762 18.4949 102.762 18.3329 102.762 18.1709C102.418 17.9009 102.37 17.5634 102.114 17.1989C101.952 17.0909 101.79 16.9829 101.628 16.8749C101.574 16.6049 101.52 16.3349 101.466 16.0649C101.054 14.9714 101.027 14.2424 101.466 13.1489C101.466 12.9869 101.466 12.8249 101.466 12.6629C101.574 12.6089 101.682 12.5549 101.79 12.5009C101.79 12.3929 101.79 12.2849 101.79 12.1769C102.222 11.7989 102.654 11.4209 103.086 11.0429C103.248 11.0429 103.41 11.0429 103.572 11.0429C103.909 10.9079 104.908 10.3814 105.516 10.5569C105.516 10.6109 105.516 10.6649 105.516 10.7189C105.732 10.7189 105.948 10.7189 106.164 10.7189C106.164 10.7729 106.164 10.8269 106.164 10.8809C106.326 10.8809 106.488 10.8809 106.65 10.8809C106.65 10.9349 106.65 10.9889 106.65 11.0429C106.758 11.0429 106.866 11.0429 106.974 11.0429C107.406 11.3669 107.838 11.6909 108.27 12.0149C108.533 12.3862 108.574 12.8452 108.918 13.1489C108.972 13.9049 109.026 14.6609 109.08 15.4169C108.655 16.8344 107.764 17.9414 106.488 18.4949C106.326 18.4949 106.164 18.4949 106.002 18.4949C104.902 18.8999 103.747 18.7312 103.41 19.9529C103.126 20.2702 103.248 20.8844 103.41 21.2489C103.464 21.2489 103.518 21.2489 103.572 21.2489C103.572 21.4109 103.572 21.5729 103.572 21.7349C103.626 21.7349 103.68 21.7349 103.734 21.7349C103.788 22.2749 103.842 22.8149 103.896 23.3549C103.842 24.8129 103.788 26.2709 103.734 27.7289C103.612 28.1677 103.16 30.3007 103.41 30.9689C103.464 30.9689 103.518 30.9689 103.572 30.9689C103.572 31.0769 103.572 31.1849 103.572 31.2929C103.626 31.2929 103.68 31.2929 103.734 31.2929C104.044 31.8532 104.159 32.2717 104.706 32.5889C105.475 33.3179 106.454 32.1907 107.784 32.5889C107.784 32.6429 107.784 32.6969 107.784 32.7509C108 32.7509 108.216 32.7509 108.432 32.7509C108.432 32.8049 108.432 32.8589 108.432 32.9129C108.756 33.0209 109.08 33.1289 109.404 33.2369C109.62 33.5069 109.836 33.7769 110.052 34.0469C110.16 34.1009 110.268 34.1549 110.376 34.2089C110.376 34.3169 110.376 34.4249 110.376 34.5329C110.43 34.5329 110.484 34.5329 110.538 34.5329C110.727 34.8637 110.538 34.8974 110.862 35.1809C110.896 36.1192 111.28 37.4894 110.7 38.0969C110.511 38.8732 109.512 39.8114 108.918 40.2029C108.81 40.2029 108.702 40.2029 108.594 40.2029C108.54 40.3109 108.486 40.4189 108.432 40.5269C108.324 40.5269 108.216 40.5269 108.108 40.5269C107.838 40.8509 107.568 41.1749 107.298 41.4989C107.136 41.4989 106.974 41.4989 106.812 41.4989C106.812 41.5529 106.812 41.6069 106.812 41.6609C106.38 41.6609 105.948 41.6609 105.516 41.6609C105.293 41.2357 105.232 41.3842 105.192 40.6889C105.01 40.5067 105.124 40.6889 105.03 40.3649C104.483 40.3919 104.2 40.4392 103.896 40.6889C103.842 40.7969 103.788 40.9049 103.734 41.0129C103.626 41.0129 103.518 41.0129 103.41 41.0129C102.755 41.3842 102.883 41.4719 101.79 41.4989C101.608 41.3167 101.79 41.4314 101.466 41.3369C101.122 39.6022 99.5962 39.2444 99.0359 37.7729C99.0359 37.5029 99.0359 37.2329 99.0359 36.9629C98.982 36.9629 98.9279 36.9629 98.8739 36.9629C98.9279 36.3689 98.982 35.7749 99.0359 35.1809C99.09 35.1809 99.144 35.1809 99.198 35.1809C99.198 35.0729 99.198 34.9649 99.198 34.8569C99.252 34.8569 99.3059 34.8569 99.3599 34.8569C99.3599 34.5329 99.3599 34.2089 99.3599 33.8849C98.8739 33.5677 99.2857 33.7364 99.0359 33.3989C98.6579 33.0749 98.2799 32.7509 97.9019 32.4269C97.9019 32.3189 97.9019 32.2109 97.9019 32.1029C97.7939 32.0489 97.6859 31.9949 97.5779 31.9409C97.5239 31.5629 97.47 31.1849 97.416 30.8069C97.362 30.8069 97.308 30.8069 97.254 30.8069C97.254 30.2129 97.254 29.6189 97.254 29.0249C97.308 29.0249 97.362 29.0249 97.416 29.0249C97.659 28.1407 97.2944 27.0944 97.0919 26.5949C96.3359 26.3384 95.6137 26.3384 95.148 25.7849C94.2705 25.9267 93.3592 26.3317 92.718 26.7569C92.6639 26.8649 92.6099 26.9729 92.5559 27.0809C92.4479 27.0809 92.3399 27.0809 92.2319 27.0809C92.1779 27.1889 92.1239 27.2969 92.0699 27.4049C91.9619 27.4049 91.8539 27.4049 91.7459 27.4049C91.7459 27.4589 91.7459 27.5129 91.7459 27.5669C91.5839 27.6209 91.4219 27.6749 91.2599 27.7289C91.2059 27.8369 91.152 27.9449 91.098 28.0529C90.99 28.0529 90.8819 28.0529 90.7739 28.0529C90.6659 28.2149 90.5579 28.3769 90.4499 28.5389C90.3419 28.5389 90.234 28.5389 90.126 28.5389C90.072 28.6469 90.0179 28.7549 89.9639 28.8629C89.8559 28.8629 89.748 28.8629 89.64 28.8629C89.586 28.9709 89.5319 29.0789 89.4779 29.1869C89.2619 29.2409 89.046 29.2949 88.83 29.3489C88.83 29.4029 88.83 29.4569 88.83 29.5109C88.614 29.5649 88.3979 29.6189 88.1819 29.6729C88.1819 29.7269 88.1819 29.7809 88.1819 29.8349C88.0199 29.8349 87.8579 29.8349 87.6959 29.8349C87.6959 29.8889 87.6959 29.9429 87.6959 29.9969C87.5339 29.9969 87.3719 29.9969 87.2099 29.9969C87.2099 30.0509 87.2099 30.1049 87.2099 30.1589C87.0479 30.1589 86.8859 30.1589 86.7239 30.1589C86.7239 30.2129 86.7239 30.2669 86.7239 30.3209C86.5619 30.3209 86.4 30.3209 86.238 30.3209C86.238 30.3749 86.238 30.4289 86.238 30.4829C85.5832 30.6989 85.2254 30.3547 84.7799 30.8069C84.3074 31.2052 84.2737 31.8464 84.2939 32.7509C84.6179 33.0277 84.4357 33.1357 84.618 33.3989L84.9419 33.7229C85.0499 33.7229 85.1579 33.7229 85.266 33.7229C85.266 33.7769 85.266 33.8309 85.266 33.8849C85.4279 33.9929 85.59 34.1009 85.752 34.2089C85.752 34.3169 85.752 34.4249 85.752 34.5329C85.914 34.6409 86.076 34.7489 86.238 34.8569C86.292 35.1809 86.3459 35.5049 86.4 35.8289C86.454 35.8289 86.508 35.8289 86.562 35.8289C86.8995 36.8617 86.3594 38.6032 85.9139 39.2309C85.6979 39.3929 85.4819 39.5549 85.266 39.7169C85.212 39.8249 85.158 39.9329 85.104 40.0409C84.996 40.0409 84.8879 40.0409 84.7799 40.0409C84.7259 40.1489 84.672 40.2569 84.618 40.3649C84.51 40.3649 84.4019 40.3649 84.2939 40.3649C84.2939 40.4189 84.2939 40.4729 84.2939 40.5269C84.1859 40.5269 84.078 40.5269 83.97 40.5269L83.6459 40.8509C83.5379 40.8509 83.43 40.8509 83.322 40.8509C83.214 41.0129 83.1059 41.1749 82.9979 41.3369C82.728 41.3909 82.458 41.4449 82.188 41.4989C82.188 41.5529 82.188 41.6069 82.188 41.6609C81.4657 41.8972 80.271 41.5934 79.758 41.4989C79.6432 41.2019 79.596 40.4594 79.434 40.2029C79.164 39.9869 78.894 39.7709 78.624 39.5549C78.2325 38.9947 77.3954 36.9562 77.8139 35.6669C77.8679 35.6669 77.9219 35.6669 77.9759 35.6669C77.9759 35.5049 77.9759 35.3429 77.9759 35.1809C78.0299 35.1809 78.084 35.1809 78.138 35.1809C78.138 35.0729 78.138 34.9649 78.138 34.8569C78.192 34.8569 78.246 34.8569 78.3 34.8569C78.3 34.7489 78.3 34.6409 78.3 34.5329C78.354 34.5329 78.4079 34.5329 78.4619 34.5329C78.6509 34.2899 78.6847 34.2494 78.786 33.8849C78.894 33.8849 79.0019 33.8849 79.1099 33.8849C79.2179 33.7229 79.326 33.5609 79.434 33.3989C79.542 33.3989 79.65 33.3989 79.758 33.3989C80.028 33.0749 80.298 32.7509 80.568 32.4269C80.5747 31.4077 80.7232 30.1387 80.406 29.3489C80.352 29.3489 80.2979 29.3489 80.2439 29.3489C80.1899 29.1329 80.136 28.9169 80.082 28.7009C79.974 28.6469 79.866 28.5929 79.758 28.5389C79.758 28.4309 79.758 28.3229 79.758 28.2149C79.596 28.1069 79.434 27.9989 79.272 27.8909C79.272 27.7829 79.272 27.6749 79.272 27.5669C79.164 27.5129 79.056 27.4589 78.948 27.4049C78.948 27.2969 78.948 27.1889 78.948 27.0809C78.8399 27.0269 78.732 26.9729 78.624 26.9189C78.624 26.8109 78.624 26.7029 78.624 26.5949C78.57 26.5949 78.5159 26.5949 78.4619 26.5949C78.4079 26.3789 78.354 26.1629 78.3 25.9469C78.246 25.9469 78.192 25.9469 78.138 25.9469C77.706 24.9479 78.3202 23.4089 77.9759 22.2209C77.9219 22.2209 77.8679 22.2209 77.8139 22.2209C77.7599 21.7889 77.706 21.3569 77.652 20.9249C77.598 20.9249 77.544 20.9249 77.49 20.9249C77.436 20.7089 77.3819 20.4929 77.3279 20.2769C77.2739 20.2769 77.22 20.2769 77.166 20.2769C77.166 20.1149 77.166 19.9529 77.166 19.7909C77.112 19.7909 77.058 19.7909 77.004 19.7909C76.7272 18.9404 77.1524 17.8334 77.3279 17.3609C77.4899 16.6589 77.6519 15.9569 77.8139 15.2549C77.8679 15.2549 77.9219 15.2549 77.9759 15.2549C77.9759 15.1469 77.9759 15.0389 77.9759 14.9309C78.0299 14.9309 78.084 14.9309 78.138 14.9309C78.4147 14.2627 78.2527 13.4594 78.138 12.8249C77.868 12.7709 77.5979 12.7169 77.3279 12.6629C77.3279 12.6089 77.3279 12.5549 77.3279 12.5009C76.8419 12.4469 76.356 12.3929 75.87 12.3389C75.87 12.2849 75.87 12.2309 75.87 12.1769C75.546 12.1769 75.222 12.1769 74.898 12.1769C74.898 12.1229 74.898 12.0689 74.898 12.0149C74.25 11.9609 73.602 11.9069 72.954 11.8529C72.954 11.7989 72.954 11.7449 72.954 11.6909C72.792 11.6909 72.63 11.6909 72.468 11.6909C72.468 11.6369 72.468 11.5829 72.468 11.5289C72.306 11.5289 72.144 11.5289 71.982 11.5289C71.982 11.4749 71.982 11.4209 71.982 11.3669C71.874 11.3669 71.766 11.3669 71.658 11.3669C71.658 11.3129 71.658 11.2589 71.658 11.2049C71.55 11.2049 71.442 11.2049 71.334 11.2049C71.28 11.0969 71.226 10.9889 71.172 10.8809C71.064 10.8809 70.956 10.8809 70.848 10.8809C70.794 10.7729 70.74 10.6649 70.686 10.5569C70.632 10.5569 70.578 10.5569 70.524 10.5569C70.524 10.4489 70.524 10.3409 70.524 10.2329C70.416 10.1789 70.308 10.1249 70.2 10.0709C70.2 9.69293 70.2 9.31493 70.2 8.93692C70.3822 8.84243 70.4565 8.65343 70.524 8.61293C70.632 8.61293 70.74 8.61293 70.848 8.61293C70.848 8.55893 70.848 8.50493 70.848 8.45093C71.388 8.45093 71.928 8.45093 72.468 8.45093C73.5075 8.16068 74.7967 8.12693 76.1939 8.12693C76.3492 7.83668 76.4167 7.87043 76.518 7.47893C75.978 7.04693 75.438 6.61493 74.898 6.18293C74.709 5.91293 74.898 5.81168 74.574 5.53493C74.5402 4.69118 74.3445 4.30643 74.574 3.59093C74.574 3.37493 74.574 3.15893 74.574 2.94293C75.2692 1.22843 78.867 -0.594074 81.54 0.188926C81.864 0.188926 82.1879 0.188926 82.5119 0.188926C82.5119 0.242926 82.5119 0.296926 82.5119 0.350926C82.6739 0.350926 82.8359 0.350926 82.9979 0.350926C82.9979 0.404926 82.9979 0.458926 82.9979 0.512926C83.1599 0.512926 83.322 0.512926 83.484 0.512926C83.484 0.566926 83.484 0.620926 83.484 0.674926C83.646 0.674926 83.808 0.674926 83.97 0.674926C83.97 0.728926 83.97 0.782926 83.97 0.836926C84.078 0.836926 84.1859 0.836926 84.2939 0.836926C84.2939 0.890926 84.2939 0.944926 84.2939 0.998926C84.4019 0.998926 84.51 0.998926 84.618 0.998926C84.672 1.10693 84.7259 1.21493 84.7799 1.32293C84.8879 1.32293 84.996 1.32293 85.104 1.32293C85.104 1.37693 85.104 1.43093 85.104 1.48493C85.3875 1.71443 85.4954 1.84943 85.9139 1.97093Z" fill="#3C4043"/>
<path fill-rule="evenodd" clip-rule="evenodd" d="M20.952 27.0809C20.8777 27.5804 20.7562 28.0394 20.952 28.7009C21.006 28.7009 21.06 28.7009 21.114 28.7009C21.114 29.0249 21.114 29.3489 21.114 29.6729C21.168 29.6729 21.222 29.6729 21.276 29.6729C21.276 29.9969 21.276 30.3209 21.276 30.6449C21.33 30.6449 21.384 30.6449 21.438 30.6449C21.492 31.2929 21.546 31.9409 21.6 32.5889C21.654 32.5889 21.708 32.5889 21.762 32.5889C22.0185 33.5069 21.465 35.8222 21.276 36.4769C21.276 36.9089 21.276 37.3409 21.276 37.7729C21.222 37.7729 21.168 37.7729 21.114 37.7729C21.114 37.9889 21.114 38.2049 21.114 38.4209C21.06 38.4209 21.006 38.4209 20.952 38.4209C20.952 38.5289 20.952 38.6369 20.952 38.7449C20.898 38.7449 20.844 38.7449 20.79 38.7449C20.79 38.8529 20.79 38.9609 20.79 39.0689C20.736 39.0689 20.682 39.0689 20.628 39.0689C20.628 39.2309 20.628 39.3929 20.628 39.5549C20.52 39.6089 20.412 39.6629 20.304 39.7169C20.304 39.8249 20.304 39.9329 20.304 40.0409C20.25 40.0409 20.196 40.0409 20.142 40.0409C19.9192 40.2839 20.061 40.2569 19.656 40.3649C19.656 40.4189 19.656 40.4729 19.656 40.5269C19.548 40.5269 19.44 40.5269 19.332 40.5269C19.332 40.5809 19.332 40.6349 19.332 40.6889C18.9067 40.8577 16.2472 40.6687 16.092 40.5269C15.3765 40.3649 15.255 39.9802 15.282 39.0689C16.0987 38.5964 16.4902 37.7189 17.55 37.4489C17.55 37.3409 17.55 37.2329 17.55 37.1249C17.658 37.0709 17.766 37.0169 17.874 36.9629C17.874 36.7469 17.874 36.5309 17.874 36.3149C17.928 36.3149 17.982 36.3149 18.036 36.3149C18.036 36.0449 18.036 35.7749 18.036 35.5049C18.09 35.5049 18.144 35.5049 18.198 35.5049C18.3667 34.9177 18.144 33.8984 18.036 33.5609C18.036 33.3449 18.036 33.1289 18.036 32.9129C17.5905 31.6777 16.956 30.3479 16.416 29.1869C16.254 29.1869 16.092 29.1869 15.93 29.1869C15.876 30.0442 15.5047 30.7664 15.282 31.4549C15.174 32.3189 15.066 33.1829 14.958 34.0469C14.904 34.0469 14.85 34.0469 14.796 34.0469C14.796 34.2089 14.796 34.3709 14.796 34.5329C14.742 34.5329 14.688 34.5329 14.634 34.5329C14.634 34.6409 14.634 34.7489 14.634 34.8569C14.58 34.8569 14.526 34.8569 14.472 34.8569C14.418 35.0729 14.364 35.2889 14.31 35.5049C14.256 35.5049 14.202 35.5049 14.148 35.5049C14.094 35.7209 14.04 35.9369 13.986 36.1529C13.932 36.1529 13.878 36.1529 13.824 36.1529C13.824 36.2609 13.824 36.3689 13.824 36.4769C13.77 36.4769 13.716 36.4769 13.662 36.4769C13.662 36.5849 13.662 36.6929 13.662 36.8009C13.608 36.8009 13.554 36.8009 13.5 36.8009C13.5 36.9089 13.5 37.0169 13.5 37.1249C13.446 37.1249 13.392 37.1249 13.338 37.1249C13.338 37.2329 13.338 37.3409 13.338 37.4489C13.284 37.4489 13.23 37.4489 13.176 37.4489C13.176 37.5569 13.176 37.6649 13.176 37.7729C13.122 37.7729 13.068 37.7729 13.014 37.7729C13.014 37.8809 13.014 37.9889 13.014 38.0969C12.96 38.0969 12.906 38.0969 12.852 38.0969C12.852 38.2049 12.852 38.3129 12.852 38.4209L12.528 38.7449C12.528 38.8529 12.528 38.9609 12.528 39.0689C12.42 39.1229 12.312 39.1769 12.204 39.2309C12.15 39.3929 12.096 39.5549 12.042 39.7169C11.934 39.7169 11.826 39.7169 11.718 39.7169C11.4345 40.0477 9.63898 40.4729 8.80198 40.2029C8.80198 40.1489 8.80198 40.0949 8.80198 40.0409C8.53198 39.9869 8.26198 39.9329 7.99198 39.8789C7.93798 39.3389 7.88398 38.7989 7.82998 38.2589C7.93798 38.2049 8.04598 38.1509 8.15398 38.0969C8.15398 37.9889 8.15398 37.8809 8.15398 37.7729C8.26198 37.7729 8.36998 37.7729 8.47798 37.7729C8.74123 37.3814 8.60623 37.6717 8.96398 37.4489C8.96398 37.3949 8.96398 37.3409 8.96398 37.2869C9.07198 37.2869 9.17998 37.2869 9.28798 37.2869C9.34198 37.1789 9.39598 37.0709 9.44998 36.9629C9.71998 36.7469 9.98998 36.5309 10.26 36.3149C10.314 36.0989 10.368 35.8829 10.422 35.6669C10.476 35.6669 10.53 35.6669 10.584 35.6669C10.584 35.5589 10.584 35.4509 10.584 35.3429C10.638 35.3429 10.692 35.3429 10.746 35.3429C10.854 35.0189 10.962 34.6949 11.07 34.3709C11.124 34.3709 11.178 34.3709 11.232 34.3709C11.286 34.0469 11.34 33.7229 11.394 33.3989C11.448 33.3989 11.502 33.3989 11.556 33.3989C11.556 33.0209 11.556 32.6429 11.556 32.2649C11.907 31.0027 11.718 28.9439 11.718 27.4049C11.718 25.6027 12.1905 23.2604 11.718 21.5729C11.4007 20.4524 11.9407 19.1227 11.556 18.1709C11.502 18.1709 11.448 18.1709 11.394 18.1709C11.34 17.9549 11.286 17.7389 11.232 17.5229C11.178 17.5229 11.124 17.5229 11.07 17.5229C11.016 17.3069 10.962 17.0909 10.908 16.8749C10.8 16.8209 10.692 16.7669 10.584 16.7129C10.53 16.4969 10.476 16.2809 10.422 16.0649C10.314 16.0109 10.206 15.9569 10.098 15.9029C10.044 15.6869 9.98998 15.4709 9.93598 15.2549C9.82798 15.2009 9.71998 15.1469 9.61198 15.0929C9.01798 14.1952 8.59948 12.5009 7.34398 12.3389C6.59473 11.7044 3.76648 12.5414 2.64598 12.1769C2.64598 12.1229 2.64598 12.0689 2.64598 12.0149C2.48398 12.0149 2.32198 12.0149 2.15998 12.0149C2.15998 11.9609 2.15998 11.9069 2.15998 11.8529C2.05198 11.8529 1.94398 11.8529 1.83598 11.8529C1.78198 11.7449 1.72798 11.6369 1.67398 11.5289C1.56598 11.5289 1.45798 11.5289 1.34998 11.5289C1.02598 10.9889 0.701983 10.4489 0.377983 9.9089C0.377983 9.7469 0.377983 9.5849 0.377983 9.4229C0.323983 9.4229 0.269983 9.4229 0.215983 9.4229C0.215983 9.1529 0.215983 8.8829 0.215983 8.6129C0.148483 8.39015 -0.108017 7.62065 0.0539833 7.1549C0.107983 7.1549 0.161983 7.1549 0.215983 7.1549C0.269983 6.9389 0.323983 6.7229 0.377983 6.5069C1.78198 5.9669 3.18598 5.4269 4.58998 4.8869C4.85998 4.5629 5.12998 4.2389 5.39998 3.9149C5.39998 3.8069 5.39998 3.6989 5.39998 3.5909C5.45398 3.5909 5.50798 3.5909 5.56198 3.5909C5.56198 3.4829 5.56198 3.3749 5.56198 3.2669C5.61598 3.2669 5.66998 3.2669 5.72398 3.2669C5.72398 3.1589 5.72398 3.0509 5.72398 2.9429C5.77798 2.9429 5.83198 2.9429 5.88598 2.9429C5.88598 2.8349 5.88598 2.7269 5.88598 2.6189C6.60148 1.55915 10.8 0.269901 12.852 0.998901C12.852 1.0529 12.852 1.1069 12.852 1.1609C13.014 1.1609 13.176 1.1609 13.338 1.1609C13.338 1.2149 13.338 1.2689 13.338 1.3229C13.446 1.3229 13.554 1.3229 13.662 1.3229C13.662 1.3769 13.662 1.4309 13.662 1.4849C13.878 1.5389 14.094 1.5929 14.31 1.6469C14.364 1.7549 14.418 1.8629 14.472 1.9709C14.58 1.9709 14.688 1.9709 14.796 1.9709C15.174 2.5649 15.552 3.1589 15.93 3.7529C15.93 3.9149 15.93 4.0769 15.93 4.2389C15.984 4.2389 16.038 4.2389 16.092 4.2389C16.092 4.3469 16.092 4.4549 16.092 4.5629C16.146 4.5629 16.2 4.5629 16.254 4.5629C16.362 5.0489 16.47 5.5349 16.578 6.0209C16.632 6.0209 16.686 6.0209 16.74 6.0209C16.74 6.1289 16.74 6.2369 16.74 6.3449C16.794 6.3449 16.848 6.3449 16.902 6.3449C17.01 6.6689 17.118 6.9929 17.226 7.3169C17.82 7.8569 18.414 8.3969 19.008 8.9369C19.17 9.1529 19.332 9.3689 19.494 9.5849C19.602 9.5849 19.71 9.5849 19.818 9.5849C19.872 9.6929 19.926 9.8009 19.98 9.9089C20.466 10.0169 20.952 10.1249 21.438 10.2329C21.438 10.2869 21.438 10.3409 21.438 10.3949C21.6 10.3949 21.762 10.3949 21.924 10.3949C21.924 10.4489 21.924 10.5029 21.924 10.5569C22.14 10.5569 22.356 10.5569 22.572 10.5569C24.5902 11.2724 26.9527 11.8934 29.052 12.5009C30.618 12.5549 32.184 12.6089 33.75 12.6629C33.75 12.7169 33.75 12.7709 33.75 12.8249C34.236 12.8249 34.722 12.8249 35.208 12.8249C35.208 12.8789 35.208 12.9329 35.208 12.9869C35.586 12.9869 35.964 12.9869 36.342 12.9869C36.342 13.0409 36.342 13.0949 36.342 13.1489C36.936 13.1489 37.53 13.1489 38.124 13.1489C38.124 13.2029 38.124 13.2569 38.124 13.3109C38.772 13.3109 39.42 13.3109 40.068 13.3109C40.068 13.3649 40.068 13.4189 40.068 13.4729C40.5472 13.6079 42.3022 13.6417 42.498 13.4729C43.227 13.2704 43.5105 12.8114 43.956 12.3389C44.064 12.2849 44.172 12.2309 44.28 12.1769C44.28 12.0689 44.28 11.9609 44.28 11.8529C44.604 11.5829 44.928 11.3129 45.252 11.0429C45.306 10.8809 45.36 10.7189 45.414 10.5569C45.522 10.5029 45.63 10.4489 45.738 10.3949C45.738 10.2869 45.738 10.1789 45.738 10.0709C45.846 10.0169 45.954 9.9629 46.062 9.9089C46.116 9.6929 46.17 9.4769 46.224 9.2609C46.278 9.2609 46.332 9.2609 46.386 9.2609C46.386 9.1529 46.386 9.0449 46.386 8.9369C46.44 8.9369 46.494 8.9369 46.548 8.9369C46.548 8.8289 46.548 8.7209 46.548 8.6129C46.602 8.6129 46.656 8.6129 46.71 8.6129C46.71 8.5049 46.71 8.3969 46.71 8.2889C46.764 8.2889 46.818 8.2889 46.872 8.2889C46.872 8.1809 46.872 8.0729 46.872 7.9649C46.926 7.9649 46.98 7.9649 47.034 7.9649C47.088 7.7489 47.142 7.5329 47.196 7.3169C47.25 7.3169 47.304 7.3169 47.358 7.3169C47.412 7.1009 47.466 6.8849 47.52 6.6689C47.628 6.6149 47.736 6.5609 47.844 6.5069C47.898 6.1829 47.952 5.8589 48.006 5.5349C48.06 5.5349 48.114 5.5349 48.168 5.5349C48.168 5.3729 48.168 5.2109 48.168 5.0489C48.222 5.0489 48.276 5.0489 48.33 5.0489C48.33 4.9409 48.33 4.8329 48.33 4.7249C48.384 4.7249 48.438 4.7249 48.492 4.7249C48.492 4.5629 48.492 4.4009 48.492 4.2389C48.546 4.2389 48.6 4.2389 48.654 4.2389C48.654 4.0229 48.654 3.8069 48.654 3.5909C48.708 3.5909 48.762 3.5909 48.816 3.5909C48.9982 3.1184 48.7822 3.1049 49.14 2.7809C49.14 2.7269 49.14 2.6729 49.14 2.6189C49.302 2.6189 49.464 2.6189 49.626 2.6189C49.68 2.7809 49.734 2.9429 49.788 3.1049C50.2065 3.55715 49.7677 5.3729 49.626 5.8589C49.626 6.2909 49.626 6.7229 49.626 7.1549C49.572 7.1549 49.518 7.1549 49.464 7.1549C49.464 7.3709 49.464 7.5869 49.464 7.8029C49.41 7.8029 49.356 7.8029 49.302 7.8029C49.248 8.1269 49.194 8.4509 49.14 8.7749C49.086 8.7749 49.032 8.7749 48.978 8.7749C48.978 8.8829 48.978 8.9909 48.978 9.0989C48.924 9.0989 48.87 9.0989 48.816 9.0989C48.762 9.4229 48.708 9.7469 48.654 10.0709C48.6 10.0709 48.546 10.0709 48.492 10.0709C48.384 10.3949 48.276 10.7189 48.168 11.0429C48.114 11.0429 48.06 11.0429 48.006 11.0429C48.006 11.1509 48.006 11.2589 48.006 11.3669C47.952 11.3669 47.898 11.3669 47.844 11.3669C47.79 11.5829 47.736 11.7989 47.682 12.0149C47.574 12.0689 47.466 12.1229 47.358 12.1769C47.25 12.5009 47.142 12.8249 47.034 13.1489C46.926 13.2029 46.818 13.2569 46.71 13.3109C46.71 13.4189 46.71 13.5269 46.71 13.6349C46.602 13.6889 46.494 13.7429 46.386 13.7969C46.386 13.9049 46.386 14.0129 46.386 14.1209C46.278 14.1749 46.17 14.2289 46.062 14.2829C46.062 14.3909 46.062 14.4989 46.062 14.6069C45.954 14.6609 45.846 14.7149 45.738 14.7689C45.738 14.8769 45.738 14.9849 45.738 15.0929C45.576 15.2009 45.414 15.3089 45.252 15.4169C45.0022 15.7949 44.9752 16.1527 44.928 16.7129C44.982 16.7129 45.036 16.7129 45.09 16.7129C45.144 17.0369 45.198 17.3609 45.252 17.6849C45.306 17.6849 45.36 17.6849 45.414 17.6849C45.414 17.9009 45.414 18.1169 45.414 18.3329C45.468 18.3329 45.522 18.3329 45.576 18.3329C45.576 18.7109 45.576 19.0889 45.576 19.4669C45.846 21.0329 46.116 22.5989 46.386 24.1649C46.44 24.1649 46.494 24.1649 46.548 24.1649C46.656 24.6509 46.764 25.1369 46.872 25.6229C46.926 25.6229 46.98 25.6229 47.034 25.6229C47.142 25.9469 47.25 26.2709 47.358 26.5949C47.412 26.5949 47.466 26.5949 47.52 26.5949C47.52 26.7029 47.52 26.8109 47.52 26.9189C47.574 26.9189 47.628 26.9189 47.682 26.9189C47.736 27.1349 47.79 27.3509 47.844 27.5669C47.952 27.6209 48.06 27.6749 48.168 27.7289C48.168 27.8369 48.168 27.9449 48.168 28.0529C48.384 28.2149 48.6 28.3769 48.816 28.5389C48.816 28.6469 48.816 28.7549 48.816 28.8629C49.302 29.2949 49.788 29.7269 50.274 30.1589C50.274 30.2669 50.274 30.3749 50.274 30.4829C50.382 30.5369 50.49 30.5909 50.598 30.6449C50.598 30.7529 50.598 30.8609 50.598 30.9689C50.652 30.9689 50.706 30.9689 50.76 30.9689C50.76 31.0769 50.76 31.1849 50.76 31.2929C50.814 31.2929 50.868 31.2929 50.922 31.2929C50.922 31.4549 50.922 31.6169 50.922 31.7789C50.976 31.7789 51.03 31.7789 51.084 31.7789C51.084 32.0489 51.084 32.3189 51.084 32.5889C51.138 32.5889 51.192 32.5889 51.246 32.5889C51.3 32.9669 51.354 33.3449 51.408 33.7229C51.462 33.7229 51.516 33.7229 51.57 33.7229C51.57 33.8849 51.57 34.0469 51.57 34.2089C51.624 34.2089 51.678 34.2089 51.732 34.2089C51.732 34.4249 51.732 34.6409 51.732 34.8569C51.786 34.8569 51.84 34.8569 51.894 34.8569C51.894 35.0729 51.894 35.2889 51.894 35.5049C52.3665 36.9089 52.8457 38.0902 52.542 39.8789C52.326 40.0409 52.11 40.2029 51.894 40.3649C51.5902 40.6889 51.8062 40.3649 51.408 40.5269C51.408 40.5809 51.408 40.6349 51.408 40.6889C50.49 40.6889 49.572 40.6889 48.654 40.6889C48.654 40.6349 48.654 40.5809 48.654 40.5269C47.9115 40.3514 47.9655 39.8249 48.006 38.9069C48.384 38.6167 48.9577 37.7257 48.654 36.8009C48.6 36.8009 48.546 36.8009 48.492 36.8009C48.492 36.6389 48.492 36.4769 48.492 36.3149C48.438 36.3149 48.384 36.3149 48.33 36.3149C48.33 36.1529 48.33 35.9909 48.33 35.8289C48.276 35.8289 48.222 35.8289 48.168 35.8289C48.114 35.4509 48.06 35.0729 48.006 34.6949C47.952 34.6949 47.898 34.6949 47.844 34.6949C47.844 34.5329 47.844 34.3709 47.844 34.2089C47.79 34.2089 47.736 34.2089 47.682 34.2089C47.682 34.0469 47.682 33.8849 47.682 33.7229C47.358 33.3449 47.034 32.9669 46.71 32.5889C46.602 32.5889 46.494 32.5889 46.386 32.5889C45.9135 32.3122 46.062 32.1299 45.252 32.1029C45.1102 32.4809 45.09 32.8184 45.09 33.3989C45.4815 33.8309 45.2182 34.5059 45.414 35.1809C45.468 35.1809 45.522 35.1809 45.576 35.1809C45.684 36.5849 45.792 37.9889 45.9 39.3929C45.846 39.3929 45.792 39.3929 45.738 39.3929C45.684 39.6089 45.63 39.8249 45.576 40.0409C45.2857 40.1894 44.8132 40.4459 44.604 40.6889C43.9087 40.7092 42.4035 40.8779 42.012 40.5269C41.2965 40.3649 41.175 39.9802 41.202 39.0689C42.4507 38.3332 42.0997 36.8819 41.688 35.5049C41.688 35.1809 41.688 34.8569 41.688 34.5329C41.634 34.5329 41.58 34.5329 41.526 34.5329C41.3235 33.8512 41.5395 33.2707 41.202 32.7509C40.932 32.5349 40.662 32.3189 40.392 32.1029C40.338 31.9949 40.284 31.8869 40.23 31.7789C40.122 31.7789 40.014 31.7789 39.906 31.7789C39.852 31.6709 39.798 31.5629 39.744 31.4549C39.636 31.4549 39.528 31.4549 39.42 31.4549C39.366 31.3469 39.312 31.2389 39.258 31.1309C38.772 30.8609 38.286 30.5909 37.8 30.3209C37.746 30.2129 37.692 30.1049 37.638 29.9969C37.476 29.9429 37.314 29.8889 37.152 29.8349C36.99 29.6189 36.828 29.4029 36.666 29.1869C36.558 29.1869 36.45 29.1869 36.342 29.1869C35.802 28.5389 35.262 27.8909 34.722 27.2429C34.128 27.1349 33.534 27.0269 32.94 26.9189C32.724 26.6489 32.508 26.3789 32.292 26.1089C32.184 26.1089 32.076 26.1089 31.968 26.1089C31.968 26.0549 31.968 26.0009 31.968 25.9469C31.4212 25.7444 29.2612 26.1629 28.89 26.2709C26.244 26.5409 23.598 26.8109 20.952 27.0809Z" fill="#3C4043"/>
</g>
<defs>
<clipPath id="clip0_127_51">
<rect width="111.017" height="41.7487" fill="white"/>
</clipPath>
</defs>
</svg>
