<svg width="115" height="29" viewBox="0 0 115 29" fill="none" xmlns="http://www.w3.org/2000/svg">
<g opacity="0.2" clip-path="url(#clip0_127_48)">
<path fill-rule="evenodd" clip-rule="evenodd" d="M8.64 0.0226131C9.81 0.00761309 11.3625 -0.0673869 12.24 0.202613C12.54 0.202613 12.84 0.202613 13.14 0.202613C13.14 0.262613 13.14 0.322613 13.14 0.382613C13.26 0.382613 13.38 0.382613 13.5 0.382613C13.56 0.502613 13.62 0.622613 13.68 0.742613C13.92 0.802613 14.16 0.862613 14.4 0.922613C14.46 1.04261 14.52 1.16261 14.58 1.28261C14.7 1.28261 14.82 1.28261 14.94 1.28261C15.36 1.82261 15.78 2.36261 16.2 2.90261C16.68 3.32261 17.16 3.74261 17.64 4.16261C17.64 4.28261 17.64 4.40261 17.64 4.52261C17.76 4.58261 17.88 4.64261 18 4.70261C18 4.82261 18 4.94261 18 5.06261C18.12 5.12261 18.24 5.18261 18.36 5.24261C18.36 5.36261 18.36 5.48261 18.36 5.60261C18.48 5.66261 18.6 5.72261 18.72 5.78261C18.72 5.90261 18.72 6.02261 18.72 6.14261C18.84 6.20261 18.96 6.26261 19.08 6.32261C19.08 6.44261 19.08 6.56261 19.08 6.68261C19.2 6.74261 19.32 6.80261 19.44 6.86261C19.62 7.10261 19.8 7.34261 19.98 7.58261C20.1 7.58261 20.22 7.58261 20.34 7.58261C20.34 7.64261 20.34 7.70261 20.34 7.76261C20.46 7.76261 20.58 7.76261 20.7 7.76261C20.7 7.82261 20.7 7.88261 20.7 7.94261C21.12 7.94261 21.54 7.94261 21.96 7.94261C21.96 8.00261 21.96 8.06261 21.96 8.12261C22.08 8.12261 22.2 8.12261 22.32 8.12261C22.32 8.18261 22.32 8.24261 22.32 8.30261C22.44 8.30261 22.56 8.30261 22.68 8.30261C22.74 8.42261 22.8 8.54261 22.86 8.66261C23.4 8.72261 23.94 8.78261 24.48 8.84261C24.48 8.90261 24.48 8.96261 24.48 9.02261C24.6 9.02261 24.72 9.02261 24.84 9.02261C24.84 9.08261 24.84 9.14261 24.84 9.20261C25.38 9.38261 25.92 9.56261 26.46 9.74261C27.12 9.74261 27.78 9.74261 28.44 9.74261C28.44 9.80261 28.44 9.86261 28.44 9.92261C28.62 9.92261 28.8 9.92261 28.98 9.92261C28.98 9.98261 28.98 10.0426 28.98 10.1026C29.16 10.1026 29.34 10.1026 29.52 10.1026C29.52 10.1626 29.52 10.2226 29.52 10.2826C29.7 10.2826 29.88 10.2826 30.06 10.2826C30.06 10.3426 30.06 10.4026 30.06 10.4626C30.96 10.5226 31.86 10.5826 32.76 10.6426C32.76 10.7026 32.76 10.7626 32.76 10.8226C32.94 10.8226 33.12 10.8226 33.3 10.8226C33.3 10.8826 33.3 10.9426 33.3 11.0026C33.54 11.0626 33.78 11.1226 34.02 11.1826C34.02 11.2426 34.02 11.3026 34.02 11.3626C34.56 11.4226 35.1 11.4826 35.64 11.5426C35.64 11.6026 35.64 11.6626 35.64 11.7226C35.88 11.7826 36.12 11.8426 36.36 11.9026C36.36 11.9626 36.36 12.0226 36.36 12.0826C36.48 12.0826 36.6 12.0826 36.72 12.0826C36.72 12.1426 36.72 12.2026 36.72 12.2626C37.14 12.3226 37.56 12.3826 37.98 12.4426C37.98 12.5026 37.98 12.5626 37.98 12.6226C38.1 12.6226 38.22 12.6226 38.34 12.6226C38.4 12.7426 38.46 12.8626 38.52 12.9826C39.06 13.1626 39.6 13.3426 40.14 13.5226C40.98 14.4226 41.82 15.3226 42.66 16.2226C42.72 16.4626 42.78 16.7026 42.84 16.9426C42.96 17.0026 43.08 17.0626 43.2 17.1226C43.2 17.2426 43.2 17.3626 43.2 17.4826C43.26 17.4826 43.32 17.4826 43.38 17.4826C43.38 17.6026 43.38 17.7226 43.38 17.8426C43.44 17.8426 43.5 17.8426 43.56 17.8426C43.56 18.0826 43.56 18.3226 43.56 18.5626C43.62 18.5626 43.68 18.5626 43.74 18.5626C43.8 18.8026 43.86 19.0426 43.92 19.2826C44.04 19.3426 44.16 19.4026 44.28 19.4626C44.34 19.7026 44.4 19.9426 44.46 20.1826C44.52 20.1826 44.58 20.1826 44.64 20.1826C44.7 20.4226 44.76 20.6626 44.82 20.9026C44.94 20.9626 45.06 21.0226 45.18 21.0826C45.18 21.2026 45.18 21.3226 45.18 21.4426C45.3 21.5026 45.42 21.5626 45.54 21.6226C45.78 21.9226 46.02 22.2226 46.26 22.5226C46.38 22.5226 46.5 22.5226 46.62 22.5226C46.62 22.5826 46.62 22.6426 46.62 22.7026C46.74 22.7026 46.86 22.7026 46.98 22.7026C46.98 22.7626 46.98 22.8226 46.98 22.8826C47.16 22.8826 47.34 22.8826 47.52 22.8826C47.52 22.9426 47.52 23.0026 47.52 23.0626C47.64 23.0626 47.76 23.0626 47.88 23.0626C47.94 23.1826 48 23.3026 48.06 23.4226C48.18 23.4226 48.3 23.4226 48.42 23.4226C48.42 23.4826 48.42 23.5426 48.42 23.6026C48.54 23.6026 48.66 23.6026 48.78 23.6026C48.78 23.6626 48.78 23.7226 48.78 23.7826C49.02 23.7826 49.26 23.7826 49.5 23.7826C49.5 23.8426 49.5 23.9026 49.5 23.9626C49.68 23.9626 49.86 23.9626 50.04 23.9626C50.04 24.0226 50.04 24.0826 50.04 24.1426C50.16 24.1426 50.28 24.1426 50.4 24.1426C50.4 24.2026 50.4 24.2626 50.4 24.3226C50.58 24.3226 50.76 24.3226 50.94 24.3226C50.94 24.3826 50.94 24.4426 50.94 24.5026C51.48 24.5026 52.02 24.5026 52.56 24.5026C52.56 24.5626 52.56 24.6226 52.56 24.6826C53.04 24.7426 53.52 24.8026 54 24.8626C54 24.9226 54 24.9826 54 25.0426C54.12 25.0426 54.24 25.0426 54.36 25.0426C54.36 25.1026 54.36 25.1626 54.36 25.2226C54.54 25.2226 54.72 25.2226 54.9 25.2226C54.9 25.2826 54.9 25.3426 54.9 25.4026C55.44 25.4026 55.98 25.4026 56.52 25.4026C56.52 25.4626 56.52 25.5226 56.52 25.5826C57.18 25.5826 57.84 25.5826 58.5 25.5826C58.5 25.6426 58.5 25.7026 58.5 25.7626C58.62 25.7626 58.74 25.7626 58.86 25.7626C58.965 26.0401 58.995 26.0551 59.04 26.4826C58.86 26.5426 58.68 26.6026 58.5 26.6626C57.8925 27.3526 55.1925 27.2026 53.82 27.2026C52.3575 27.2026 51.3225 27.0601 50.22 26.6626C50.22 26.6026 50.22 26.5426 50.22 26.4826C48.84 26.3626 47.46 26.2426 46.08 26.1226C46.08 26.0626 46.08 26.0026 46.08 25.9426C45.84 25.8826 45.6 25.8226 45.36 25.7626C45.3 25.6426 45.24 25.5226 45.18 25.4026C44.55 24.9826 44.0175 24.7276 43.02 24.6826C42.66 25.1026 42.3 25.5226 41.94 25.9426C41.82 25.9426 41.7 25.9426 41.58 25.9426C41.46 26.1226 41.34 26.3026 41.22 26.4826C41.1 26.4826 40.98 26.4826 40.86 26.4826C40.86 26.5426 40.86 26.6026 40.86 26.6626C40.62 26.7226 40.38 26.7826 40.14 26.8426C40.14 26.9026 40.14 26.9626 40.14 27.0226C39.78 27.0226 39.42 27.0226 39.06 27.0226C39.06 27.0826 39.06 27.1426 39.06 27.2026C39 27.2026 38.94 27.2026 38.88 27.2026L38.7 27.0226C38.4 27.0226 38.1 27.0226 37.8 27.0226C37.8 26.9626 37.8 26.9026 37.8 26.8426C37.44 26.7226 37.08 26.6026 36.72 26.4826C36.72 26.4226 36.72 26.3626 36.72 26.3026C36.06 26.3626 35.4 26.4226 34.74 26.4826C34.74 26.5426 34.74 26.6026 34.74 26.6626C34.62 26.6626 34.5 26.6626 34.38 26.6626C34.38 26.7226 34.38 26.7826 34.38 26.8426C33.81 27.0826 31.53 27.4876 30.6 27.2026C30.6 27.1426 30.6 27.0826 30.6 27.0226C30.36 27.0226 30.12 27.0226 29.88 27.0226C29.46 26.7226 29.04 26.4226 28.62 26.1226C28.62 26.0026 28.62 25.8826 28.62 25.7626C28.44 25.6426 28.26 25.5226 28.08 25.4026C28.08 25.2826 28.08 25.1626 28.08 25.0426C27.96 24.9826 27.84 24.9226 27.72 24.8626C27.72 24.8026 27.72 24.7426 27.72 24.6826C27.06 24.2476 25.8825 24.8101 25.02 24.5026C25.02 24.4426 25.02 24.3826 25.02 24.3226C24.78 24.2626 24.54 24.2026 24.3 24.1426C24.3 24.0826 24.3 24.0226 24.3 23.9626C22.8 23.8426 21.3 23.7226 19.8 23.6026C19.8 23.6626 19.8 23.7226 19.8 23.7826C19.485 23.8951 19.3275 23.8651 19.08 23.9626C18.96 24.1426 18.84 24.3226 18.72 24.5026C18.66 24.5026 18.6 24.5026 18.54 24.5026C18.54 24.6226 18.54 24.7426 18.54 24.8626C18.48 24.8626 18.42 24.8626 18.36 24.8626C18.36 25.0426 18.36 25.2226 18.36 25.4026C18.3 25.4026 18.24 25.4026 18.18 25.4026C18.18 25.5826 18.18 25.7626 18.18 25.9426C18.06 26.0026 17.94 26.0626 17.82 26.1226C17.82 26.2426 17.82 26.3626 17.82 26.4826C17.64 26.5426 17.46 26.6026 17.28 26.6626C17.28 26.7226 17.28 26.7826 17.28 26.8426C17.025 27.0151 16.83 27.0001 16.38 27.0226C16.185 27.2026 12.96 27.3826 12.42 27.2026C12.42 27.1426 12.42 27.0826 12.42 27.0226C12.12 26.9626 11.82 26.9026 11.52 26.8426C11.325 26.4001 11.19 26.2651 11.16 25.5826C11.3775 25.4176 11.52 24.9901 11.7 24.8626C11.94 24.8026 12.18 24.7426 12.42 24.6826C12.48 24.5626 12.54 24.4426 12.6 24.3226C12.78 24.2026 12.96 24.0826 13.14 23.9626C13.14 23.2426 13.14 22.5226 13.14 21.8026C13.08 21.8026 13.02 21.8026 12.96 21.8026C12.96 21.6826 12.96 21.5626 12.96 21.4426C12.9 21.4426 12.84 21.4426 12.78 21.4426C12.78 21.3226 12.78 21.2026 12.78 21.0826C12.48 20.8426 12.18 20.6026 11.88 20.3626C11.88 20.2426 11.88 20.1226 11.88 20.0026C11.76 19.9426 11.64 19.8826 11.52 19.8226C11.46 19.2826 11.4 18.7426 11.34 18.2026C11.28 18.2026 11.22 18.2026 11.16 18.2026C11.16 17.9626 11.16 17.7226 11.16 17.4826C11.1 17.4826 11.04 17.4826 10.98 17.4826C10.98 17.3026 10.98 17.1226 10.98 16.9426C10.92 16.9426 10.86 16.9426 10.8 16.9426C10.8 16.7626 10.8 16.5826 10.8 16.4026C10.74 16.4026 10.68 16.4026 10.62 16.4026C10.62 16.1026 10.62 15.8026 10.62 15.5026C10.56 15.5026 10.5 15.5026 10.44 15.5026C10.44 15.3226 10.44 15.1426 10.44 14.9626C10.38 14.9626 10.32 14.9626 10.26 14.9626C10.26 14.7826 10.26 14.6026 10.26 14.4226C10.14 14.3626 10.02 14.3026 9.9 14.2426C9.9 14.1226 9.9 14.0026 9.9 13.8826C9.78 13.8226 9.66 13.7626 9.54 13.7026C9.54 13.5826 9.54 13.4626 9.54 13.3426C9.36 13.2226 9.18 13.1026 9 12.9826C8.94 12.6226 8.88 12.2626 8.82 11.9026C8.76 11.9026 8.7 11.9026 8.64 11.9026C8.64 11.7226 8.64 11.5426 8.64 11.3626C8.52 11.3026 8.4 11.2426 8.28 11.1826C7.77 10.6426 7.9275 10.6426 6.84 10.6426C6.3 11.2801 4.5 11.6701 3.42 11.1826C3.42 11.1226 3.42 11.0626 3.42 11.0026C3.3 11.0026 3.18 11.0026 3.06 11.0026C3 10.8826 2.94 10.7626 2.88 10.6426C2.76 10.6426 2.64 10.6426 2.52 10.6426C2.52 10.5826 2.52 10.5226 2.52 10.4626C2.4 10.4626 2.28 10.4626 2.16 10.4626C2.16 10.4026 2.16 10.3426 2.16 10.2826C2.04 10.2226 1.92 10.1626 1.8 10.1026C1.8 9.98261 1.8 9.86261 1.8 9.74261C1.68 9.68261 1.56 9.62261 1.44 9.56261C1.38 9.32261 1.32 9.08261 1.26 8.84261C0.765 8.06261 0.105 7.75511 0 6.50261C0.06 6.50261 0.12 6.50261 0.18 6.50261C0.18 6.32261 0.18 6.14261 0.18 5.96261C0.24 5.96261 0.3 5.96261 0.36 5.96261C0.36 5.90261 0.36 5.84261 0.36 5.78261C0.585 5.66261 0.6075 5.49761 0.72 5.42261C0.84 5.42261 0.96 5.42261 1.08 5.42261C1.14 5.30261 1.2 5.18261 1.26 5.06261C1.38 5.06261 1.5 5.06261 1.62 5.06261C1.68 4.94261 1.74 4.82261 1.8 4.70261C1.92 4.70261 2.04 4.70261 2.16 4.70261C2.16 4.64261 2.16 4.58261 2.16 4.52261C2.34 4.52261 2.52 4.52261 2.7 4.52261C2.7 4.46261 2.7 4.40261 2.7 4.34261C2.88 4.34261 3.06 4.34261 3.24 4.34261C3.24 4.28261 3.24 4.22261 3.24 4.16261C3.36 4.16261 3.48 4.16261 3.6 4.16261C3.6 4.10261 3.6 4.04261 3.6 3.98261C3.72 3.98261 3.84 3.98261 3.96 3.98261C4.02 3.86261 4.08 3.74261 4.14 3.62261C4.26 3.62261 4.38 3.62261 4.5 3.62261C4.56 3.50261 4.62 3.38261 4.68 3.26261C4.92 3.08261 5.16 2.90261 5.4 2.72261C5.46 2.48261 5.52 2.24261 5.58 2.00261C5.88 1.76261 6.18 1.52261 6.48 1.28261C6.54 1.16261 6.6 1.04261 6.66 0.922613C6.78 0.922613 6.9 0.922613 7.02 0.922613C7.02 0.862613 7.02 0.802613 7.02 0.742613C7.14 0.742613 7.26 0.742613 7.38 0.742613C7.44 0.622613 7.5 0.502613 7.56 0.382613C7.68 0.382613 7.8 0.382613 7.92 0.382613C7.92 0.322613 7.92 0.262613 7.92 0.202613C8.16 0.202613 8.4 0.202613 8.64 0.202613C8.64 0.142613 8.64 0.0826131 8.64 0.0226131Z" fill="#3C4043"/>
<path fill-rule="evenodd" clip-rule="evenodd" d="M114.66 22.3426C114.48 22.3426 114.3 22.3426 114.12 22.3426C113.775 21.8101 113.01 21.6451 112.5 21.2626L112.14 20.9026C112.14 20.7826 112.14 20.6626 112.14 20.5426C112.02 20.4826 111.9 20.4226 111.78 20.3626C111.78 20.2426 111.78 20.1226 111.78 20.0026C111.66 19.9426 111.54 19.8826 111.42 19.8226C111 19.2076 111.135 18.8701 110.16 18.7426C110.1 19.0426 110.04 19.3426 109.98 19.6426C110.04 19.6426 110.1 19.6426 110.16 19.6426C110.22 19.9426 110.28 20.2426 110.34 20.5426C110.512 20.7751 111.015 20.7451 111.24 20.9026C111.36 21.0826 111.48 21.2626 111.6 21.4426C111.66 21.4426 111.72 21.4426 111.78 21.4426C111.78 21.6226 111.78 21.8026 111.78 21.9826C111.84 21.9826 111.9 21.9826 111.96 21.9826C112.335 22.7401 112.492 23.3626 112.5 24.5026C112.5 25.1701 112.642 26.2951 112.32 26.6626C112.14 27.3826 111.637 27.4501 111.24 27.9226C110.7 27.9226 110.16 27.9226 109.62 27.9226C109.62 27.8626 109.62 27.8026 109.62 27.7426C109.44 27.7426 109.26 27.7426 109.08 27.7426C109.08 27.6826 109.08 27.6226 109.08 27.5626C108.675 27.4426 108.067 27.6376 107.82 27.7426C107.82 27.8026 107.82 27.8626 107.82 27.9226C107.22 27.8626 106.62 27.8026 106.02 27.7426C105.915 27.5101 105.84 27.3601 105.66 27.2026C105.72 26.9626 105.78 26.7226 105.84 26.4826C105.96 26.4826 106.08 26.4826 106.2 26.4826C106.522 26.0026 106.92 26.0701 107.1 25.4026C107.61 24.9151 107.34 24.3526 107.1 23.7826C106.92 23.7226 106.74 23.6626 106.56 23.6026C106.56 23.5426 106.56 23.4826 106.56 23.4226C106.44 23.4226 106.32 23.4226 106.2 23.4226C106.2 23.3626 106.2 23.3026 106.2 23.2426C106.08 23.2426 105.96 23.2426 105.84 23.2426C105.78 23.1226 105.72 23.0026 105.66 22.8826C105.54 22.8826 105.42 22.8826 105.3 22.8826C105.3 22.8226 105.3 22.7626 105.3 22.7026C105.12 22.7026 104.94 22.7026 104.76 22.7026C104.76 22.6426 104.76 22.5826 104.76 22.5226C104.64 22.5226 104.52 22.5226 104.4 22.5226C104.4 22.4626 104.4 22.4026 104.4 22.3426C104.28 22.3426 104.16 22.3426 104.04 22.3426C103.98 22.2226 103.92 22.1026 103.86 21.9826C103.74 21.9826 103.62 21.9826 103.5 21.9826C103.38 21.8026 103.26 21.6226 103.14 21.4426C103.02 21.4426 102.9 21.4426 102.78 21.4426C102.72 21.3226 102.66 21.2026 102.6 21.0826C101.94 21.0826 101.28 21.0826 100.62 21.0826C100.62 21.1426 100.62 21.2026 100.62 21.2626C100.38 21.2626 100.14 21.2626 99.9 21.2626C99.9 21.3226 99.9 21.3826 99.9 21.4426C99.66 21.5026 99.42 21.5626 99.18 21.6226C99.18 21.6826 99.18 21.7426 99.18 21.8026C98.82 21.8026 98.46 21.8026 98.1 21.8026C98.1 21.8626 98.1 21.9226 98.1 21.9826C97.08 21.9826 96.06 21.9826 95.04 21.9826C95.04 22.0426 95.04 22.1026 95.04 22.1626C94.86 22.1626 94.68 22.1626 94.5 22.1626C94.5 22.2226 94.5 22.2826 94.5 22.3426C94.32 22.3426 94.14 22.3426 93.96 22.3426C93.96 22.4026 93.96 22.4626 93.96 22.5226C93.72 22.5226 93.48 22.5226 93.24 22.5226C93.24 22.5826 93.24 22.6426 93.24 22.7026C90.54 22.8226 87.84 22.9426 85.14 23.0626C85.035 23.2651 84.6 23.6026 84.6 23.6026C84.6 24.0826 84.6 24.5626 84.6 25.0426C84.54 25.0426 84.48 25.0426 84.42 25.0426C84.3 25.4026 84.18 25.7626 84.06 26.1226C84 26.1226 83.94 26.1226 83.88 26.1226C83.82 26.4226 83.76 26.7226 83.7 27.0226C83.34 27.3226 82.98 27.6226 82.62 27.9226C81.78 27.9826 80.94 28.0426 80.1 28.1026C80.1 28.0426 80.1 27.9826 80.1 27.9226C79.74 27.9226 79.38 27.9226 79.02 27.9226C79.02 27.8626 79.02 27.8026 79.02 27.7426C78.39 27.6001 78.315 27.4201 78.3 26.6626C79.08 26.2576 80.52 24.9826 80.82 24.1426C80.82 23.8426 80.82 23.5426 80.82 23.2426C79.2375 22.3426 76.545 19.8526 75.96 18.0226C75.96 16.9426 75.96 15.8626 75.96 14.7826C75.96 12.9226 75.735 11.4826 75.6 9.92256C75.18 9.86256 74.3325 9.67506 73.98 9.56256C73.62 9.56256 73.26 9.56256 72.9 9.56256C72.9 9.50256 72.9 9.44256 72.9 9.38256C72.72 9.38256 72.54 9.38256 72.36 9.38256C72.36 9.32256 72.36 9.26256 72.36 9.20256C72.24 9.20256 72.12 9.20256 72 9.20256C72 9.14256 72 9.08256 72 9.02256C70.92 9.02256 69.84 9.02256 68.76 9.02256C68.76 8.96256 68.76 8.90256 68.76 8.84256C68.52 8.84256 68.28 8.84256 68.04 8.84256C68.04 8.78256 68.04 8.72256 68.04 8.66256C67.86 8.66256 67.68 8.66256 67.5 8.66256C67.44 8.54256 67.38 8.42256 67.32 8.30256C67.2 8.30256 67.08 8.30256 66.96 8.30256C66.9 8.12256 66.84 7.94256 66.78 7.76256C66.66 7.70256 66.54 7.64256 66.42 7.58256C66.36 7.28256 66.3 6.98256 66.24 6.68256C66.3 6.68256 66.36 6.68256 66.42 6.68256C66.69 5.70006 67.68 5.40756 68.58 5.06256C68.76 5.06256 68.94 5.06256 69.12 5.06256C69.12 5.00256 69.12 4.94256 69.12 4.88256C69.24 4.88256 69.36 4.88256 69.48 4.88256C69.48 4.82256 69.48 4.76256 69.48 4.70256C69.66 4.70256 69.84 4.70256 70.02 4.70256C70.02 4.64256 70.02 4.58256 70.02 4.52256C70.62 4.46256 71.22 4.40256 71.82 4.34256C71.82 4.28256 71.82 4.22256 71.82 4.16256C72.06 4.10256 72.3 4.04256 72.54 3.98256C72.84 3.62256 73.14 3.26256 73.44 2.90256C73.56 2.90256 73.68 2.90256 73.8 2.90256C73.8 2.84256 73.8 2.78256 73.8 2.72256C74.4 2.66256 75 2.60256 75.6 2.54256C75.6 2.48256 75.6 2.42256 75.6 2.36256C75.9 2.36256 76.2 2.36256 76.5 2.36256C76.5 2.30256 76.5 2.24256 76.5 2.18256C76.68 2.18256 76.86 2.18256 77.04 2.18256C77.04 2.12256 77.04 2.06256 77.04 2.00256C77.28 2.00256 77.52 2.00256 77.76 2.00256C77.76 1.94256 77.76 1.88256 77.76 1.82256C78.54 1.64256 81.435 3.22506 81.72 3.62256C81.72 3.74256 81.72 3.86256 81.72 3.98256C81.9 4.10256 82.08 4.22256 82.26 4.34256C82.26 4.46256 82.26 4.58256 82.26 4.70256C82.38 4.76256 82.5 4.82256 82.62 4.88256C82.62 5.06256 82.62 5.24256 82.62 5.42256C82.68 5.42256 82.74 5.42256 82.8 5.42256C82.8 5.66256 82.8 5.90256 82.8 6.14256C82.86 6.14256 82.92 6.14256 82.98 6.14256C82.98 6.44256 82.98 6.74256 82.98 7.04256C83.04 7.04256 83.1 7.04256 83.16 7.04256C83.43 8.00256 82.515 9.35256 83.16 10.1026C83.3625 10.9726 84.4125 12.0451 85.5 12.0826C85.965 12.4876 87.3525 12.1951 88.02 12.4426C88.02 12.5026 88.02 12.5626 88.02 12.6226C88.14 12.6226 88.26 12.6226 88.38 12.6226C88.38 12.6826 88.38 12.7426 88.38 12.8026C88.8 12.8626 89.22 12.9226 89.64 12.9826C89.64 13.0426 89.64 13.1026 89.64 13.1626C93.66 13.1626 97.68 13.1626 101.7 13.1626C103.32 13.1626 104.94 13.1626 106.56 13.1626C106.56 13.2226 106.56 13.2826 106.56 13.3426C106.8 13.3426 107.04 13.3426 107.28 13.3426C107.28 13.4026 107.28 13.4626 107.28 13.5226C107.64 13.6426 108 13.7626 108.36 13.8826C108.36 13.9426 108.36 14.0026 108.36 14.0626C108.48 14.0626 108.6 14.0626 108.72 14.0626C108.72 14.1226 108.72 14.1826 108.72 14.2426C108.84 14.2426 108.96 14.2426 109.08 14.2426C109.38 14.6026 109.68 14.9626 109.98 15.3226C110.16 15.4426 110.34 15.5626 110.52 15.6826C110.58 15.9226 110.64 16.1626 110.7 16.4026C110.82 16.4626 110.94 16.5226 111.06 16.5826C111.12 16.8226 111.18 17.0626 111.24 17.3026C111.3 17.3026 111.36 17.3026 111.42 17.3026C111.42 17.4226 111.42 17.5426 111.42 17.6626C111.48 17.6626 111.54 17.6626 111.6 17.6626C111.6 17.7826 111.6 17.9026 111.6 18.0226C111.66 18.0226 111.72 18.0226 111.78 18.0226C111.78 18.1426 111.78 18.2626 111.78 18.3826C111.84 18.3826 111.9 18.3826 111.96 18.3826C111.96 18.5026 111.96 18.6226 111.96 18.7426C112.02 18.7426 112.08 18.7426 112.14 18.7426C112.26 19.1026 112.38 19.4626 112.5 19.8226C112.68 19.9426 112.86 20.0626 113.04 20.1826C113.1 20.3626 113.16 20.5426 113.22 20.7226C113.34 20.7826 113.46 20.8426 113.58 20.9026C113.97 21.3151 114.495 21.7201 114.66 22.3426Z" fill="#3C4043"/>
</g>
<defs>
<clipPath id="clip0_127_48">
<rect width="114.66" height="28.1025" fill="white"/>
</clipPath>
</defs>
</svg>
