<svg width="41" height="40" viewBox="0 0 41 40" fill="none" xmlns="http://www.w3.org/2000/svg">
<path d="M25.2809 21.9097V9.99998C25.2809 7.23857 23.0172 5 20.2248 5C17.4323 5 15.1686 7.23857 15.1686 9.99998V21.9097C13.617 23.283 12.6405 25.2788 12.6405 27.5C12.6405 31.6422 16.0361 35 20.2248 35C24.4134 35 27.809 31.6422 27.809 27.5C27.809 25.2788 26.8326 23.283 25.2809 21.9097ZM20.2248 32.5C17.4323 32.5 15.1686 30.2614 15.1686 27.5C15.1686 26.0564 15.7873 24.7173 16.8546 23.7726L17.6967 23.0272V9.99998C17.6967 8.61928 18.8286 7.49996 20.2248 7.49996C21.621 7.49996 22.7529 8.61922 22.7529 9.99998V23.0272L23.595 23.7726C24.6624 24.7173 25.2811 26.0564 25.2811 27.5C25.2809 30.2614 23.0172 32.5 20.2248 32.5Z" fill="#4C06B7"/>
<path d="M21.4889 15H18.9608V30H21.4889V15Z" fill="#4C06B7"/>
<path d="M20.2248 31.25C22.3191 31.25 24.0169 29.5711 24.0169 27.5C24.0169 25.4289 22.3191 23.75 20.2248 23.75C18.1304 23.75 16.4326 25.4289 16.4326 27.5C16.4326 29.5711 18.1304 31.25 20.2248 31.25Z" fill="#4C06B7"/>
</svg>
