<svg width="41" height="40" viewBox="0 0 41 40" fill="none" xmlns="http://www.w3.org/2000/svg">
<path fill-rule="evenodd" clip-rule="evenodd" d="M4.07945 16.0041C4.939 16.8541 6.30417 16.9375 7.23114 16.1708C15.1019 9.77079 26.5289 9.77079 34.4165 16.1541C35.3604 16.9208 36.7424 16.8541 37.6019 16.0041C38.5963 15.0208 38.5289 13.3875 37.4334 12.5041C27.8098 4.72079 13.8884 4.72079 4.24799 12.5041C3.15248 13.3708 3.06821 15.0041 4.07945 16.0041ZM17.158 28.9375L19.6355 31.3875C20.2929 32.0375 21.3546 32.0375 22.012 31.3875L24.4895 28.9375C25.2816 28.1541 25.1131 26.8041 24.1018 26.2875C22.0457 25.2375 19.585 25.2375 17.512 26.2875C16.5513 26.8041 16.3659 28.1541 17.158 28.9375ZM13.9558 22.9374C12.9951 23.6208 11.6973 23.5374 10.8715 22.7207C9.8434 21.7041 9.91082 20.0207 11.0737 19.1874C16.8883 15.0374 24.7928 15.0374 30.5906 19.1874C31.7535 20.0041 31.8209 21.7041 30.8097 22.7041L30.7928 22.7207C29.967 23.5374 28.6692 23.6041 27.7086 22.9374C23.5962 20.0541 18.0681 20.0541 13.9558 22.9374Z" fill="#4C06B7"/>
</svg>
